<svg width="96" height="37" viewBox="0 0 96 37" fill="none" xmlns="http://www.w3.org/2000/svg">
<mask id="path-1-inside-1_391_2058" fill="white">
<path d="M4 10C4 4.47715 8.47715 0 14 0H82C87.5229 0 92 4.47715 92 10V27C92 32.5228 87.5229 37 82 37H14C8.47715 37 4 32.5228 4 27V10Z"/>
</mask>
<path d="M4 10C4 2.8203 9.8203 -3 17 -3H79C86.1797 -3 92 2.8203 92 10C92 6.13401 87.5229 3 82 3H14C8.47715 3 4 6.13401 4 10ZM92 27C92 34.1797 86.1797 40 79 40H17C9.8203 40 4 34.1797 4 27C4 30.866 8.47715 34 14 34H82C87.5229 34 92 30.866 92 27ZM4 37V0V37ZM92 0V37V0Z" fill="#840B0B" mask="url(#path-1-inside-1_391_2058)"/>
<path d="M4 10C4 2.8203 9.8203 -3 17 -3H79C86.1797 -3 92 2.8203 92 10C92 6.13401 87.5229 3 82 3H14C8.47715 3 4 6.13401 4 10ZM92 27C92 34.1797 86.1797 40 79 40H17C9.8203 40 4 34.1797 4 27C4 30.866 8.47715 34 14 34H82C87.5229 34 92 30.866 92 27ZM4 37V0V37ZM92 0V37V0Z" fill="url(#paint0_linear_391_2058)" mask="url(#path-1-inside-1_391_2058)"/>
<path d="M11.3638 13.4385C11.9823 13.4756 12.5018 13.5065 12.9224 13.5312C13.3553 13.5436 13.714 13.556 13.9985 13.5684C14.3201 13.5807 14.5923 13.5807 14.8149 13.5684C15.0376 13.556 15.3407 13.5251 15.7241 13.4756C16.0457 13.4385 16.4725 13.3828 17.0044 13.3086C17.5487 13.222 18.2228 13.1107 19.0269 12.9746C18.7424 13.2591 18.5197 13.5189 18.3589 13.7539C18.2104 13.9766 18.0929 14.1683 18.0063 14.3291C17.9074 14.527 17.8394 14.694 17.8022 14.8301C17.7775 14.9538 17.8022 15.263 17.8765 15.7578C17.9507 16.2526 18.0558 16.8402 18.1919 17.5205C18.328 18.1885 18.4764 18.9059 18.6372 19.6729C18.798 20.4274 18.9588 21.1387 19.1196 21.8066C19.2804 22.4622 19.4227 23.0251 19.5464 23.4951C19.6825 23.9528 19.7814 24.2249 19.8433 24.3115C20.0288 24.5713 20.1463 24.7445 20.1958 24.8311C20.2453 24.9053 20.3319 24.9733 20.4556 25.0352C20.505 25.0599 20.5854 25.097 20.6968 25.1465C20.7957 25.196 20.9256 25.2578 21.0864 25.332C21.2596 25.4062 21.4761 25.4928 21.7358 25.5918C21.2534 25.6165 20.839 25.6351 20.4927 25.6475C20.1463 25.6475 19.8618 25.6536 19.6392 25.666C19.3794 25.6784 19.1567 25.6908 18.9712 25.7031C18.7856 25.7031 18.563 25.7155 18.3032 25.7402C18.0806 25.765 17.7899 25.7897 17.4312 25.8145C17.0848 25.8392 16.6766 25.8639 16.2065 25.8887C16.4539 25.7155 16.6519 25.5609 16.8003 25.4248C16.9611 25.2764 17.0848 25.1527 17.1714 25.0537C17.2703 24.93 17.3384 24.8187 17.3755 24.7197C17.4002 24.6084 17.4188 24.4414 17.4312 24.2188C17.4435 24.0208 17.4435 23.7611 17.4312 23.4395C17.4188 23.1055 17.3879 22.6725 17.3384 22.1406L12.4585 22.6416C12.3348 22.8519 12.242 23.0374 12.1802 23.1982C12.1183 23.3467 12.075 23.4766 12.0503 23.5879C12.0132 23.724 12.0008 23.8353 12.0132 23.9219C12.0379 24.0208 12.0812 24.1383 12.1431 24.2744C12.2049 24.3981 12.2915 24.5465 12.4028 24.7197C12.5265 24.8805 12.7059 25.0723 12.9409 25.2949C12.6317 25.2826 12.3162 25.2764 11.9946 25.2764C11.673 25.2764 11.3761 25.2826 11.104 25.2949C10.7824 25.3073 10.467 25.3197 10.1577 25.332C9.84847 25.3444 9.49593 25.363 9.1001 25.3877C8.76611 25.4124 8.37646 25.4434 7.93115 25.4805C7.47347 25.5052 6.98486 25.5423 6.46533 25.5918C6.78695 25.4434 7.05908 25.2949 7.28174 25.1465C7.50439 24.9857 7.68994 24.8372 7.83838 24.7012C8.01156 24.5527 8.15999 24.4105 8.28369 24.2744C8.37028 24.1507 8.54346 23.8662 8.80322 23.4209C9.06299 22.9632 9.35368 22.4251 9.67529 21.8066C10.0093 21.1882 10.3556 20.5264 10.7144 19.8213C11.0854 19.1162 11.4194 18.4544 11.7163 17.8359C12.0132 17.2051 12.2544 16.6608 12.4399 16.2031C12.6255 15.7454 12.7183 15.4486 12.7183 15.3125C12.6935 15.1517 12.6317 14.9723 12.5327 14.7744C12.4461 14.6012 12.3101 14.4033 12.1245 14.1807C11.9513 13.958 11.6978 13.7106 11.3638 13.4385ZM17.1157 20.7676C17.0415 20.3346 16.9735 19.9635 16.9116 19.6543C16.8498 19.3327 16.8003 19.0667 16.7632 18.8564C16.7137 18.609 16.6766 18.3926 16.6519 18.207C16.6147 18.0339 16.5715 17.8112 16.522 17.5391C16.4725 17.304 16.4106 17.0133 16.3364 16.667C16.2746 16.3083 16.1942 15.8815 16.0952 15.3867C15.3901 16.7969 14.8397 17.8916 14.4438 18.6709C14.0604 19.4378 13.7821 20.0007 13.6089 20.3594C13.3986 20.7799 13.2811 21.0273 13.2563 21.1016L17.1157 20.7676ZM20.6782 12.8447C21.2349 12.9437 21.6925 13.0117 22.0513 13.0488C22.41 13.0859 22.7007 13.1169 22.9233 13.1416C23.1831 13.1663 23.3872 13.1725 23.5356 13.1602H24.0923C24.2902 13.1602 24.5376 13.1602 24.8345 13.1602C25.1437 13.1478 25.5272 13.1416 25.9849 13.1416C26.2446 13.7477 26.4797 14.3044 26.6899 14.8115C26.9126 15.3187 27.0981 15.7516 27.2466 16.1104C27.4198 16.5433 27.5806 16.9329 27.729 17.2793C27.9022 17.7122 28.0877 18.1885 28.2856 18.708C28.4836 19.2275 28.6629 19.7161 28.8237 20.1738C28.9969 20.6315 29.1392 21.0088 29.2505 21.3057C29.3618 21.6025 29.4175 21.7386 29.4175 21.7139C29.4175 21.7015 29.4237 21.5778 29.436 21.3428C29.4484 21.0954 29.4608 20.7923 29.4731 20.4336C29.4855 20.0625 29.4979 19.6605 29.5103 19.2275C29.535 18.7822 29.5474 18.3555 29.5474 17.9473C29.5597 17.5267 29.5659 17.1432 29.5659 16.7969C29.5659 16.4505 29.5535 16.1908 29.5288 16.0176C29.4917 15.8073 29.4175 15.5661 29.3062 15.2939C29.2072 15.0589 29.0711 14.7806 28.8979 14.459C28.7248 14.125 28.4836 13.7477 28.1743 13.3271C28.6815 13.3395 29.0959 13.3457 29.4175 13.3457C29.7391 13.3457 29.9989 13.3457 30.1968 13.3457C30.4194 13.3457 30.5926 13.3395 30.7163 13.3271C30.8771 13.3271 31.075 13.3148 31.3101 13.29C31.5203 13.2653 31.7801 13.2467 32.0894 13.2344C32.411 13.2096 32.8068 13.1787 33.2769 13.1416C33.0047 13.389 32.7882 13.624 32.6274 13.8467C32.4666 14.0693 32.3368 14.2673 32.2378 14.4404C32.1265 14.6383 32.0522 14.8239 32.0151 14.9971C31.9657 15.2197 31.9224 15.5846 31.8853 16.0918C31.8605 16.5866 31.8296 17.1432 31.7925 17.7617C31.7677 18.3802 31.743 19.0234 31.7183 19.6914C31.6935 20.3594 31.6688 20.9717 31.644 21.5283C31.644 21.9489 31.6317 22.4004 31.6069 22.8828C31.5822 23.291 31.5575 23.7549 31.5327 24.2744C31.508 24.7816 31.4771 25.2949 31.4399 25.8145L29.7886 25.8516C29.3062 24.998 28.8979 24.2682 28.564 23.6621C28.2424 23.0436 27.9764 22.5365 27.7661 22.1406C27.5311 21.6829 27.3332 21.2995 27.1724 20.9902C27.0363 20.6934 26.8569 20.3532 26.6343 19.9697C26.4487 19.6481 26.2137 19.2523 25.9292 18.7822C25.6571 18.3122 25.3293 17.7741 24.9458 17.168C24.9087 18.0215 24.8901 18.7513 24.8901 19.3574C24.9025 19.9512 24.9211 20.446 24.9458 20.8418C24.9829 21.2995 25.0262 21.6829 25.0757 21.9922C25.1375 22.2891 25.2241 22.623 25.3354 22.9941C25.4344 23.3158 25.5519 23.693 25.688 24.126C25.8364 24.5589 26.0158 25.0475 26.2261 25.5918C25.4963 25.5547 24.952 25.5361 24.5933 25.5361H24.0366C23.8634 25.5361 23.6284 25.5547 23.3315 25.5918C23.0841 25.6165 22.744 25.6536 22.311 25.7031C21.8905 25.7526 21.3647 25.8206 20.7339 25.9072C21.0308 25.5485 21.2658 25.2207 21.439 24.9238C21.6245 24.6146 21.7668 24.3548 21.8657 24.1445C21.9894 23.8971 22.076 23.6807 22.1255 23.4951C22.1626 23.2972 22.1873 22.957 22.1997 22.4746C22.2121 21.9798 22.2121 21.4232 22.1997 20.8047C22.1997 20.1738 22.1873 19.512 22.1626 18.8193C22.1502 18.1266 22.1317 17.4834 22.1069 16.8896C22.0822 16.2959 22.0513 15.7887 22.0142 15.3682C21.9894 14.9476 21.9709 14.6878 21.9585 14.5889C21.9214 14.4281 21.8472 14.2549 21.7358 14.0693C21.6369 13.9085 21.507 13.7292 21.3462 13.5312C21.1854 13.321 20.9627 13.0921 20.6782 12.8447ZM32.6089 12.7705C33.0418 12.8324 33.4191 12.8818 33.7407 12.9189C34.0623 12.9561 34.3283 12.987 34.5386 13.0117C34.786 13.0365 34.9963 13.055 35.1694 13.0674C35.3674 13.0921 35.6086 13.0798 35.8931 13.0303C36.1899 12.9808 36.5054 12.9313 36.8394 12.8818C37.1733 12.82 37.5197 12.7705 37.8784 12.7334C38.2371 12.6963 38.5835 12.6963 38.9175 12.7334C39.1401 12.7581 39.4246 12.8076 39.771 12.8818C40.1174 12.9561 40.4823 13.0736 40.8657 13.2344C41.2616 13.3952 41.6574 13.6055 42.0532 13.8652C42.4491 14.125 42.8078 14.4528 43.1294 14.8486C43.451 15.2445 43.717 15.7145 43.9272 16.2588C44.1375 16.8031 44.255 17.4401 44.2798 18.1699C44.3169 19.2585 44.2179 20.248 43.9829 21.1387C43.7479 22.0293 43.383 22.79 42.8882 23.4209C42.4058 24.0518 41.7935 24.5465 41.0513 24.9053C40.3091 25.264 39.4432 25.4619 38.4536 25.499C37.6991 25.5609 36.9569 25.6165 36.2271 25.666C35.9178 25.6908 35.59 25.7093 35.2437 25.7217C34.9097 25.734 34.5757 25.7464 34.2417 25.7588C33.9077 25.7588 33.5861 25.7526 33.2769 25.7402C32.9676 25.7279 32.6831 25.7093 32.4233 25.6846C32.7078 25.5485 32.9367 25.4124 33.1099 25.2764C33.2954 25.1403 33.4377 25.0228 33.5366 24.9238C33.6479 24.8001 33.7284 24.6888 33.7778 24.5898C33.8026 24.4538 33.8397 24.1878 33.8892 23.792C33.9263 23.458 33.9757 22.9818 34.0376 22.3633C34.0994 21.7448 34.1737 20.9036 34.2603 19.8398L34.3716 18.5225C34.4334 17.7061 34.4582 17.0381 34.4458 16.5186C34.4458 15.999 34.4334 15.5908 34.4087 15.2939C34.3716 14.9476 34.3221 14.694 34.2603 14.5332C34.2108 14.3971 34.118 14.2363 33.9819 14.0508C33.8582 13.9023 33.6851 13.723 33.4624 13.5127C33.2521 13.29 32.9676 13.0426 32.6089 12.7705ZM36.5239 19.5986C36.5487 20.6995 36.6043 21.5469 36.6909 22.1406C36.7899 22.722 36.895 23.1549 37.0063 23.4395C37.1424 23.7611 37.2909 23.9528 37.4517 24.0146C37.6867 24.0146 37.9526 23.9157 38.2495 23.7178C38.5464 23.5075 38.8371 23.1921 39.1216 22.7715C39.4185 22.3509 39.6844 21.8252 39.9194 21.1943C40.1668 20.5635 40.3462 19.8275 40.4575 18.9863C40.5688 18.1452 40.5379 17.403 40.3647 16.7598C40.1916 16.1165 39.9627 15.5785 39.6782 15.1455C39.3937 14.7002 39.103 14.3662 38.8062 14.1436C38.5093 13.9085 38.2866 13.791 38.1382 13.791C37.965 13.791 37.8104 13.8405 37.6743 13.9395C37.5382 14.026 37.3465 14.2301 37.0991 14.5518C36.9754 14.7249 36.8641 14.9723 36.7651 15.2939C36.6785 15.5785 36.6043 15.9557 36.5425 16.4258C36.4806 16.8958 36.4621 17.502 36.4868 18.2441L36.5239 19.5986ZM44.187 12.4551C44.5828 12.5169 44.9416 12.5726 45.2632 12.6221C45.5848 12.6592 45.8631 12.6901 46.0981 12.7148C46.3703 12.752 46.6115 12.7829 46.8218 12.8076C47.0815 12.8447 47.4712 12.8014 47.9907 12.6777C48.5103 12.5417 49.0793 12.418 49.6978 12.3066C50.3286 12.1829 50.9718 12.1149 51.6274 12.1025C52.283 12.0778 52.883 12.1953 53.4272 12.4551C53.9715 12.7148 54.4168 12.9746 54.7632 13.2344C55.1095 13.4941 55.3817 13.7725 55.5796 14.0693C55.7899 14.3538 55.9383 14.6569 56.0249 14.9785C56.1115 15.3001 56.161 15.6527 56.1733 16.0361C56.161 16.6051 56.0249 17.1556 55.7651 17.6875C55.6538 17.9102 55.5054 18.1452 55.3198 18.3926C55.1466 18.6276 54.9302 18.8564 54.6704 19.0791C54.4106 19.3018 54.1014 19.512 53.7427 19.71C53.3963 19.9079 52.9881 20.0811 52.5181 20.2295C52.9757 20.3656 53.353 20.5264 53.6499 20.7119C53.9591 20.8975 54.2065 21.0706 54.3921 21.2314C54.6147 21.4294 54.7817 21.6211 54.8931 21.8066C55.0291 22.0664 55.1219 22.2891 55.1714 22.4746C55.2209 22.6602 55.2518 22.8395 55.2642 23.0127C55.2889 23.1735 55.3198 23.3405 55.3569 23.5137C55.394 23.6868 55.4744 23.8848 55.5981 24.1074C55.6971 24.2806 55.8146 24.46 55.9507 24.6455C56.0744 24.8063 56.2166 24.9795 56.3774 25.165C56.5506 25.3506 56.7609 25.5299 57.0083 25.7031C56.6619 25.7155 56.3403 25.7217 56.0435 25.7217C55.759 25.7217 55.5116 25.7217 55.3013 25.7217C55.0539 25.7217 54.8188 25.7155 54.5962 25.7031C54.3735 25.6908 54.0952 25.6846 53.7612 25.6846C53.4767 25.6846 53.1118 25.6846 52.6665 25.6846C52.2336 25.6846 51.7078 25.6908 51.0894 25.7031C51.3615 25.4928 51.5841 25.2826 51.7573 25.0723C51.9305 24.862 52.0666 24.6702 52.1655 24.4971C52.2769 24.2992 52.3573 24.1074 52.4067 23.9219C52.4686 23.5879 52.4748 23.2415 52.4253 22.8828C52.3882 22.5736 52.2892 22.2334 52.1284 21.8623C51.9676 21.4788 51.7078 21.0954 51.3491 20.7119C50.9904 20.7738 50.6873 20.8232 50.4399 20.8604C50.2049 20.8851 50.0008 20.9098 49.8276 20.9346C49.6297 20.9593 49.4689 20.9779 49.3452 20.9902C49.2339 21.0026 49.1102 21.015 48.9741 21.0273C48.8628 21.0397 48.7391 21.0583 48.603 21.083C48.4793 21.0954 48.3618 21.1139 48.2505 21.1387C48.2257 21.6706 48.2257 22.1344 48.2505 22.5303C48.2752 22.9137 48.3062 23.2354 48.3433 23.4951C48.3927 23.8044 48.4484 24.0703 48.5103 24.293C48.5721 24.5156 48.6587 24.7321 48.77 24.9424C48.8566 25.1156 48.9679 25.3011 49.104 25.499C49.2401 25.6846 49.3947 25.8392 49.5679 25.9629C49.2463 25.9629 48.937 25.9629 48.6401 25.9629C48.3556 25.9629 48.0959 25.9567 47.8608 25.9443C47.5887 25.9443 47.3289 25.9382 47.0815 25.9258C46.8341 25.9134 46.5558 25.9072 46.2466 25.9072C45.9868 25.9072 45.6776 25.9072 45.3188 25.9072C44.9725 25.9072 44.5952 25.9134 44.187 25.9258C44.5086 25.5918 44.7622 25.3073 44.9478 25.0723C45.1333 24.8372 45.2756 24.6393 45.3745 24.4785C45.4858 24.3053 45.5539 24.1569 45.5786 24.0332C45.6034 23.8353 45.6219 23.4827 45.6343 22.9756C45.659 22.4561 45.6776 21.8623 45.6899 21.1943C45.7023 20.5264 45.7085 19.8275 45.7085 19.0977C45.7085 18.3678 45.7023 17.6875 45.6899 17.0566C45.6776 16.4134 45.6652 15.863 45.6528 15.4053C45.6405 14.9476 45.6281 14.6569 45.6157 14.5332C45.5786 14.3105 45.4982 14.0879 45.3745 13.8652C45.2756 13.6673 45.1333 13.4447 44.9478 13.1973C44.7622 12.9499 44.5086 12.7025 44.187 12.4551ZM51.2007 18.9863C51.3244 18.9121 51.4295 18.8379 51.5161 18.7637C51.6027 18.6895 51.6769 18.5719 51.7388 18.4111C51.8006 18.238 51.8501 17.9967 51.8872 17.6875C51.9367 17.3783 51.9924 16.9577 52.0542 16.4258C52.1037 15.8939 52.0666 15.4548 51.9429 15.1084C51.8315 14.762 51.6769 14.4899 51.479 14.292C51.2935 14.0817 51.0832 13.9395 50.8481 13.8652C50.6255 13.7786 50.4276 13.7354 50.2544 13.7354C49.908 13.7354 49.5679 13.8405 49.2339 14.0508C48.8999 14.2611 48.6463 14.5456 48.4731 14.9043C48.4113 15.0651 48.3556 15.3311 48.3062 15.7021C48.269 16.0238 48.2443 16.4691 48.2319 17.0381C48.2196 17.6071 48.2381 18.3555 48.2876 19.2832C48.7576 19.3574 49.172 19.3883 49.5308 19.376C49.8895 19.3512 50.1925 19.3079 50.4399 19.2461C50.7368 19.1842 50.9904 19.0977 51.2007 18.9863ZM63.5952 12.0098C64.2632 12.0345 64.9373 12.1582 65.6177 12.3809C66.3104 12.5911 66.9474 12.9375 67.5288 13.4199C68.1102 13.89 68.605 14.5023 69.0132 15.2568C69.4214 15.999 69.675 16.9082 69.7739 17.9844C69.8605 18.8626 69.7492 19.7347 69.4399 20.6006C69.1431 21.4541 68.7287 22.2396 68.1968 22.957C67.6649 23.6745 67.0526 24.2868 66.3599 24.7939C65.6672 25.2887 64.9744 25.6165 64.2817 25.7773C63.8612 25.8763 63.3973 25.8887 62.8901 25.8145C62.3953 25.7279 61.8882 25.5732 61.3687 25.3506C60.8615 25.1156 60.3605 24.8187 59.8657 24.46C59.3833 24.1012 58.9442 23.693 58.5483 23.2354C58.1525 22.7653 57.8185 22.2581 57.5464 21.7139C57.2866 21.1696 57.1258 20.6006 57.064 20.0068C57.0021 19.512 56.9959 18.9678 57.0454 18.374C57.1073 17.7679 57.2248 17.168 57.3979 16.5742C57.5835 15.9681 57.8371 15.3867 58.1587 14.8301C58.4927 14.2611 58.9132 13.7663 59.4204 13.3457C59.9276 12.9128 60.5213 12.5788 61.2017 12.3438C61.8944 12.0964 62.6922 11.985 63.5952 12.0098ZM60.2739 19.5244C60.1007 20.848 60.2244 21.9118 60.645 22.7158C61.078 23.5199 61.7274 24.0085 62.5933 24.1816C63.0138 24.2682 63.4159 24.1816 63.7993 23.9219C64.1951 23.6497 64.5539 23.2601 64.8755 22.7529C65.1971 22.2458 65.4754 21.652 65.7104 20.9717C65.9455 20.2913 66.1187 19.5801 66.23 18.8379C66.3413 18.0957 66.3475 17.4277 66.2485 16.834C66.1619 16.2279 66.0073 15.7145 65.7847 15.2939C65.562 14.861 65.2899 14.527 64.9683 14.292C64.659 14.057 64.3374 13.9271 64.0034 13.9023C63.422 13.8652 62.9149 14.0199 62.4819 14.3662C62.049 14.7002 61.6841 15.1393 61.3872 15.6836C61.0903 16.2279 60.8491 16.8402 60.6636 17.5205C60.4904 18.2008 60.3605 18.8688 60.2739 19.5244ZM69.9966 13.2158C70.4172 13.2653 70.7697 13.3024 71.0542 13.3271C71.3511 13.3395 71.5923 13.3581 71.7778 13.3828C72.0005 13.4076 72.1737 13.4199 72.2974 13.4199C72.4334 13.4323 72.6375 13.4261 72.9097 13.4014C73.1447 13.3766 73.4601 13.3457 73.856 13.3086C74.2642 13.2715 74.7837 13.2158 75.4146 13.1416C75.13 13.389 74.9012 13.6302 74.728 13.8652C74.5672 14.0879 74.4435 14.2858 74.3569 14.459C74.2456 14.6693 74.1776 14.8672 74.1528 15.0527C74.1034 15.3496 74.0601 15.7578 74.0229 16.2773C73.9982 16.7845 73.9735 17.3411 73.9487 17.9473C73.924 18.5534 73.9116 19.1781 73.9116 19.8213C73.9116 20.4645 73.9178 21.0768 73.9302 21.6582C73.9549 22.2272 73.992 22.7344 74.0415 23.1797C74.1034 23.625 74.1776 23.9466 74.2642 24.1445C74.3879 24.3672 74.5177 24.5898 74.6538 24.8125C74.7775 24.998 74.9259 25.1898 75.0991 25.3877C75.2723 25.5856 75.4702 25.7464 75.6929 25.8701C74.9631 25.833 74.3817 25.8145 73.9487 25.8145H73.2808C73.0828 25.8145 72.8293 25.8268 72.52 25.8516C72.2603 25.8763 71.9325 25.901 71.5366 25.9258C71.1408 25.9505 70.6646 25.9876 70.1079 26.0371C70.3924 25.7279 70.6151 25.431 70.7759 25.1465C70.9367 24.862 71.0666 24.6146 71.1655 24.4043C71.2769 24.1569 71.3511 23.9219 71.3882 23.6992C71.4377 23.3776 71.4748 22.9818 71.4995 22.5117C71.5366 22.0293 71.5614 21.516 71.5737 20.9717C71.5861 20.415 71.5861 19.8522 71.5737 19.2832C71.5737 18.7018 71.5614 18.1452 71.5366 17.6133C71.5119 17.0814 71.4748 16.599 71.4253 16.166C71.3882 15.7331 71.3387 15.3867 71.2769 15.127C71.2397 14.9661 71.1655 14.7868 71.0542 14.5889C70.9552 14.4157 70.8192 14.2178 70.646 13.9951C70.4852 13.7601 70.2687 13.5003 69.9966 13.2158ZM75.396 12.7705C75.8289 12.8324 76.2062 12.8818 76.5278 12.9189C76.8494 12.9561 77.1154 12.987 77.3257 13.0117C77.5731 13.0365 77.7834 13.055 77.9565 13.0674C78.1545 13.0921 78.3957 13.0798 78.6802 13.0303C78.9771 12.9808 79.2925 12.9313 79.6265 12.8818C79.9604 12.82 80.3068 12.7705 80.6655 12.7334C81.0243 12.6963 81.3706 12.6963 81.7046 12.7334C81.9272 12.7581 82.2118 12.8076 82.5581 12.8818C82.9045 12.9561 83.2694 13.0736 83.6528 13.2344C84.0487 13.3952 84.4445 13.6055 84.8403 13.8652C85.2362 14.125 85.5949 14.4528 85.9165 14.8486C86.2381 15.2445 86.5041 15.7145 86.7144 16.2588C86.9246 16.8031 87.0422 17.4401 87.0669 18.1699C87.104 19.2585 87.005 20.248 86.77 21.1387C86.535 22.0293 86.1701 22.79 85.6753 23.4209C85.1929 24.0518 84.5806 24.5465 83.8384 24.9053C83.0962 25.264 82.2303 25.4619 81.2407 25.499C80.4862 25.5609 79.744 25.6165 79.0142 25.666C78.7049 25.6908 78.3771 25.7093 78.0308 25.7217C77.6968 25.734 77.3628 25.7464 77.0288 25.7588C76.6948 25.7588 76.3732 25.7526 76.064 25.7402C75.7547 25.7279 75.4702 25.7093 75.2104 25.6846C75.495 25.5485 75.7238 25.4124 75.897 25.2764C76.0825 25.1403 76.2248 25.0228 76.3237 24.9238C76.4351 24.8001 76.5155 24.6888 76.5649 24.5898C76.5897 24.4538 76.6268 24.1878 76.6763 23.792C76.7134 23.458 76.7629 22.9818 76.8247 22.3633C76.8866 21.7448 76.9608 20.9036 77.0474 19.8398L77.1587 18.5225C77.2205 17.7061 77.2453 17.0381 77.2329 16.5186C77.2329 15.999 77.2205 15.5908 77.1958 15.2939C77.1587 14.9476 77.1092 14.694 77.0474 14.5332C76.9979 14.3971 76.9051 14.2363 76.769 14.0508C76.6453 13.9023 76.4722 13.723 76.2495 13.5127C76.0392 13.29 75.7547 13.0426 75.396 12.7705ZM79.311 19.5986C79.3358 20.6995 79.3914 21.5469 79.478 22.1406C79.577 22.722 79.6821 23.1549 79.7935 23.4395C79.9295 23.7611 80.078 23.9528 80.2388 24.0146C80.4738 24.0146 80.7397 23.9157 81.0366 23.7178C81.3335 23.5075 81.6242 23.1921 81.9087 22.7715C82.2056 22.3509 82.4715 21.8252 82.7065 21.1943C82.9539 20.5635 83.1333 19.8275 83.2446 18.9863C83.356 18.1452 83.325 17.403 83.1519 16.7598C82.9787 16.1165 82.7498 15.5785 82.4653 15.1455C82.1808 14.7002 81.8901 14.3662 81.5933 14.1436C81.2964 13.9085 81.0737 13.791 80.9253 13.791C80.7521 13.791 80.5975 13.8405 80.4614 13.9395C80.3254 14.026 80.1336 14.2301 79.8862 14.5518C79.7625 14.7249 79.6512 14.9723 79.5522 15.2939C79.4657 15.5785 79.3914 15.9557 79.3296 16.4258C79.2677 16.8958 79.2492 17.502 79.2739 18.2441L79.311 19.5986Z" fill="#840B0B"/>
<path d="M11.3638 13.4385C11.9823 13.4756 12.5018 13.5065 12.9224 13.5312C13.3553 13.5436 13.714 13.556 13.9985 13.5684C14.3201 13.5807 14.5923 13.5807 14.8149 13.5684C15.0376 13.556 15.3407 13.5251 15.7241 13.4756C16.0457 13.4385 16.4725 13.3828 17.0044 13.3086C17.5487 13.222 18.2228 13.1107 19.0269 12.9746C18.7424 13.2591 18.5197 13.5189 18.3589 13.7539C18.2104 13.9766 18.0929 14.1683 18.0063 14.3291C17.9074 14.527 17.8394 14.694 17.8022 14.8301C17.7775 14.9538 17.8022 15.263 17.8765 15.7578C17.9507 16.2526 18.0558 16.8402 18.1919 17.5205C18.328 18.1885 18.4764 18.9059 18.6372 19.6729C18.798 20.4274 18.9588 21.1387 19.1196 21.8066C19.2804 22.4622 19.4227 23.0251 19.5464 23.4951C19.6825 23.9528 19.7814 24.2249 19.8433 24.3115C20.0288 24.5713 20.1463 24.7445 20.1958 24.8311C20.2453 24.9053 20.3319 24.9733 20.4556 25.0352C20.505 25.0599 20.5854 25.097 20.6968 25.1465C20.7957 25.196 20.9256 25.2578 21.0864 25.332C21.2596 25.4062 21.4761 25.4928 21.7358 25.5918C21.2534 25.6165 20.839 25.6351 20.4927 25.6475C20.1463 25.6475 19.8618 25.6536 19.6392 25.666C19.3794 25.6784 19.1567 25.6908 18.9712 25.7031C18.7856 25.7031 18.563 25.7155 18.3032 25.7402C18.0806 25.765 17.7899 25.7897 17.4312 25.8145C17.0848 25.8392 16.6766 25.8639 16.2065 25.8887C16.4539 25.7155 16.6519 25.5609 16.8003 25.4248C16.9611 25.2764 17.0848 25.1527 17.1714 25.0537C17.2703 24.93 17.3384 24.8187 17.3755 24.7197C17.4002 24.6084 17.4188 24.4414 17.4312 24.2188C17.4435 24.0208 17.4435 23.7611 17.4312 23.4395C17.4188 23.1055 17.3879 22.6725 17.3384 22.1406L12.4585 22.6416C12.3348 22.8519 12.242 23.0374 12.1802 23.1982C12.1183 23.3467 12.075 23.4766 12.0503 23.5879C12.0132 23.724 12.0008 23.8353 12.0132 23.9219C12.0379 24.0208 12.0812 24.1383 12.1431 24.2744C12.2049 24.3981 12.2915 24.5465 12.4028 24.7197C12.5265 24.8805 12.7059 25.0723 12.9409 25.2949C12.6317 25.2826 12.3162 25.2764 11.9946 25.2764C11.673 25.2764 11.3761 25.2826 11.104 25.2949C10.7824 25.3073 10.467 25.3197 10.1577 25.332C9.84847 25.3444 9.49593 25.363 9.1001 25.3877C8.76611 25.4124 8.37646 25.4434 7.93115 25.4805C7.47347 25.5052 6.98486 25.5423 6.46533 25.5918C6.78695 25.4434 7.05908 25.2949 7.28174 25.1465C7.50439 24.9857 7.68994 24.8372 7.83838 24.7012C8.01156 24.5527 8.15999 24.4105 8.28369 24.2744C8.37028 24.1507 8.54346 23.8662 8.80322 23.4209C9.06299 22.9632 9.35368 22.4251 9.67529 21.8066C10.0093 21.1882 10.3556 20.5264 10.7144 19.8213C11.0854 19.1162 11.4194 18.4544 11.7163 17.8359C12.0132 17.2051 12.2544 16.6608 12.4399 16.2031C12.6255 15.7454 12.7183 15.4486 12.7183 15.3125C12.6935 15.1517 12.6317 14.9723 12.5327 14.7744C12.4461 14.6012 12.3101 14.4033 12.1245 14.1807C11.9513 13.958 11.6978 13.7106 11.3638 13.4385ZM17.1157 20.7676C17.0415 20.3346 16.9735 19.9635 16.9116 19.6543C16.8498 19.3327 16.8003 19.0667 16.7632 18.8564C16.7137 18.609 16.6766 18.3926 16.6519 18.207C16.6147 18.0339 16.5715 17.8112 16.522 17.5391C16.4725 17.304 16.4106 17.0133 16.3364 16.667C16.2746 16.3083 16.1942 15.8815 16.0952 15.3867C15.3901 16.7969 14.8397 17.8916 14.4438 18.6709C14.0604 19.4378 13.7821 20.0007 13.6089 20.3594C13.3986 20.7799 13.2811 21.0273 13.2563 21.1016L17.1157 20.7676ZM20.6782 12.8447C21.2349 12.9437 21.6925 13.0117 22.0513 13.0488C22.41 13.0859 22.7007 13.1169 22.9233 13.1416C23.1831 13.1663 23.3872 13.1725 23.5356 13.1602H24.0923C24.2902 13.1602 24.5376 13.1602 24.8345 13.1602C25.1437 13.1478 25.5272 13.1416 25.9849 13.1416C26.2446 13.7477 26.4797 14.3044 26.6899 14.8115C26.9126 15.3187 27.0981 15.7516 27.2466 16.1104C27.4198 16.5433 27.5806 16.9329 27.729 17.2793C27.9022 17.7122 28.0877 18.1885 28.2856 18.708C28.4836 19.2275 28.6629 19.7161 28.8237 20.1738C28.9969 20.6315 29.1392 21.0088 29.2505 21.3057C29.3618 21.6025 29.4175 21.7386 29.4175 21.7139C29.4175 21.7015 29.4237 21.5778 29.436 21.3428C29.4484 21.0954 29.4608 20.7923 29.4731 20.4336C29.4855 20.0625 29.4979 19.6605 29.5103 19.2275C29.535 18.7822 29.5474 18.3555 29.5474 17.9473C29.5597 17.5267 29.5659 17.1432 29.5659 16.7969C29.5659 16.4505 29.5535 16.1908 29.5288 16.0176C29.4917 15.8073 29.4175 15.5661 29.3062 15.2939C29.2072 15.0589 29.0711 14.7806 28.8979 14.459C28.7248 14.125 28.4836 13.7477 28.1743 13.3271C28.6815 13.3395 29.0959 13.3457 29.4175 13.3457C29.7391 13.3457 29.9989 13.3457 30.1968 13.3457C30.4194 13.3457 30.5926 13.3395 30.7163 13.3271C30.8771 13.3271 31.075 13.3148 31.3101 13.29C31.5203 13.2653 31.7801 13.2467 32.0894 13.2344C32.411 13.2096 32.8068 13.1787 33.2769 13.1416C33.0047 13.389 32.7882 13.624 32.6274 13.8467C32.4666 14.0693 32.3368 14.2673 32.2378 14.4404C32.1265 14.6383 32.0522 14.8239 32.0151 14.9971C31.9657 15.2197 31.9224 15.5846 31.8853 16.0918C31.8605 16.5866 31.8296 17.1432 31.7925 17.7617C31.7677 18.3802 31.743 19.0234 31.7183 19.6914C31.6935 20.3594 31.6688 20.9717 31.644 21.5283C31.644 21.9489 31.6317 22.4004 31.6069 22.8828C31.5822 23.291 31.5575 23.7549 31.5327 24.2744C31.508 24.7816 31.4771 25.2949 31.4399 25.8145L29.7886 25.8516C29.3062 24.998 28.8979 24.2682 28.564 23.6621C28.2424 23.0436 27.9764 22.5365 27.7661 22.1406C27.5311 21.6829 27.3332 21.2995 27.1724 20.9902C27.0363 20.6934 26.8569 20.3532 26.6343 19.9697C26.4487 19.6481 26.2137 19.2523 25.9292 18.7822C25.6571 18.3122 25.3293 17.7741 24.9458 17.168C24.9087 18.0215 24.8901 18.7513 24.8901 19.3574C24.9025 19.9512 24.9211 20.446 24.9458 20.8418C24.9829 21.2995 25.0262 21.6829 25.0757 21.9922C25.1375 22.2891 25.2241 22.623 25.3354 22.9941C25.4344 23.3158 25.5519 23.693 25.688 24.126C25.8364 24.5589 26.0158 25.0475 26.2261 25.5918C25.4963 25.5547 24.952 25.5361 24.5933 25.5361H24.0366C23.8634 25.5361 23.6284 25.5547 23.3315 25.5918C23.0841 25.6165 22.744 25.6536 22.311 25.7031C21.8905 25.7526 21.3647 25.8206 20.7339 25.9072C21.0308 25.5485 21.2658 25.2207 21.439 24.9238C21.6245 24.6146 21.7668 24.3548 21.8657 24.1445C21.9894 23.8971 22.076 23.6807 22.1255 23.4951C22.1626 23.2972 22.1873 22.957 22.1997 22.4746C22.2121 21.9798 22.2121 21.4232 22.1997 20.8047C22.1997 20.1738 22.1873 19.512 22.1626 18.8193C22.1502 18.1266 22.1317 17.4834 22.1069 16.8896C22.0822 16.2959 22.0513 15.7887 22.0142 15.3682C21.9894 14.9476 21.9709 14.6878 21.9585 14.5889C21.9214 14.4281 21.8472 14.2549 21.7358 14.0693C21.6369 13.9085 21.507 13.7292 21.3462 13.5312C21.1854 13.321 20.9627 13.0921 20.6782 12.8447ZM32.6089 12.7705C33.0418 12.8324 33.4191 12.8818 33.7407 12.9189C34.0623 12.9561 34.3283 12.987 34.5386 13.0117C34.786 13.0365 34.9963 13.055 35.1694 13.0674C35.3674 13.0921 35.6086 13.0798 35.8931 13.0303C36.1899 12.9808 36.5054 12.9313 36.8394 12.8818C37.1733 12.82 37.5197 12.7705 37.8784 12.7334C38.2371 12.6963 38.5835 12.6963 38.9175 12.7334C39.1401 12.7581 39.4246 12.8076 39.771 12.8818C40.1174 12.9561 40.4823 13.0736 40.8657 13.2344C41.2616 13.3952 41.6574 13.6055 42.0532 13.8652C42.4491 14.125 42.8078 14.4528 43.1294 14.8486C43.451 15.2445 43.717 15.7145 43.9272 16.2588C44.1375 16.8031 44.255 17.4401 44.2798 18.1699C44.3169 19.2585 44.2179 20.248 43.9829 21.1387C43.7479 22.0293 43.383 22.79 42.8882 23.4209C42.4058 24.0518 41.7935 24.5465 41.0513 24.9053C40.3091 25.264 39.4432 25.4619 38.4536 25.499C37.6991 25.5609 36.9569 25.6165 36.2271 25.666C35.9178 25.6908 35.59 25.7093 35.2437 25.7217C34.9097 25.734 34.5757 25.7464 34.2417 25.7588C33.9077 25.7588 33.5861 25.7526 33.2769 25.7402C32.9676 25.7279 32.6831 25.7093 32.4233 25.6846C32.7078 25.5485 32.9367 25.4124 33.1099 25.2764C33.2954 25.1403 33.4377 25.0228 33.5366 24.9238C33.6479 24.8001 33.7284 24.6888 33.7778 24.5898C33.8026 24.4538 33.8397 24.1878 33.8892 23.792C33.9263 23.458 33.9757 22.9818 34.0376 22.3633C34.0994 21.7448 34.1737 20.9036 34.2603 19.8398L34.3716 18.5225C34.4334 17.7061 34.4582 17.0381 34.4458 16.5186C34.4458 15.999 34.4334 15.5908 34.4087 15.2939C34.3716 14.9476 34.3221 14.694 34.2603 14.5332C34.2108 14.3971 34.118 14.2363 33.9819 14.0508C33.8582 13.9023 33.6851 13.723 33.4624 13.5127C33.2521 13.29 32.9676 13.0426 32.6089 12.7705ZM36.5239 19.5986C36.5487 20.6995 36.6043 21.5469 36.6909 22.1406C36.7899 22.722 36.895 23.1549 37.0063 23.4395C37.1424 23.7611 37.2909 23.9528 37.4517 24.0146C37.6867 24.0146 37.9526 23.9157 38.2495 23.7178C38.5464 23.5075 38.8371 23.1921 39.1216 22.7715C39.4185 22.3509 39.6844 21.8252 39.9194 21.1943C40.1668 20.5635 40.3462 19.8275 40.4575 18.9863C40.5688 18.1452 40.5379 17.403 40.3647 16.7598C40.1916 16.1165 39.9627 15.5785 39.6782 15.1455C39.3937 14.7002 39.103 14.3662 38.8062 14.1436C38.5093 13.9085 38.2866 13.791 38.1382 13.791C37.965 13.791 37.8104 13.8405 37.6743 13.9395C37.5382 14.026 37.3465 14.2301 37.0991 14.5518C36.9754 14.7249 36.8641 14.9723 36.7651 15.2939C36.6785 15.5785 36.6043 15.9557 36.5425 16.4258C36.4806 16.8958 36.4621 17.502 36.4868 18.2441L36.5239 19.5986ZM44.187 12.4551C44.5828 12.5169 44.9416 12.5726 45.2632 12.6221C45.5848 12.6592 45.8631 12.6901 46.0981 12.7148C46.3703 12.752 46.6115 12.7829 46.8218 12.8076C47.0815 12.8447 47.4712 12.8014 47.9907 12.6777C48.5103 12.5417 49.0793 12.418 49.6978 12.3066C50.3286 12.1829 50.9718 12.1149 51.6274 12.1025C52.283 12.0778 52.883 12.1953 53.4272 12.4551C53.9715 12.7148 54.4168 12.9746 54.7632 13.2344C55.1095 13.4941 55.3817 13.7725 55.5796 14.0693C55.7899 14.3538 55.9383 14.6569 56.0249 14.9785C56.1115 15.3001 56.161 15.6527 56.1733 16.0361C56.161 16.6051 56.0249 17.1556 55.7651 17.6875C55.6538 17.9102 55.5054 18.1452 55.3198 18.3926C55.1466 18.6276 54.9302 18.8564 54.6704 19.0791C54.4106 19.3018 54.1014 19.512 53.7427 19.71C53.3963 19.9079 52.9881 20.0811 52.5181 20.2295C52.9757 20.3656 53.353 20.5264 53.6499 20.7119C53.9591 20.8975 54.2065 21.0706 54.3921 21.2314C54.6147 21.4294 54.7817 21.6211 54.8931 21.8066C55.0291 22.0664 55.1219 22.2891 55.1714 22.4746C55.2209 22.6602 55.2518 22.8395 55.2642 23.0127C55.2889 23.1735 55.3198 23.3405 55.3569 23.5137C55.394 23.6868 55.4744 23.8848 55.5981 24.1074C55.6971 24.2806 55.8146 24.46 55.9507 24.6455C56.0744 24.8063 56.2166 24.9795 56.3774 25.165C56.5506 25.3506 56.7609 25.5299 57.0083 25.7031C56.6619 25.7155 56.3403 25.7217 56.0435 25.7217C55.759 25.7217 55.5116 25.7217 55.3013 25.7217C55.0539 25.7217 54.8188 25.7155 54.5962 25.7031C54.3735 25.6908 54.0952 25.6846 53.7612 25.6846C53.4767 25.6846 53.1118 25.6846 52.6665 25.6846C52.2336 25.6846 51.7078 25.6908 51.0894 25.7031C51.3615 25.4928 51.5841 25.2826 51.7573 25.0723C51.9305 24.862 52.0666 24.6702 52.1655 24.4971C52.2769 24.2992 52.3573 24.1074 52.4067 23.9219C52.4686 23.5879 52.4748 23.2415 52.4253 22.8828C52.3882 22.5736 52.2892 22.2334 52.1284 21.8623C51.9676 21.4788 51.7078 21.0954 51.3491 20.7119C50.9904 20.7738 50.6873 20.8232 50.4399 20.8604C50.2049 20.8851 50.0008 20.9098 49.8276 20.9346C49.6297 20.9593 49.4689 20.9779 49.3452 20.9902C49.2339 21.0026 49.1102 21.015 48.9741 21.0273C48.8628 21.0397 48.7391 21.0583 48.603 21.083C48.4793 21.0954 48.3618 21.1139 48.2505 21.1387C48.2257 21.6706 48.2257 22.1344 48.2505 22.5303C48.2752 22.9137 48.3062 23.2354 48.3433 23.4951C48.3927 23.8044 48.4484 24.0703 48.5103 24.293C48.5721 24.5156 48.6587 24.7321 48.77 24.9424C48.8566 25.1156 48.9679 25.3011 49.104 25.499C49.2401 25.6846 49.3947 25.8392 49.5679 25.9629C49.2463 25.9629 48.937 25.9629 48.6401 25.9629C48.3556 25.9629 48.0959 25.9567 47.8608 25.9443C47.5887 25.9443 47.3289 25.9382 47.0815 25.9258C46.8341 25.9134 46.5558 25.9072 46.2466 25.9072C45.9868 25.9072 45.6776 25.9072 45.3188 25.9072C44.9725 25.9072 44.5952 25.9134 44.187 25.9258C44.5086 25.5918 44.7622 25.3073 44.9478 25.0723C45.1333 24.8372 45.2756 24.6393 45.3745 24.4785C45.4858 24.3053 45.5539 24.1569 45.5786 24.0332C45.6034 23.8353 45.6219 23.4827 45.6343 22.9756C45.659 22.4561 45.6776 21.8623 45.6899 21.1943C45.7023 20.5264 45.7085 19.8275 45.7085 19.0977C45.7085 18.3678 45.7023 17.6875 45.6899 17.0566C45.6776 16.4134 45.6652 15.863 45.6528 15.4053C45.6405 14.9476 45.6281 14.6569 45.6157 14.5332C45.5786 14.3105 45.4982 14.0879 45.3745 13.8652C45.2756 13.6673 45.1333 13.4447 44.9478 13.1973C44.7622 12.9499 44.5086 12.7025 44.187 12.4551ZM51.2007 18.9863C51.3244 18.9121 51.4295 18.8379 51.5161 18.7637C51.6027 18.6895 51.6769 18.5719 51.7388 18.4111C51.8006 18.238 51.8501 17.9967 51.8872 17.6875C51.9367 17.3783 51.9924 16.9577 52.0542 16.4258C52.1037 15.8939 52.0666 15.4548 51.9429 15.1084C51.8315 14.762 51.6769 14.4899 51.479 14.292C51.2935 14.0817 51.0832 13.9395 50.8481 13.8652C50.6255 13.7786 50.4276 13.7354 50.2544 13.7354C49.908 13.7354 49.5679 13.8405 49.2339 14.0508C48.8999 14.2611 48.6463 14.5456 48.4731 14.9043C48.4113 15.0651 48.3556 15.3311 48.3062 15.7021C48.269 16.0238 48.2443 16.4691 48.2319 17.0381C48.2196 17.6071 48.2381 18.3555 48.2876 19.2832C48.7576 19.3574 49.172 19.3883 49.5308 19.376C49.8895 19.3512 50.1925 19.3079 50.4399 19.2461C50.7368 19.1842 50.9904 19.0977 51.2007 18.9863ZM63.5952 12.0098C64.2632 12.0345 64.9373 12.1582 65.6177 12.3809C66.3104 12.5911 66.9474 12.9375 67.5288 13.4199C68.1102 13.89 68.605 14.5023 69.0132 15.2568C69.4214 15.999 69.675 16.9082 69.7739 17.9844C69.8605 18.8626 69.7492 19.7347 69.4399 20.6006C69.1431 21.4541 68.7287 22.2396 68.1968 22.957C67.6649 23.6745 67.0526 24.2868 66.3599 24.7939C65.6672 25.2887 64.9744 25.6165 64.2817 25.7773C63.8612 25.8763 63.3973 25.8887 62.8901 25.8145C62.3953 25.7279 61.8882 25.5732 61.3687 25.3506C60.8615 25.1156 60.3605 24.8187 59.8657 24.46C59.3833 24.1012 58.9442 23.693 58.5483 23.2354C58.1525 22.7653 57.8185 22.2581 57.5464 21.7139C57.2866 21.1696 57.1258 20.6006 57.064 20.0068C57.0021 19.512 56.9959 18.9678 57.0454 18.374C57.1073 17.7679 57.2248 17.168 57.3979 16.5742C57.5835 15.9681 57.8371 15.3867 58.1587 14.8301C58.4927 14.2611 58.9132 13.7663 59.4204 13.3457C59.9276 12.9128 60.5213 12.5788 61.2017 12.3438C61.8944 12.0964 62.6922 11.985 63.5952 12.0098ZM60.2739 19.5244C60.1007 20.848 60.2244 21.9118 60.645 22.7158C61.078 23.5199 61.7274 24.0085 62.5933 24.1816C63.0138 24.2682 63.4159 24.1816 63.7993 23.9219C64.1951 23.6497 64.5539 23.2601 64.8755 22.7529C65.1971 22.2458 65.4754 21.652 65.7104 20.9717C65.9455 20.2913 66.1187 19.5801 66.23 18.8379C66.3413 18.0957 66.3475 17.4277 66.2485 16.834C66.1619 16.2279 66.0073 15.7145 65.7847 15.2939C65.562 14.861 65.2899 14.527 64.9683 14.292C64.659 14.057 64.3374 13.9271 64.0034 13.9023C63.422 13.8652 62.9149 14.0199 62.4819 14.3662C62.049 14.7002 61.6841 15.1393 61.3872 15.6836C61.0903 16.2279 60.8491 16.8402 60.6636 17.5205C60.4904 18.2008 60.3605 18.8688 60.2739 19.5244ZM69.9966 13.2158C70.4172 13.2653 70.7697 13.3024 71.0542 13.3271C71.3511 13.3395 71.5923 13.3581 71.7778 13.3828C72.0005 13.4076 72.1737 13.4199 72.2974 13.4199C72.4334 13.4323 72.6375 13.4261 72.9097 13.4014C73.1447 13.3766 73.4601 13.3457 73.856 13.3086C74.2642 13.2715 74.7837 13.2158 75.4146 13.1416C75.13 13.389 74.9012 13.6302 74.728 13.8652C74.5672 14.0879 74.4435 14.2858 74.3569 14.459C74.2456 14.6693 74.1776 14.8672 74.1528 15.0527C74.1034 15.3496 74.0601 15.7578 74.0229 16.2773C73.9982 16.7845 73.9735 17.3411 73.9487 17.9473C73.924 18.5534 73.9116 19.1781 73.9116 19.8213C73.9116 20.4645 73.9178 21.0768 73.9302 21.6582C73.9549 22.2272 73.992 22.7344 74.0415 23.1797C74.1034 23.625 74.1776 23.9466 74.2642 24.1445C74.3879 24.3672 74.5177 24.5898 74.6538 24.8125C74.7775 24.998 74.9259 25.1898 75.0991 25.3877C75.2723 25.5856 75.4702 25.7464 75.6929 25.8701C74.9631 25.833 74.3817 25.8145 73.9487 25.8145H73.2808C73.0828 25.8145 72.8293 25.8268 72.52 25.8516C72.2603 25.8763 71.9325 25.901 71.5366 25.9258C71.1408 25.9505 70.6646 25.9876 70.1079 26.0371C70.3924 25.7279 70.6151 25.431 70.7759 25.1465C70.9367 24.862 71.0666 24.6146 71.1655 24.4043C71.2769 24.1569 71.3511 23.9219 71.3882 23.6992C71.4377 23.3776 71.4748 22.9818 71.4995 22.5117C71.5366 22.0293 71.5614 21.516 71.5737 20.9717C71.5861 20.415 71.5861 19.8522 71.5737 19.2832C71.5737 18.7018 71.5614 18.1452 71.5366 17.6133C71.5119 17.0814 71.4748 16.599 71.4253 16.166C71.3882 15.7331 71.3387 15.3867 71.2769 15.127C71.2397 14.9661 71.1655 14.7868 71.0542 14.5889C70.9552 14.4157 70.8192 14.2178 70.646 13.9951C70.4852 13.7601 70.2687 13.5003 69.9966 13.2158ZM75.396 12.7705C75.8289 12.8324 76.2062 12.8818 76.5278 12.9189C76.8494 12.9561 77.1154 12.987 77.3257 13.0117C77.5731 13.0365 77.7834 13.055 77.9565 13.0674C78.1545 13.0921 78.3957 13.0798 78.6802 13.0303C78.9771 12.9808 79.2925 12.9313 79.6265 12.8818C79.9604 12.82 80.3068 12.7705 80.6655 12.7334C81.0243 12.6963 81.3706 12.6963 81.7046 12.7334C81.9272 12.7581 82.2118 12.8076 82.5581 12.8818C82.9045 12.9561 83.2694 13.0736 83.6528 13.2344C84.0487 13.3952 84.4445 13.6055 84.8403 13.8652C85.2362 14.125 85.5949 14.4528 85.9165 14.8486C86.2381 15.2445 86.5041 15.7145 86.7144 16.2588C86.9246 16.8031 87.0422 17.4401 87.0669 18.1699C87.104 19.2585 87.005 20.248 86.77 21.1387C86.535 22.0293 86.1701 22.79 85.6753 23.4209C85.1929 24.0518 84.5806 24.5465 83.8384 24.9053C83.0962 25.264 82.2303 25.4619 81.2407 25.499C80.4862 25.5609 79.744 25.6165 79.0142 25.666C78.7049 25.6908 78.3771 25.7093 78.0308 25.7217C77.6968 25.734 77.3628 25.7464 77.0288 25.7588C76.6948 25.7588 76.3732 25.7526 76.064 25.7402C75.7547 25.7279 75.4702 25.7093 75.2104 25.6846C75.495 25.5485 75.7238 25.4124 75.897 25.2764C76.0825 25.1403 76.2248 25.0228 76.3237 24.9238C76.4351 24.8001 76.5155 24.6888 76.5649 24.5898C76.5897 24.4538 76.6268 24.1878 76.6763 23.792C76.7134 23.458 76.7629 22.9818 76.8247 22.3633C76.8866 21.7448 76.9608 20.9036 77.0474 19.8398L77.1587 18.5225C77.2205 17.7061 77.2453 17.0381 77.2329 16.5186C77.2329 15.999 77.2205 15.5908 77.1958 15.2939C77.1587 14.9476 77.1092 14.694 77.0474 14.5332C76.9979 14.3971 76.9051 14.2363 76.769 14.0508C76.6453 13.9023 76.4722 13.723 76.2495 13.5127C76.0392 13.29 75.7547 13.0426 75.396 12.7705ZM79.311 19.5986C79.3358 20.6995 79.3914 21.5469 79.478 22.1406C79.577 22.722 79.6821 23.1549 79.7935 23.4395C79.9295 23.7611 80.078 23.9528 80.2388 24.0146C80.4738 24.0146 80.7397 23.9157 81.0366 23.7178C81.3335 23.5075 81.6242 23.1921 81.9087 22.7715C82.2056 22.3509 82.4715 21.8252 82.7065 21.1943C82.9539 20.5635 83.1333 19.8275 83.2446 18.9863C83.356 18.1452 83.325 17.403 83.1519 16.7598C82.9787 16.1165 82.7498 15.5785 82.4653 15.1455C82.1808 14.7002 81.8901 14.3662 81.5933 14.1436C81.2964 13.9085 81.0737 13.791 80.9253 13.791C80.7521 13.791 80.5975 13.8405 80.4614 13.9395C80.3254 14.026 80.1336 14.2301 79.8862 14.5518C79.7625 14.7249 79.6512 14.9723 79.5522 15.2939C79.4657 15.5785 79.3914 15.9557 79.3296 16.4258C79.2677 16.8958 79.2492 17.502 79.2739 18.2441L79.311 19.5986Z" fill="url(#paint1_linear_391_2058)"/>
<defs>
<linearGradient id="paint0_linear_391_2058" x1="4" y1="19.0968" x2="92.0028" y2="17.4552" gradientUnits="userSpaceOnUse">
<stop stop-opacity="0"/>
<stop offset="0.495"/>
<stop offset="1" stop-opacity="0"/>
</linearGradient>
<linearGradient id="paint1_linear_391_2058" x1="0" y1="16" x2="96" y2="16" gradientUnits="userSpaceOnUse">
<stop offset="0.0659998" stop-opacity="0.18"/>
<stop offset="0.261" stop-opacity="0.7"/>
<stop offset="0.526" stop-opacity="0.09"/>
<stop offset="0.826" stop-opacity="0.7"/>
<stop offset="1" stop-opacity="0"/>
</linearGradient>
</defs>
</svg>
