<svg width="1945" height="1092" viewBox="0 0 1945 1092" fill="none" xmlns="http://www.w3.org/2000/svg">
<rect width="1945" height="1092" fill="#F5CA99"/>
<path d="M1569 1093.43C1729.62 963.048 1823.85 921.877 2006.59 960.763" stroke="#955932" stroke-width="10"/>
<path d="M867.934 1092.52C1711.14 836.574 2014.96 665.524 1960.83 41.6131" stroke="#955932" stroke-width="10"/>
<path d="M38 151.5C269.223 -32.8 866.857 -14.002 -2.5 252.5" stroke="#C68E68" stroke-width="10"/>
<path d="M1014 283C1561 131.5 1313.33 391.028 1150 518" stroke="#C68E68" stroke-width="10"/>
<path d="M931.308 289.61C2263.43 -36.5634 1503.19 430.734 1023.53 635.954" stroke="#C68E68" stroke-width="10"/>
<path d="M0.797527 212.249C17.8681 91.2175 80.764 38.1409 164 -3.33967e-05" stroke="#955932" stroke-width="10"/>
<path d="M1945 145C1410.02 22.0357 1337 -59.9708 970.551 266.857" stroke="#955932" stroke-width="10"/>
<path d="M2077.8 -16.6002C1741.54 665.678 971.211 695.368 455.756 1092.53" stroke="#C68E68" stroke-width="10"/>
<path d="M2310.74 613.095C1807.78 802.002 1628.63 827.566 1245.7 1103.52" stroke="#C68E68" stroke-width="10"/>
<path d="M1999.54 768.739C1756.1 868.874 1618.28 941.021 1410.86 1103.43" stroke="#C68E68" stroke-width="10"/>
<path d="M278.655 -5.56514C135.963 23.6802 75.1752 71.675 -3.19169e-05 212" stroke="#C68E68" stroke-width="10"/>
<path d="M442.574 -3.67098C885.5 60.4998 145.35 157.096 -3.99998 345" stroke="#C68E68" stroke-width="10"/>
<path d="M994.076 -0.980654C437.577 52.5193 371.816 524.592 -19.9235 611.519" stroke="#C68E68" stroke-width="10"/>
<path d="M1470.09 -3.45992C1051.57 -106.432 326.171 964.461 -3.16693 895.919" stroke="#C68E68" stroke-width="10"/>
</svg>
