<svg width="631" height="609" viewBox="0 0 631 609" fill="none" xmlns="http://www.w3.org/2000/svg">
<g filter="url(#filter0_d_247_19589)">
<path d="M4 33.5613C4 24.1578 10.5844 15.9948 19.799 14.1198C134.219 -9.16295 202.604 -3.49014 316.864 29.9407C320.205 30.9183 323.822 31.0225 327.212 30.2302C441.44 3.53185 508.084 -5.226 611.037 14.2663C620.337 16.0271 627 24.2321 627 33.6972V580.453C627 591.499 618.046 600.453 607 600.453H24C12.9543 600.453 4 591.499 4 580.453V33.5613Z" fill="#C68E68"/>
<path d="M18 59.5898C18 49.9269 24.9471 41.6179 34.4757 40.0119C148.644 20.7696 213.757 27.4535 316.607 63.1428C320.736 64.5758 325.294 64.6402 329.463 63.3242C438.496 28.9003 500.743 23.8436 596.593 39.9974C606.099 41.5996 613 49.8991 613 59.5396V567.453C613 578.499 604.046 587.453 593 587.453H38C26.9543 587.453 18 578.499 18 567.453V59.5898Z" fill="#FFEFDB"/>
</g>
<defs>
<filter id="filter0_d_247_19589" x="0" y="0" width="631" height="608.453" filterUnits="userSpaceOnUse" color-interpolation-filters="sRGB">
<feFlood flood-opacity="0" result="BackgroundImageFix"/>
<feColorMatrix in="SourceAlpha" type="matrix" values="0 0 0 0 0 0 0 0 0 0 0 0 0 0 0 0 0 0 127 0" result="hardAlpha"/>
<feOffset dy="4"/>
<feGaussianBlur stdDeviation="2"/>
<feComposite in2="hardAlpha" operator="out"/>
<feColorMatrix type="matrix" values="0 0 0 0 0 0 0 0 0 0 0 0 0 0 0 0 0 0 0.25 0"/>
<feBlend mode="normal" in2="BackgroundImageFix" result="effect1_dropShadow_247_19589"/>
<feBlend mode="normal" in="SourceGraphic" in2="effect1_dropShadow_247_19589" result="shape"/>
</filter>
</defs>
</svg>
