<svg width="96" height="45" viewBox="0 0 96 45" fill="none" xmlns="http://www.w3.org/2000/svg">
<g filter="url(#filter0_d_391_2078)">
<mask id="path-1-inside-1_391_2078" fill="white">
<path d="M4 10C4 4.47715 8.47715 0 14 0H82C87.5229 0 92 4.47715 92 10V27C92 32.5228 87.5229 37 82 37H14C8.47715 37 4 32.5228 4 27V10Z"/>
</mask>
<path d="M4 10C4 2.8203 9.8203 -3 17 -3H79C86.1797 -3 92 2.8203 92 10C92 6.13401 87.5229 3 82 3H14C8.47715 3 4 6.13401 4 10ZM92 27C92 34.1797 86.1797 40 79 40H17C9.8203 40 4 34.1797 4 27C4 30.866 8.47715 34 14 34H82C87.5229 34 92 30.866 92 27ZM4 37V0V37ZM92 0V37V0Z" fill="#840B0B" mask="url(#path-1-inside-1_391_2078)"/>
<path d="M4 10C4 2.8203 9.8203 -3 17 -3H79C86.1797 -3 92 2.8203 92 10C92 6.13401 87.5229 3 82 3H14C8.47715 3 4 6.13401 4 10ZM92 27C92 34.1797 86.1797 40 79 40H17C9.8203 40 4 34.1797 4 27C4 30.866 8.47715 34 14 34H82C87.5229 34 92 30.866 92 27ZM4 37V0V37ZM92 0V37V0Z" fill="url(#paint0_linear_391_2078)" mask="url(#path-1-inside-1_391_2078)"/>
<path d="M19.7134 12.2881C20.1463 12.2881 20.536 12.3623 20.8823 12.5107C21.241 12.6468 21.5688 12.8014 21.8657 12.9746C22.175 13.1478 22.4657 13.3086 22.7378 13.457C23.0099 13.5931 23.2882 13.6611 23.5728 13.6611C23.7954 13.6488 24.049 13.6178 24.3335 13.5684C24.5809 13.5189 24.8654 13.4447 25.187 13.3457C25.521 13.2344 25.8921 13.0736 26.3003 12.8633C25.8921 13.2591 25.5581 13.5931 25.2983 13.8652C25.0509 14.125 24.8592 14.3415 24.7231 14.5146C24.5623 14.7126 24.4448 14.8672 24.3706 14.9785C24.2964 15.1146 24.1851 15.3187 24.0366 15.5908C23.9006 15.8382 23.715 16.1722 23.48 16.5928C23.245 17.001 22.9481 17.5391 22.5894 18.207C22.5894 17.3535 22.5028 16.6917 22.3296 16.2217C22.1688 15.7516 21.9894 15.3929 21.7915 15.1455C21.5565 14.861 21.2905 14.6816 20.9937 14.6074C20.7215 14.5703 20.4494 14.6198 20.1772 14.7559C19.9051 14.8796 19.633 15.0651 19.3608 15.3125C19.1011 15.5599 18.8475 15.8568 18.6001 16.2031C18.3651 16.5371 18.1486 16.8896 17.9507 17.2607C17.7651 17.6318 17.6105 18.0091 17.4868 18.3926C17.3631 18.7637 17.2827 19.11 17.2456 19.4316C17.2085 19.7161 17.2023 20.0501 17.2271 20.4336C17.2518 20.8047 17.3075 21.1882 17.394 21.584C17.4806 21.9674 17.592 22.3447 17.728 22.7158C17.8641 23.0869 18.0311 23.4209 18.229 23.7178C18.4393 24.0023 18.6743 24.2373 18.9341 24.4229C19.1938 24.596 19.4907 24.6764 19.8247 24.6641C20.1958 24.6393 20.5607 24.528 20.9194 24.3301C21.2287 24.1693 21.5441 23.9219 21.8657 23.5879C22.1873 23.2415 22.4657 22.7529 22.7007 22.1221L25.4468 22.623C24.6551 23.5879 23.882 24.3115 23.1274 24.7939C22.3853 25.2764 21.7173 25.6165 21.1235 25.8145C20.4308 26.0371 19.7752 26.1423 19.1567 26.1299C18.3774 26.0433 17.6476 25.8083 16.9673 25.4248C16.2869 25.0413 15.6994 24.5775 15.2046 24.0332C14.7222 23.4766 14.3449 22.8704 14.0728 22.2148C13.8006 21.5592 13.6831 20.916 13.7202 20.2852C13.745 19.8646 13.8315 19.376 13.98 18.8193C14.1284 18.2503 14.3263 17.6689 14.5737 17.0752C14.8335 16.4814 15.1427 15.9001 15.5015 15.3311C15.8602 14.762 16.256 14.2549 16.689 13.8096C17.1219 13.3519 17.592 12.987 18.0991 12.7148C18.6187 12.4303 19.1567 12.2881 19.7134 12.2881ZM24.686 12.4551C25.0819 12.5169 25.4406 12.5726 25.7622 12.6221C26.0838 12.6592 26.3621 12.6901 26.5972 12.7148C26.8693 12.752 27.1105 12.7829 27.3208 12.8076C27.5806 12.8447 27.9702 12.8014 28.4897 12.6777C29.0093 12.5417 29.5783 12.418 30.1968 12.3066C30.8276 12.1829 31.4709 12.1149 32.1265 12.1025C32.7821 12.0778 33.382 12.1953 33.9263 12.4551C34.4705 12.7148 34.9159 12.9746 35.2622 13.2344C35.6086 13.4941 35.8807 13.7725 36.0786 14.0693C36.2889 14.3538 36.4373 14.6569 36.5239 14.9785C36.6105 15.3001 36.66 15.6527 36.6724 16.0361C36.66 16.6051 36.5239 17.1556 36.2642 17.6875C36.1528 17.9102 36.0044 18.1452 35.8188 18.3926C35.6457 18.6276 35.4292 18.8564 35.1694 19.0791C34.9097 19.3018 34.6004 19.512 34.2417 19.71C33.8953 19.9079 33.4871 20.0811 33.0171 20.2295C33.4748 20.3656 33.8521 20.5264 34.1489 20.7119C34.4582 20.8975 34.7056 21.0706 34.8911 21.2314C35.1138 21.4294 35.2808 21.6211 35.3921 21.8066C35.5282 22.0664 35.6209 22.2891 35.6704 22.4746C35.7199 22.6602 35.7508 22.8395 35.7632 23.0127C35.7879 23.1735 35.8188 23.3405 35.856 23.5137C35.8931 23.6868 35.9735 23.8848 36.0972 24.1074C36.1961 24.2806 36.3136 24.46 36.4497 24.6455C36.5734 24.8063 36.7157 24.9795 36.8765 25.165C37.0496 25.3506 37.2599 25.5299 37.5073 25.7031C37.161 25.7155 36.8394 25.7217 36.5425 25.7217C36.258 25.7217 36.0106 25.7217 35.8003 25.7217C35.5529 25.7217 35.3179 25.7155 35.0952 25.7031C34.8726 25.6908 34.5942 25.6846 34.2603 25.6846C33.9757 25.6846 33.6108 25.6846 33.1655 25.6846C32.7326 25.6846 32.2069 25.6908 31.5884 25.7031C31.8605 25.4928 32.0832 25.2826 32.2563 25.0723C32.4295 24.862 32.5656 24.6702 32.6646 24.4971C32.7759 24.2992 32.8563 24.1074 32.9058 23.9219C32.9676 23.5879 32.9738 23.2415 32.9243 22.8828C32.8872 22.5736 32.7882 22.2334 32.6274 21.8623C32.4666 21.4788 32.2069 21.0954 31.8481 20.7119C31.4894 20.7738 31.1864 20.8232 30.939 20.8604C30.7039 20.8851 30.4998 20.9098 30.3267 20.9346C30.1287 20.9593 29.9679 20.9779 29.8442 20.9902C29.7329 21.0026 29.6092 21.015 29.4731 21.0273C29.3618 21.0397 29.2381 21.0583 29.1021 21.083C28.9784 21.0954 28.8608 21.1139 28.7495 21.1387C28.7248 21.6706 28.7248 22.1344 28.7495 22.5303C28.7743 22.9137 28.8052 23.2354 28.8423 23.4951C28.8918 23.8044 28.9474 24.0703 29.0093 24.293C29.0711 24.5156 29.1577 24.7321 29.269 24.9424C29.3556 25.1156 29.467 25.3011 29.603 25.499C29.7391 25.6846 29.8937 25.8392 30.0669 25.9629C29.7453 25.9629 29.436 25.9629 29.1392 25.9629C28.8547 25.9629 28.5949 25.9567 28.3599 25.9443C28.0877 25.9443 27.828 25.9382 27.5806 25.9258C27.3332 25.9134 27.0549 25.9072 26.7456 25.9072C26.4858 25.9072 26.1766 25.9072 25.8179 25.9072C25.4715 25.9072 25.0942 25.9134 24.686 25.9258C25.0076 25.5918 25.2612 25.3073 25.4468 25.0723C25.6323 24.8372 25.7746 24.6393 25.8735 24.4785C25.9849 24.3053 26.0529 24.1569 26.0776 24.0332C26.1024 23.8353 26.1209 23.4827 26.1333 22.9756C26.158 22.4561 26.1766 21.8623 26.189 21.1943C26.2013 20.5264 26.2075 19.8275 26.2075 19.0977C26.2075 18.3678 26.2013 17.6875 26.189 17.0566C26.1766 16.4134 26.1642 15.863 26.1519 15.4053C26.1395 14.9476 26.1271 14.6569 26.1147 14.5332C26.0776 14.3105 25.9972 14.0879 25.8735 13.8652C25.7746 13.6673 25.6323 13.4447 25.4468 13.1973C25.2612 12.9499 25.0076 12.7025 24.686 12.4551ZM31.6997 18.9863C31.8234 18.9121 31.9285 18.8379 32.0151 18.7637C32.1017 18.6895 32.1759 18.5719 32.2378 18.4111C32.2996 18.238 32.3491 17.9967 32.3862 17.6875C32.4357 17.3783 32.4914 16.9577 32.5532 16.4258C32.6027 15.8939 32.5656 15.4548 32.4419 15.1084C32.3306 14.762 32.1759 14.4899 31.978 14.292C31.7925 14.0817 31.5822 13.9395 31.3472 13.8652C31.1245 13.7786 30.9266 13.7354 30.7534 13.7354C30.4071 13.7354 30.0669 13.8405 29.7329 14.0508C29.3989 14.2611 29.1453 14.5456 28.9722 14.9043C28.9103 15.0651 28.8547 15.3311 28.8052 15.7021C28.7681 16.0238 28.7433 16.4691 28.731 17.0381C28.7186 17.6071 28.7371 18.3555 28.7866 19.2832C29.2567 19.3574 29.6711 19.3883 30.0298 19.376C30.3885 19.3512 30.6916 19.3079 30.939 19.2461C31.2358 19.1842 31.4894 19.0977 31.6997 18.9863ZM34.4829 12.8262C35.0148 12.8757 35.4849 12.9128 35.8931 12.9375C36.3013 12.9622 36.6414 12.987 36.9136 13.0117C37.2352 13.0365 37.5073 13.055 37.73 13.0674C37.9526 13.0798 38.2248 13.0859 38.5464 13.0859C38.8185 13.0983 39.1587 13.1045 39.5669 13.1045C39.9751 13.1045 40.4575 13.1045 41.0142 13.1045C40.6554 13.2777 40.3771 13.4385 40.1792 13.5869C39.9937 13.7354 39.8514 13.8652 39.7524 13.9766C39.6287 14.1126 39.5545 14.2363 39.5298 14.3477C39.5174 14.4466 39.5422 14.6136 39.604 14.8486C39.6659 15.0837 39.7524 15.3496 39.8638 15.6465C39.9751 15.931 40.1112 16.234 40.272 16.5557C40.4328 16.8773 40.5998 17.168 40.7729 17.4277C40.9585 17.6751 41.144 17.8792 41.3296 18.04C41.5151 18.2008 41.6945 18.2751 41.8677 18.2627C42.0409 18.2503 42.2511 18.1699 42.4985 18.0215C42.7459 17.8607 42.9995 17.6628 43.2593 17.4277C43.5314 17.1927 43.7974 16.9391 44.0571 16.667C44.3169 16.3949 44.5457 16.1289 44.7437 15.8691C44.9539 15.6094 45.1209 15.3743 45.2446 15.1641C45.3807 14.9414 45.4487 14.7806 45.4487 14.6816C45.4364 14.5579 45.3869 14.4157 45.3003 14.2549C45.2261 14.1188 45.1024 13.958 44.9292 13.7725C44.756 13.5745 44.5148 13.3519 44.2056 13.1045C45.2199 13.1416 45.9621 13.1602 46.4321 13.1602H47.1187H47.8979C48.1825 13.1602 48.5597 13.1602 49.0298 13.1602C49.4998 13.1478 50.0874 13.1292 50.7925 13.1045C50.3101 13.4261 49.8895 13.7168 49.5308 13.9766C49.1844 14.224 48.8875 14.4342 48.6401 14.6074C48.3556 14.8177 48.1206 15.0033 47.9351 15.1641C47.7248 15.3372 47.4341 15.6094 47.063 15.9805C46.7414 16.3021 46.3146 16.735 45.7827 17.2793C45.2508 17.8112 44.5828 18.5039 43.7788 19.3574C43.6675 20.2604 43.5933 20.9902 43.5562 21.5469C43.5314 22.1035 43.519 22.5426 43.519 22.8643C43.519 23.2354 43.5438 23.5137 43.5933 23.6992C43.6551 23.8477 43.7603 24.0208 43.9087 24.2188C44.0324 24.3919 44.2056 24.596 44.4282 24.8311C44.6632 25.0661 44.9725 25.3258 45.356 25.6104C44.9478 25.5114 44.5643 25.4372 44.2056 25.3877C43.8592 25.3382 43.55 25.3011 43.2778 25.2764C42.9562 25.2393 42.6655 25.2207 42.4058 25.2207C42.1336 25.2207 41.812 25.2331 41.4409 25.2578C41.1193 25.2826 40.7358 25.3135 40.2905 25.3506C39.8452 25.3877 39.3257 25.4434 38.7319 25.5176C39.0412 25.3073 39.2948 25.097 39.4927 24.8867C39.6906 24.6764 39.8452 24.4847 39.9565 24.3115C40.0926 24.1136 40.1916 23.9281 40.2534 23.7549C40.3029 23.557 40.34 23.2725 40.3647 22.9014C40.3895 22.5798 40.3895 22.153 40.3647 21.6211C40.3524 21.0892 40.3153 20.415 40.2534 19.5986C39.5112 18.4111 38.9051 17.4772 38.4351 16.7969C37.965 16.1042 37.6001 15.5785 37.3403 15.2197C37.0311 14.8115 36.8084 14.5394 36.6724 14.4033C36.5487 14.3044 36.3817 14.1807 36.1714 14.0322C35.9982 13.8962 35.7756 13.7354 35.5034 13.5498C35.2189 13.3519 34.8787 13.1107 34.4829 12.8262ZM46.6177 12.7148C47.0877 12.8262 47.5083 12.9128 47.8794 12.9746C48.2629 13.0241 48.5845 13.0612 48.8442 13.0859C49.1535 13.123 49.4256 13.1354 49.6606 13.123C49.9575 13.1107 50.3286 13.0674 50.7739 12.9932C51.2192 12.9189 51.6893 12.8447 52.1841 12.7705C52.6789 12.6963 53.1675 12.6344 53.6499 12.585C54.1323 12.5355 54.5529 12.5293 54.9116 12.5664C55.2703 12.6035 55.6476 12.6901 56.0435 12.8262C56.4393 12.9499 56.8104 13.123 57.1567 13.3457C57.5031 13.556 57.8 13.8158 58.0474 14.125C58.3071 14.4342 58.4679 14.793 58.5298 15.2012C58.5916 15.597 58.5545 16.0238 58.4185 16.4814C58.2824 16.9268 58.0659 17.3659 57.769 17.7988C57.4722 18.2194 57.1011 18.609 56.6558 18.9678C56.2104 19.3265 55.7157 19.6172 55.1714 19.8398C54.7384 20.0007 54.2684 20.1243 53.7612 20.2109C53.3283 20.2852 52.8211 20.3346 52.2397 20.3594C51.6707 20.3717 51.0646 20.3099 50.4214 20.1738C50.3348 20.5326 50.2853 20.8665 50.2729 21.1758C50.2729 21.4727 50.2853 21.7386 50.3101 21.9736C50.3472 22.2458 50.3966 22.4932 50.4585 22.7158C50.5327 22.9385 50.6255 23.1982 50.7368 23.4951C50.8358 23.7425 50.9471 24.0456 51.0708 24.4043C51.2069 24.7507 51.3677 25.1403 51.5532 25.5732C51.3306 25.5732 51.1141 25.5794 50.9038 25.5918C50.6935 25.5918 50.5018 25.598 50.3286 25.6104C50.1307 25.6227 49.9451 25.6351 49.772 25.6475C49.5741 25.6598 49.3514 25.6846 49.104 25.7217C48.8937 25.7464 48.6278 25.7835 48.3062 25.833C47.9969 25.8825 47.6444 25.9443 47.2485 26.0186C47.5083 25.6475 47.7124 25.3073 47.8608 24.998C48.0216 24.6764 48.1392 24.3981 48.2134 24.1631C48.3 23.891 48.3556 23.6436 48.3804 23.4209C48.3927 23.2354 48.3927 22.9076 48.3804 22.4375C48.3804 21.9674 48.3742 21.4232 48.3618 20.8047C48.3494 20.1862 48.3309 19.5368 48.3062 18.8564C48.2814 18.1761 48.2505 17.5391 48.2134 16.9453C48.1763 16.3392 48.133 15.8197 48.0835 15.3867C48.0464 14.9538 48.0093 14.6693 47.9722 14.5332C47.9227 14.3724 47.8361 14.1992 47.7124 14.0137C47.6134 13.8529 47.4712 13.6673 47.2856 13.457C47.1125 13.2344 46.8898 12.987 46.6177 12.7148ZM50.4585 16.3701C50.4461 16.4938 50.4399 16.6237 50.4399 16.7598C50.4399 17.0195 50.4585 17.3535 50.4956 17.7617C50.5822 17.972 50.6873 18.1452 50.811 18.2812C50.9471 18.4173 51.0894 18.5225 51.2378 18.5967C51.3986 18.6709 51.5594 18.7204 51.7202 18.7451C51.881 18.7699 52.0418 18.7822 52.2026 18.7822C52.5737 18.7699 52.9634 18.6833 53.3716 18.5225C53.9159 18.2874 54.2993 17.9535 54.522 17.5205C54.7446 17.0876 54.8621 16.6423 54.8745 16.1846C54.8869 15.7269 54.8065 15.3063 54.6333 14.9229C54.4725 14.5394 54.2746 14.2796 54.0396 14.1436C53.8416 14.057 53.5881 14.0199 53.2788 14.0322C53.0067 14.0446 52.6665 14.1126 52.2583 14.2363C51.8501 14.36 51.3491 14.5827 50.7554 14.9043C50.6935 15.127 50.644 15.3249 50.6069 15.498C50.5698 15.6712 50.5389 15.8258 50.5142 15.9619C50.4894 16.1104 50.4709 16.2464 50.4585 16.3701ZM57.9917 12.4551C58.8205 12.554 59.5379 12.6283 60.144 12.6777C60.7502 12.7148 61.2511 12.7458 61.647 12.7705C62.1047 12.7952 62.4881 12.8014 62.7974 12.7891C63.119 12.7767 63.5581 12.7458 64.1147 12.6963C64.5848 12.6592 65.2033 12.6097 65.9702 12.5479C66.7371 12.4736 67.6958 12.3747 68.8462 12.251C68.8586 12.5355 68.8647 12.8138 68.8647 13.0859C68.8771 13.3457 68.8895 13.5745 68.9019 13.7725C68.9142 14.0075 68.9204 14.224 68.9204 14.4219C68.9204 14.6322 68.908 14.8981 68.8833 15.2197C68.8586 15.4919 68.8153 15.8382 68.7534 16.2588C68.7039 16.667 68.6235 17.1556 68.5122 17.7246C68.339 17.0566 68.172 16.5186 68.0112 16.1104C67.8504 15.6898 67.702 15.3558 67.5659 15.1084C67.4175 14.8239 67.269 14.6074 67.1206 14.459C66.9598 14.3477 66.7681 14.2549 66.5454 14.1807C66.3475 14.1188 66.0939 14.0693 65.7847 14.0322C65.4878 13.9951 65.1353 14.0013 64.7271 14.0508C64.6652 15.6836 64.6219 17.0072 64.5972 18.0215C64.5724 19.0358 64.5539 19.8275 64.5415 20.3965C64.5291 21.0768 64.5229 21.5654 64.5229 21.8623C64.5353 22.2829 64.6034 22.6973 64.7271 23.1055C64.826 23.4518 64.9868 23.8105 65.2095 24.1816C65.4321 24.5527 65.7537 24.8805 66.1743 25.165H63.9106C63.7004 25.165 63.4406 25.1774 63.1313 25.2021C62.8716 25.2269 62.5376 25.2516 62.1294 25.2764C61.7336 25.3011 61.2697 25.3444 60.7378 25.4062C60.9233 25.0846 61.0718 24.7939 61.1831 24.5342C61.2944 24.2744 61.381 24.0518 61.4429 23.8662C61.5171 23.6436 61.5728 23.4456 61.6099 23.2725C61.6222 23.0251 61.6532 22.5241 61.7026 21.7695C61.715 21.4603 61.7274 21.0768 61.7397 20.6191C61.7645 20.1615 61.7892 19.6172 61.814 18.9863C61.8511 18.3555 61.882 17.6318 61.9067 16.8154C61.9438 15.9867 61.981 15.0527 62.0181 14.0137C61.7954 13.9518 61.5851 13.958 61.3872 14.0322C61.1893 14.0941 61.0161 14.1745 60.8677 14.2734C60.6945 14.3971 60.5275 14.5456 60.3667 14.7188C60.2059 14.929 60.0265 15.2012 59.8286 15.5352C59.6554 15.8197 59.4575 16.1969 59.2349 16.667C59.0122 17.1247 58.7586 17.6937 58.4741 18.374C58.4123 17.6566 58.369 17.069 58.3442 16.6113C58.3195 16.1413 58.3009 15.7764 58.2886 15.5166C58.2762 15.2074 58.27 14.9785 58.27 14.8301C58.27 14.694 58.2576 14.5146 58.2329 14.292C58.2082 14.1064 58.1772 13.8652 58.1401 13.5684C58.103 13.2591 58.0535 12.888 57.9917 12.4551ZM75.3218 12.0098C75.9897 12.0345 76.6639 12.1582 77.3442 12.3809C78.0369 12.5911 78.674 12.9375 79.2554 13.4199C79.8368 13.89 80.3315 14.5023 80.7397 15.2568C81.1479 15.999 81.4015 16.9082 81.5005 17.9844C81.5871 18.8626 81.4757 19.7347 81.1665 20.6006C80.8696 21.4541 80.4552 22.2396 79.9233 22.957C79.3914 23.6745 78.7791 24.2868 78.0864 24.7939C77.3937 25.2887 76.701 25.6165 76.0083 25.7773C75.5877 25.8763 75.1239 25.8887 74.6167 25.8145C74.1219 25.7279 73.6147 25.5732 73.0952 25.3506C72.5881 25.1156 72.0871 24.8187 71.5923 24.46C71.1099 24.1012 70.6707 23.693 70.2749 23.2354C69.8791 22.7653 69.5451 22.2581 69.2729 21.7139C69.0132 21.1696 68.8524 20.6006 68.7905 20.0068C68.7287 19.512 68.7225 18.9678 68.772 18.374C68.8338 17.7679 68.9513 17.168 69.1245 16.5742C69.3101 15.9681 69.5636 15.3867 69.8853 14.8301C70.2192 14.2611 70.6398 13.7663 71.147 13.3457C71.6541 12.9128 72.2479 12.5788 72.9282 12.3438C73.6209 12.0964 74.4188 11.985 75.3218 12.0098ZM72.0005 19.5244C71.8273 20.848 71.951 21.9118 72.3716 22.7158C72.8045 23.5199 73.4539 24.0085 74.3198 24.1816C74.7404 24.2682 75.1424 24.1816 75.5259 23.9219C75.9217 23.6497 76.2804 23.2601 76.6021 22.7529C76.9237 22.2458 77.202 21.652 77.437 20.9717C77.672 20.2913 77.8452 19.5801 77.9565 18.8379C78.0679 18.0957 78.0741 17.4277 77.9751 16.834C77.8885 16.2279 77.7339 15.7145 77.5112 15.2939C77.2886 14.861 77.0164 14.527 76.6948 14.292C76.3856 14.057 76.064 13.9271 75.73 13.9023C75.1486 13.8652 74.6414 14.0199 74.2085 14.3662C73.7756 14.7002 73.4106 15.1393 73.1138 15.6836C72.8169 16.2279 72.5757 16.8402 72.3901 17.5205C72.217 18.2008 72.0871 18.8688 72.0005 19.5244Z" fill="#840B0B"/>
<path d="M19.7134 12.2881C20.1463 12.2881 20.536 12.3623 20.8823 12.5107C21.241 12.6468 21.5688 12.8014 21.8657 12.9746C22.175 13.1478 22.4657 13.3086 22.7378 13.457C23.0099 13.5931 23.2882 13.6611 23.5728 13.6611C23.7954 13.6488 24.049 13.6178 24.3335 13.5684C24.5809 13.5189 24.8654 13.4447 25.187 13.3457C25.521 13.2344 25.8921 13.0736 26.3003 12.8633C25.8921 13.2591 25.5581 13.5931 25.2983 13.8652C25.0509 14.125 24.8592 14.3415 24.7231 14.5146C24.5623 14.7126 24.4448 14.8672 24.3706 14.9785C24.2964 15.1146 24.1851 15.3187 24.0366 15.5908C23.9006 15.8382 23.715 16.1722 23.48 16.5928C23.245 17.001 22.9481 17.5391 22.5894 18.207C22.5894 17.3535 22.5028 16.6917 22.3296 16.2217C22.1688 15.7516 21.9894 15.3929 21.7915 15.1455C21.5565 14.861 21.2905 14.6816 20.9937 14.6074C20.7215 14.5703 20.4494 14.6198 20.1772 14.7559C19.9051 14.8796 19.633 15.0651 19.3608 15.3125C19.1011 15.5599 18.8475 15.8568 18.6001 16.2031C18.3651 16.5371 18.1486 16.8896 17.9507 17.2607C17.7651 17.6318 17.6105 18.0091 17.4868 18.3926C17.3631 18.7637 17.2827 19.11 17.2456 19.4316C17.2085 19.7161 17.2023 20.0501 17.2271 20.4336C17.2518 20.8047 17.3075 21.1882 17.394 21.584C17.4806 21.9674 17.592 22.3447 17.728 22.7158C17.8641 23.0869 18.0311 23.4209 18.229 23.7178C18.4393 24.0023 18.6743 24.2373 18.9341 24.4229C19.1938 24.596 19.4907 24.6764 19.8247 24.6641C20.1958 24.6393 20.5607 24.528 20.9194 24.3301C21.2287 24.1693 21.5441 23.9219 21.8657 23.5879C22.1873 23.2415 22.4657 22.7529 22.7007 22.1221L25.4468 22.623C24.6551 23.5879 23.882 24.3115 23.1274 24.7939C22.3853 25.2764 21.7173 25.6165 21.1235 25.8145C20.4308 26.0371 19.7752 26.1423 19.1567 26.1299C18.3774 26.0433 17.6476 25.8083 16.9673 25.4248C16.2869 25.0413 15.6994 24.5775 15.2046 24.0332C14.7222 23.4766 14.3449 22.8704 14.0728 22.2148C13.8006 21.5592 13.6831 20.916 13.7202 20.2852C13.745 19.8646 13.8315 19.376 13.98 18.8193C14.1284 18.2503 14.3263 17.6689 14.5737 17.0752C14.8335 16.4814 15.1427 15.9001 15.5015 15.3311C15.8602 14.762 16.256 14.2549 16.689 13.8096C17.1219 13.3519 17.592 12.987 18.0991 12.7148C18.6187 12.4303 19.1567 12.2881 19.7134 12.2881ZM24.686 12.4551C25.0819 12.5169 25.4406 12.5726 25.7622 12.6221C26.0838 12.6592 26.3621 12.6901 26.5972 12.7148C26.8693 12.752 27.1105 12.7829 27.3208 12.8076C27.5806 12.8447 27.9702 12.8014 28.4897 12.6777C29.0093 12.5417 29.5783 12.418 30.1968 12.3066C30.8276 12.1829 31.4709 12.1149 32.1265 12.1025C32.7821 12.0778 33.382 12.1953 33.9263 12.4551C34.4705 12.7148 34.9159 12.9746 35.2622 13.2344C35.6086 13.4941 35.8807 13.7725 36.0786 14.0693C36.2889 14.3538 36.4373 14.6569 36.5239 14.9785C36.6105 15.3001 36.66 15.6527 36.6724 16.0361C36.66 16.6051 36.5239 17.1556 36.2642 17.6875C36.1528 17.9102 36.0044 18.1452 35.8188 18.3926C35.6457 18.6276 35.4292 18.8564 35.1694 19.0791C34.9097 19.3018 34.6004 19.512 34.2417 19.71C33.8953 19.9079 33.4871 20.0811 33.0171 20.2295C33.4748 20.3656 33.8521 20.5264 34.1489 20.7119C34.4582 20.8975 34.7056 21.0706 34.8911 21.2314C35.1138 21.4294 35.2808 21.6211 35.3921 21.8066C35.5282 22.0664 35.6209 22.2891 35.6704 22.4746C35.7199 22.6602 35.7508 22.8395 35.7632 23.0127C35.7879 23.1735 35.8188 23.3405 35.856 23.5137C35.8931 23.6868 35.9735 23.8848 36.0972 24.1074C36.1961 24.2806 36.3136 24.46 36.4497 24.6455C36.5734 24.8063 36.7157 24.9795 36.8765 25.165C37.0496 25.3506 37.2599 25.5299 37.5073 25.7031C37.161 25.7155 36.8394 25.7217 36.5425 25.7217C36.258 25.7217 36.0106 25.7217 35.8003 25.7217C35.5529 25.7217 35.3179 25.7155 35.0952 25.7031C34.8726 25.6908 34.5942 25.6846 34.2603 25.6846C33.9757 25.6846 33.6108 25.6846 33.1655 25.6846C32.7326 25.6846 32.2069 25.6908 31.5884 25.7031C31.8605 25.4928 32.0832 25.2826 32.2563 25.0723C32.4295 24.862 32.5656 24.6702 32.6646 24.4971C32.7759 24.2992 32.8563 24.1074 32.9058 23.9219C32.9676 23.5879 32.9738 23.2415 32.9243 22.8828C32.8872 22.5736 32.7882 22.2334 32.6274 21.8623C32.4666 21.4788 32.2069 21.0954 31.8481 20.7119C31.4894 20.7738 31.1864 20.8232 30.939 20.8604C30.7039 20.8851 30.4998 20.9098 30.3267 20.9346C30.1287 20.9593 29.9679 20.9779 29.8442 20.9902C29.7329 21.0026 29.6092 21.015 29.4731 21.0273C29.3618 21.0397 29.2381 21.0583 29.1021 21.083C28.9784 21.0954 28.8608 21.1139 28.7495 21.1387C28.7248 21.6706 28.7248 22.1344 28.7495 22.5303C28.7743 22.9137 28.8052 23.2354 28.8423 23.4951C28.8918 23.8044 28.9474 24.0703 29.0093 24.293C29.0711 24.5156 29.1577 24.7321 29.269 24.9424C29.3556 25.1156 29.467 25.3011 29.603 25.499C29.7391 25.6846 29.8937 25.8392 30.0669 25.9629C29.7453 25.9629 29.436 25.9629 29.1392 25.9629C28.8547 25.9629 28.5949 25.9567 28.3599 25.9443C28.0877 25.9443 27.828 25.9382 27.5806 25.9258C27.3332 25.9134 27.0549 25.9072 26.7456 25.9072C26.4858 25.9072 26.1766 25.9072 25.8179 25.9072C25.4715 25.9072 25.0942 25.9134 24.686 25.9258C25.0076 25.5918 25.2612 25.3073 25.4468 25.0723C25.6323 24.8372 25.7746 24.6393 25.8735 24.4785C25.9849 24.3053 26.0529 24.1569 26.0776 24.0332C26.1024 23.8353 26.1209 23.4827 26.1333 22.9756C26.158 22.4561 26.1766 21.8623 26.189 21.1943C26.2013 20.5264 26.2075 19.8275 26.2075 19.0977C26.2075 18.3678 26.2013 17.6875 26.189 17.0566C26.1766 16.4134 26.1642 15.863 26.1519 15.4053C26.1395 14.9476 26.1271 14.6569 26.1147 14.5332C26.0776 14.3105 25.9972 14.0879 25.8735 13.8652C25.7746 13.6673 25.6323 13.4447 25.4468 13.1973C25.2612 12.9499 25.0076 12.7025 24.686 12.4551ZM31.6997 18.9863C31.8234 18.9121 31.9285 18.8379 32.0151 18.7637C32.1017 18.6895 32.1759 18.5719 32.2378 18.4111C32.2996 18.238 32.3491 17.9967 32.3862 17.6875C32.4357 17.3783 32.4914 16.9577 32.5532 16.4258C32.6027 15.8939 32.5656 15.4548 32.4419 15.1084C32.3306 14.762 32.1759 14.4899 31.978 14.292C31.7925 14.0817 31.5822 13.9395 31.3472 13.8652C31.1245 13.7786 30.9266 13.7354 30.7534 13.7354C30.4071 13.7354 30.0669 13.8405 29.7329 14.0508C29.3989 14.2611 29.1453 14.5456 28.9722 14.9043C28.9103 15.0651 28.8547 15.3311 28.8052 15.7021C28.7681 16.0238 28.7433 16.4691 28.731 17.0381C28.7186 17.6071 28.7371 18.3555 28.7866 19.2832C29.2567 19.3574 29.6711 19.3883 30.0298 19.376C30.3885 19.3512 30.6916 19.3079 30.939 19.2461C31.2358 19.1842 31.4894 19.0977 31.6997 18.9863ZM34.4829 12.8262C35.0148 12.8757 35.4849 12.9128 35.8931 12.9375C36.3013 12.9622 36.6414 12.987 36.9136 13.0117C37.2352 13.0365 37.5073 13.055 37.73 13.0674C37.9526 13.0798 38.2248 13.0859 38.5464 13.0859C38.8185 13.0983 39.1587 13.1045 39.5669 13.1045C39.9751 13.1045 40.4575 13.1045 41.0142 13.1045C40.6554 13.2777 40.3771 13.4385 40.1792 13.5869C39.9937 13.7354 39.8514 13.8652 39.7524 13.9766C39.6287 14.1126 39.5545 14.2363 39.5298 14.3477C39.5174 14.4466 39.5422 14.6136 39.604 14.8486C39.6659 15.0837 39.7524 15.3496 39.8638 15.6465C39.9751 15.931 40.1112 16.234 40.272 16.5557C40.4328 16.8773 40.5998 17.168 40.7729 17.4277C40.9585 17.6751 41.144 17.8792 41.3296 18.04C41.5151 18.2008 41.6945 18.2751 41.8677 18.2627C42.0409 18.2503 42.2511 18.1699 42.4985 18.0215C42.7459 17.8607 42.9995 17.6628 43.2593 17.4277C43.5314 17.1927 43.7974 16.9391 44.0571 16.667C44.3169 16.3949 44.5457 16.1289 44.7437 15.8691C44.9539 15.6094 45.1209 15.3743 45.2446 15.1641C45.3807 14.9414 45.4487 14.7806 45.4487 14.6816C45.4364 14.5579 45.3869 14.4157 45.3003 14.2549C45.2261 14.1188 45.1024 13.958 44.9292 13.7725C44.756 13.5745 44.5148 13.3519 44.2056 13.1045C45.2199 13.1416 45.9621 13.1602 46.4321 13.1602H47.1187H47.8979C48.1825 13.1602 48.5597 13.1602 49.0298 13.1602C49.4998 13.1478 50.0874 13.1292 50.7925 13.1045C50.3101 13.4261 49.8895 13.7168 49.5308 13.9766C49.1844 14.224 48.8875 14.4342 48.6401 14.6074C48.3556 14.8177 48.1206 15.0033 47.9351 15.1641C47.7248 15.3372 47.4341 15.6094 47.063 15.9805C46.7414 16.3021 46.3146 16.735 45.7827 17.2793C45.2508 17.8112 44.5828 18.5039 43.7788 19.3574C43.6675 20.2604 43.5933 20.9902 43.5562 21.5469C43.5314 22.1035 43.519 22.5426 43.519 22.8643C43.519 23.2354 43.5438 23.5137 43.5933 23.6992C43.6551 23.8477 43.7603 24.0208 43.9087 24.2188C44.0324 24.3919 44.2056 24.596 44.4282 24.8311C44.6632 25.0661 44.9725 25.3258 45.356 25.6104C44.9478 25.5114 44.5643 25.4372 44.2056 25.3877C43.8592 25.3382 43.55 25.3011 43.2778 25.2764C42.9562 25.2393 42.6655 25.2207 42.4058 25.2207C42.1336 25.2207 41.812 25.2331 41.4409 25.2578C41.1193 25.2826 40.7358 25.3135 40.2905 25.3506C39.8452 25.3877 39.3257 25.4434 38.7319 25.5176C39.0412 25.3073 39.2948 25.097 39.4927 24.8867C39.6906 24.6764 39.8452 24.4847 39.9565 24.3115C40.0926 24.1136 40.1916 23.9281 40.2534 23.7549C40.3029 23.557 40.34 23.2725 40.3647 22.9014C40.3895 22.5798 40.3895 22.153 40.3647 21.6211C40.3524 21.0892 40.3153 20.415 40.2534 19.5986C39.5112 18.4111 38.9051 17.4772 38.4351 16.7969C37.965 16.1042 37.6001 15.5785 37.3403 15.2197C37.0311 14.8115 36.8084 14.5394 36.6724 14.4033C36.5487 14.3044 36.3817 14.1807 36.1714 14.0322C35.9982 13.8962 35.7756 13.7354 35.5034 13.5498C35.2189 13.3519 34.8787 13.1107 34.4829 12.8262ZM46.6177 12.7148C47.0877 12.8262 47.5083 12.9128 47.8794 12.9746C48.2629 13.0241 48.5845 13.0612 48.8442 13.0859C49.1535 13.123 49.4256 13.1354 49.6606 13.123C49.9575 13.1107 50.3286 13.0674 50.7739 12.9932C51.2192 12.9189 51.6893 12.8447 52.1841 12.7705C52.6789 12.6963 53.1675 12.6344 53.6499 12.585C54.1323 12.5355 54.5529 12.5293 54.9116 12.5664C55.2703 12.6035 55.6476 12.6901 56.0435 12.8262C56.4393 12.9499 56.8104 13.123 57.1567 13.3457C57.5031 13.556 57.8 13.8158 58.0474 14.125C58.3071 14.4342 58.4679 14.793 58.5298 15.2012C58.5916 15.597 58.5545 16.0238 58.4185 16.4814C58.2824 16.9268 58.0659 17.3659 57.769 17.7988C57.4722 18.2194 57.1011 18.609 56.6558 18.9678C56.2104 19.3265 55.7157 19.6172 55.1714 19.8398C54.7384 20.0007 54.2684 20.1243 53.7612 20.2109C53.3283 20.2852 52.8211 20.3346 52.2397 20.3594C51.6707 20.3717 51.0646 20.3099 50.4214 20.1738C50.3348 20.5326 50.2853 20.8665 50.2729 21.1758C50.2729 21.4727 50.2853 21.7386 50.3101 21.9736C50.3472 22.2458 50.3966 22.4932 50.4585 22.7158C50.5327 22.9385 50.6255 23.1982 50.7368 23.4951C50.8358 23.7425 50.9471 24.0456 51.0708 24.4043C51.2069 24.7507 51.3677 25.1403 51.5532 25.5732C51.3306 25.5732 51.1141 25.5794 50.9038 25.5918C50.6935 25.5918 50.5018 25.598 50.3286 25.6104C50.1307 25.6227 49.9451 25.6351 49.772 25.6475C49.5741 25.6598 49.3514 25.6846 49.104 25.7217C48.8937 25.7464 48.6278 25.7835 48.3062 25.833C47.9969 25.8825 47.6444 25.9443 47.2485 26.0186C47.5083 25.6475 47.7124 25.3073 47.8608 24.998C48.0216 24.6764 48.1392 24.3981 48.2134 24.1631C48.3 23.891 48.3556 23.6436 48.3804 23.4209C48.3927 23.2354 48.3927 22.9076 48.3804 22.4375C48.3804 21.9674 48.3742 21.4232 48.3618 20.8047C48.3494 20.1862 48.3309 19.5368 48.3062 18.8564C48.2814 18.1761 48.2505 17.5391 48.2134 16.9453C48.1763 16.3392 48.133 15.8197 48.0835 15.3867C48.0464 14.9538 48.0093 14.6693 47.9722 14.5332C47.9227 14.3724 47.8361 14.1992 47.7124 14.0137C47.6134 13.8529 47.4712 13.6673 47.2856 13.457C47.1125 13.2344 46.8898 12.987 46.6177 12.7148ZM50.4585 16.3701C50.4461 16.4938 50.4399 16.6237 50.4399 16.7598C50.4399 17.0195 50.4585 17.3535 50.4956 17.7617C50.5822 17.972 50.6873 18.1452 50.811 18.2812C50.9471 18.4173 51.0894 18.5225 51.2378 18.5967C51.3986 18.6709 51.5594 18.7204 51.7202 18.7451C51.881 18.7699 52.0418 18.7822 52.2026 18.7822C52.5737 18.7699 52.9634 18.6833 53.3716 18.5225C53.9159 18.2874 54.2993 17.9535 54.522 17.5205C54.7446 17.0876 54.8621 16.6423 54.8745 16.1846C54.8869 15.7269 54.8065 15.3063 54.6333 14.9229C54.4725 14.5394 54.2746 14.2796 54.0396 14.1436C53.8416 14.057 53.5881 14.0199 53.2788 14.0322C53.0067 14.0446 52.6665 14.1126 52.2583 14.2363C51.8501 14.36 51.3491 14.5827 50.7554 14.9043C50.6935 15.127 50.644 15.3249 50.6069 15.498C50.5698 15.6712 50.5389 15.8258 50.5142 15.9619C50.4894 16.1104 50.4709 16.2464 50.4585 16.3701ZM57.9917 12.4551C58.8205 12.554 59.5379 12.6283 60.144 12.6777C60.7502 12.7148 61.2511 12.7458 61.647 12.7705C62.1047 12.7952 62.4881 12.8014 62.7974 12.7891C63.119 12.7767 63.5581 12.7458 64.1147 12.6963C64.5848 12.6592 65.2033 12.6097 65.9702 12.5479C66.7371 12.4736 67.6958 12.3747 68.8462 12.251C68.8586 12.5355 68.8647 12.8138 68.8647 13.0859C68.8771 13.3457 68.8895 13.5745 68.9019 13.7725C68.9142 14.0075 68.9204 14.224 68.9204 14.4219C68.9204 14.6322 68.908 14.8981 68.8833 15.2197C68.8586 15.4919 68.8153 15.8382 68.7534 16.2588C68.7039 16.667 68.6235 17.1556 68.5122 17.7246C68.339 17.0566 68.172 16.5186 68.0112 16.1104C67.8504 15.6898 67.702 15.3558 67.5659 15.1084C67.4175 14.8239 67.269 14.6074 67.1206 14.459C66.9598 14.3477 66.7681 14.2549 66.5454 14.1807C66.3475 14.1188 66.0939 14.0693 65.7847 14.0322C65.4878 13.9951 65.1353 14.0013 64.7271 14.0508C64.6652 15.6836 64.6219 17.0072 64.5972 18.0215C64.5724 19.0358 64.5539 19.8275 64.5415 20.3965C64.5291 21.0768 64.5229 21.5654 64.5229 21.8623C64.5353 22.2829 64.6034 22.6973 64.7271 23.1055C64.826 23.4518 64.9868 23.8105 65.2095 24.1816C65.4321 24.5527 65.7537 24.8805 66.1743 25.165H63.9106C63.7004 25.165 63.4406 25.1774 63.1313 25.2021C62.8716 25.2269 62.5376 25.2516 62.1294 25.2764C61.7336 25.3011 61.2697 25.3444 60.7378 25.4062C60.9233 25.0846 61.0718 24.7939 61.1831 24.5342C61.2944 24.2744 61.381 24.0518 61.4429 23.8662C61.5171 23.6436 61.5728 23.4456 61.6099 23.2725C61.6222 23.0251 61.6532 22.5241 61.7026 21.7695C61.715 21.4603 61.7274 21.0768 61.7397 20.6191C61.7645 20.1615 61.7892 19.6172 61.814 18.9863C61.8511 18.3555 61.882 17.6318 61.9067 16.8154C61.9438 15.9867 61.981 15.0527 62.0181 14.0137C61.7954 13.9518 61.5851 13.958 61.3872 14.0322C61.1893 14.0941 61.0161 14.1745 60.8677 14.2734C60.6945 14.3971 60.5275 14.5456 60.3667 14.7188C60.2059 14.929 60.0265 15.2012 59.8286 15.5352C59.6554 15.8197 59.4575 16.1969 59.2349 16.667C59.0122 17.1247 58.7586 17.6937 58.4741 18.374C58.4123 17.6566 58.369 17.069 58.3442 16.6113C58.3195 16.1413 58.3009 15.7764 58.2886 15.5166C58.2762 15.2074 58.27 14.9785 58.27 14.8301C58.27 14.694 58.2576 14.5146 58.2329 14.292C58.2082 14.1064 58.1772 13.8652 58.1401 13.5684C58.103 13.2591 58.0535 12.888 57.9917 12.4551ZM75.3218 12.0098C75.9897 12.0345 76.6639 12.1582 77.3442 12.3809C78.0369 12.5911 78.674 12.9375 79.2554 13.4199C79.8368 13.89 80.3315 14.5023 80.7397 15.2568C81.1479 15.999 81.4015 16.9082 81.5005 17.9844C81.5871 18.8626 81.4757 19.7347 81.1665 20.6006C80.8696 21.4541 80.4552 22.2396 79.9233 22.957C79.3914 23.6745 78.7791 24.2868 78.0864 24.7939C77.3937 25.2887 76.701 25.6165 76.0083 25.7773C75.5877 25.8763 75.1239 25.8887 74.6167 25.8145C74.1219 25.7279 73.6147 25.5732 73.0952 25.3506C72.5881 25.1156 72.0871 24.8187 71.5923 24.46C71.1099 24.1012 70.6707 23.693 70.2749 23.2354C69.8791 22.7653 69.5451 22.2581 69.2729 21.7139C69.0132 21.1696 68.8524 20.6006 68.7905 20.0068C68.7287 19.512 68.7225 18.9678 68.772 18.374C68.8338 17.7679 68.9513 17.168 69.1245 16.5742C69.3101 15.9681 69.5636 15.3867 69.8853 14.8301C70.2192 14.2611 70.6398 13.7663 71.147 13.3457C71.6541 12.9128 72.2479 12.5788 72.9282 12.3438C73.6209 12.0964 74.4188 11.985 75.3218 12.0098ZM72.0005 19.5244C71.8273 20.848 71.951 21.9118 72.3716 22.7158C72.8045 23.5199 73.4539 24.0085 74.3198 24.1816C74.7404 24.2682 75.1424 24.1816 75.5259 23.9219C75.9217 23.6497 76.2804 23.2601 76.6021 22.7529C76.9237 22.2458 77.202 21.652 77.437 20.9717C77.672 20.2913 77.8452 19.5801 77.9565 18.8379C78.0679 18.0957 78.0741 17.4277 77.9751 16.834C77.8885 16.2279 77.7339 15.7145 77.5112 15.2939C77.2886 14.861 77.0164 14.527 76.6948 14.292C76.3856 14.057 76.064 13.9271 75.73 13.9023C75.1486 13.8652 74.6414 14.0199 74.2085 14.3662C73.7756 14.7002 73.4106 15.1393 73.1138 15.6836C72.8169 16.2279 72.5757 16.8402 72.3901 17.5205C72.217 18.2008 72.0871 18.8688 72.0005 19.5244Z" fill="url(#paint1_linear_391_2078)"/>
</g>
<defs>
<filter id="filter0_d_391_2078" x="0" y="0" width="96" height="45" filterUnits="userSpaceOnUse" color-interpolation-filters="sRGB">
<feFlood flood-opacity="0" result="BackgroundImageFix"/>
<feColorMatrix in="SourceAlpha" type="matrix" values="0 0 0 0 0 0 0 0 0 0 0 0 0 0 0 0 0 0 127 0" result="hardAlpha"/>
<feOffset dy="4"/>
<feGaussianBlur stdDeviation="2"/>
<feComposite in2="hardAlpha" operator="out"/>
<feColorMatrix type="matrix" values="0 0 0 0 0 0 0 0 0 0 0 0 0 0 0 0 0 0 0.25 0"/>
<feBlend mode="normal" in2="BackgroundImageFix" result="effect1_dropShadow_391_2078"/>
<feBlend mode="normal" in="SourceGraphic" in2="effect1_dropShadow_391_2078" result="shape"/>
</filter>
<linearGradient id="paint0_linear_391_2078" x1="4" y1="19.0968" x2="92.0028" y2="17.4552" gradientUnits="userSpaceOnUse">
<stop stop-opacity="0"/>
<stop offset="0.495"/>
<stop offset="1" stop-opacity="0"/>
</linearGradient>
<linearGradient id="paint1_linear_391_2078" x1="0" y1="16" x2="96" y2="16" gradientUnits="userSpaceOnUse">
<stop offset="0.0659998" stop-opacity="0.18"/>
<stop offset="0.261" stop-opacity="0.7"/>
<stop offset="0.526" stop-opacity="0.09"/>
<stop offset="0.826" stop-opacity="0.7"/>
<stop offset="1" stop-opacity="0"/>
</linearGradient>
</defs>
</svg>
