<svg width="102" height="37" viewBox="0 0 102 37" fill="none" xmlns="http://www.w3.org/2000/svg">
<mask id="path-1-inside-1_391_2066" fill="white">
<path d="M2 10C2 4.47715 6.47715 0 12 0H89C94.5228 0 99 4.47715 99 10V27C99 32.5228 94.5228 37 89 37H12C6.47715 37 2 32.5228 2 27V10Z"/>
</mask>
<path d="M2 10C2 2.8203 7.8203 -3 15 -3H86C93.1797 -3 99 2.8203 99 10C99 6.13401 94.5228 3 89 3H12C6.47715 3 2 6.13401 2 10ZM99 27C99 34.1797 93.1797 40 86 40H15C7.8203 40 2 34.1797 2 27C2 30.866 6.47715 34 12 34H89C94.5228 34 99 30.866 99 27ZM2 37V0V37ZM99 0V37V0Z" fill="#840B0B" mask="url(#path-1-inside-1_391_2066)"/>
<path d="M2 10C2 2.8203 7.8203 -3 15 -3H86C93.1797 -3 99 2.8203 99 10C99 6.13401 94.5228 3 89 3H12C6.47715 3 2 6.13401 2 10ZM99 27C99 34.1797 93.1797 40 86 40H15C7.8203 40 2 34.1797 2 27C2 30.866 6.47715 34 12 34H89C94.5228 34 99 30.866 99 27ZM2 37V0V37ZM99 0V37V0Z" fill="url(#paint0_linear_391_2066)" mask="url(#path-1-inside-1_391_2066)"/>
<path d="M1.94141 13.1973C2.68359 13.2591 3.33301 13.2962 3.88965 13.3086C4.45866 13.321 4.94108 13.3271 5.33691 13.3271C5.7946 13.3271 6.19043 13.3148 6.52441 13.29C6.87077 13.2529 7.32227 13.2035 7.87891 13.1416C8.34896 13.0798 8.95508 12.9993 9.69727 12.9004C10.4395 12.7891 11.3424 12.6468 12.4062 12.4736C12.2702 12.6839 12.1527 12.9066 12.0537 13.1416C11.9671 13.3643 11.8929 13.5684 11.8311 13.7539C11.7692 13.9766 11.7135 14.193 11.6641 14.4033C11.627 14.6383 11.5837 14.929 11.5342 15.2754C11.4847 15.5723 11.4229 15.9495 11.3486 16.4072C11.2868 16.8525 11.2064 17.3844 11.1074 18.0029C10.7363 17.0381 10.359 16.2959 9.97559 15.7764C9.60449 15.2568 9.25814 14.8734 8.93652 14.626C8.56543 14.3415 8.21289 14.1807 7.87891 14.1436C7.39648 14.1436 7.00065 14.2363 6.69141 14.4219C6.38216 14.6074 6.12858 14.8486 5.93066 15.1455C5.74512 15.43 5.60286 15.7454 5.50391 16.0918C5.40495 16.4258 5.33691 16.7536 5.2998 17.0752C5.2627 17.3844 5.23796 17.6628 5.22559 17.9102C5.21322 18.1452 5.20085 18.306 5.18848 18.3926C5.62142 18.3678 5.98633 18.3369 6.2832 18.2998C6.58008 18.2627 6.8151 18.2256 6.98828 18.1885C7.19857 18.139 7.36556 18.0895 7.48926 18.04C7.6748 17.9411 7.86035 17.8236 8.0459 17.6875C8.20671 17.5638 8.3737 17.4154 8.54688 17.2422C8.73242 17.069 8.89323 16.8587 9.0293 16.6113C8.95508 17.0566 8.88704 17.4277 8.8252 17.7246C8.77572 18.0215 8.73242 18.2565 8.69531 18.4297C8.64583 18.64 8.61491 18.8008 8.60254 18.9121C8.5778 19.0234 8.54688 19.1781 8.50977 19.376C8.47266 19.5492 8.42936 19.7718 8.37988 20.0439C8.3304 20.3161 8.27474 20.6562 8.21289 21.0645C8.06445 20.8047 7.90983 20.5944 7.74902 20.4336C7.58822 20.2604 7.43978 20.1243 7.30371 20.0254C7.1429 19.9141 6.98828 19.8275 6.83984 19.7656C6.67904 19.7161 6.50586 19.6667 6.32031 19.6172C6.15951 19.5801 5.96777 19.543 5.74512 19.5059C5.53483 19.4564 5.30599 19.4131 5.05859 19.376C5.08333 20.0439 5.12044 20.6191 5.16992 21.1016C5.2194 21.5716 5.2627 21.9674 5.2998 22.2891C5.34928 22.6602 5.39876 22.9694 5.44824 23.2168C5.51009 23.4642 5.60905 23.7301 5.74512 24.0146C5.85645 24.262 6.01107 24.5465 6.20898 24.8682C6.41927 25.1774 6.68522 25.5114 7.00684 25.8701C6.75944 25.8083 6.49967 25.765 6.22754 25.7402C5.9554 25.7155 5.71419 25.6969 5.50391 25.6846C5.24414 25.6722 4.99674 25.6722 4.76172 25.6846C4.51432 25.6969 4.24219 25.7217 3.94531 25.7588C3.69792 25.7835 3.41341 25.8206 3.0918 25.8701C2.77018 25.9196 2.43001 25.9753 2.07129 26.0371C2.28158 25.8268 2.45475 25.6165 2.59082 25.4062C2.72689 25.196 2.82585 25.0104 2.8877 24.8496C2.96191 24.6641 3.01139 24.4847 3.03613 24.3115C3.0485 24.1631 3.05469 23.8415 3.05469 23.3467C3.05469 22.8395 3.0485 22.252 3.03613 21.584C3.02376 20.9036 3.00521 20.1862 2.98047 19.4316C2.95573 18.6771 2.93099 17.972 2.90625 17.3164C2.88151 16.6484 2.85059 16.0794 2.81348 15.6094C2.78874 15.1393 2.75781 14.8548 2.7207 14.7559C2.67122 14.6322 2.61556 14.4899 2.55371 14.3291C2.45475 14.0693 2.25065 13.6921 1.94141 13.1973ZM18.3252 12.0098C18.9932 12.0345 19.6673 12.1582 20.3477 12.3809C21.0404 12.5911 21.6774 12.9375 22.2588 13.4199C22.8402 13.89 23.335 14.5023 23.7432 15.2568C24.1514 15.999 24.4049 16.9082 24.5039 17.9844C24.5905 18.8626 24.4792 19.7347 24.1699 20.6006C23.873 21.4541 23.4587 22.2396 22.9268 22.957C22.3949 23.6745 21.7826 24.2868 21.0898 24.7939C20.3971 25.2887 19.7044 25.6165 19.0117 25.7773C18.5911 25.8763 18.1273 25.8887 17.6201 25.8145C17.1253 25.7279 16.6182 25.5732 16.0986 25.3506C15.5915 25.1156 15.0905 24.8187 14.5957 24.46C14.1133 24.1012 13.6742 23.693 13.2783 23.2354C12.8825 22.7653 12.5485 22.2581 12.2764 21.7139C12.0166 21.1696 11.8558 20.6006 11.7939 20.0068C11.7321 19.512 11.7259 18.9678 11.7754 18.374C11.8372 17.7679 11.9548 17.168 12.1279 16.5742C12.3135 15.9681 12.5671 15.3867 12.8887 14.8301C13.2227 14.2611 13.6432 13.7663 14.1504 13.3457C14.6576 12.9128 15.2513 12.5788 15.9316 12.3438C16.6243 12.0964 17.4222 11.985 18.3252 12.0098ZM15.0039 19.5244C14.8307 20.848 14.9544 21.9118 15.375 22.7158C15.8079 23.5199 16.4574 24.0085 17.3232 24.1816C17.7438 24.2682 18.1458 24.1816 18.5293 23.9219C18.9251 23.6497 19.2839 23.2601 19.6055 22.7529C19.9271 22.2458 20.2054 21.652 20.4404 20.9717C20.6755 20.2913 20.8486 19.5801 20.96 18.8379C21.0713 18.0957 21.0775 17.4277 20.9785 16.834C20.8919 16.2279 20.7373 15.7145 20.5146 15.2939C20.292 14.861 20.0199 14.527 19.6982 14.292C19.389 14.057 19.0674 13.9271 18.7334 13.9023C18.152 13.8652 17.6449 14.0199 17.2119 14.3662C16.779 14.7002 16.4141 15.1393 16.1172 15.6836C15.8203 16.2279 15.5791 16.8402 15.3936 17.5205C15.2204 18.2008 15.0905 18.8688 15.0039 19.5244ZM24.2441 12.4551C24.64 12.5169 24.9987 12.5726 25.3203 12.6221C25.6419 12.6592 25.9202 12.6901 26.1553 12.7148C26.4274 12.752 26.6686 12.7829 26.8789 12.8076C27.1387 12.8447 27.5283 12.8014 28.0479 12.6777C28.5674 12.5417 29.1364 12.418 29.7549 12.3066C30.3857 12.1829 31.029 12.1149 31.6846 12.1025C32.3402 12.0778 32.9401 12.1953 33.4844 12.4551C34.0286 12.7148 34.474 12.9746 34.8203 13.2344C35.1667 13.4941 35.4388 13.7725 35.6367 14.0693C35.847 14.3538 35.9954 14.6569 36.082 14.9785C36.1686 15.3001 36.2181 15.6527 36.2305 16.0361C36.2181 16.6051 36.082 17.1556 35.8223 17.6875C35.7109 17.9102 35.5625 18.1452 35.377 18.3926C35.2038 18.6276 34.9873 18.8564 34.7275 19.0791C34.4678 19.3018 34.1585 19.512 33.7998 19.71C33.4535 19.9079 33.0452 20.0811 32.5752 20.2295C33.0329 20.3656 33.4102 20.5264 33.707 20.7119C34.0163 20.8975 34.2637 21.0706 34.4492 21.2314C34.6719 21.4294 34.8389 21.6211 34.9502 21.8066C35.0863 22.0664 35.179 22.2891 35.2285 22.4746C35.278 22.6602 35.3089 22.8395 35.3213 23.0127C35.346 23.1735 35.377 23.3405 35.4141 23.5137C35.4512 23.6868 35.5316 23.8848 35.6553 24.1074C35.7542 24.2806 35.8717 24.46 36.0078 24.6455C36.1315 24.8063 36.2738 24.9795 36.4346 25.165C36.6077 25.3506 36.818 25.5299 37.0654 25.7031C36.7191 25.7155 36.3975 25.7217 36.1006 25.7217C35.8161 25.7217 35.5687 25.7217 35.3584 25.7217C35.111 25.7217 34.876 25.7155 34.6533 25.7031C34.4307 25.6908 34.1523 25.6846 33.8184 25.6846C33.5339 25.6846 33.1689 25.6846 32.7236 25.6846C32.2907 25.6846 31.765 25.6908 31.1465 25.7031C31.4186 25.4928 31.6413 25.2826 31.8145 25.0723C31.9876 24.862 32.1237 24.6702 32.2227 24.4971C32.334 24.2992 32.4144 24.1074 32.4639 23.9219C32.5257 23.5879 32.5319 23.2415 32.4824 22.8828C32.4453 22.5736 32.3464 22.2334 32.1855 21.8623C32.0247 21.4788 31.765 21.0954 31.4062 20.7119C31.0475 20.7738 30.7445 20.8232 30.4971 20.8604C30.262 20.8851 30.0579 20.9098 29.8848 20.9346C29.6868 20.9593 29.526 20.9779 29.4023 20.9902C29.291 21.0026 29.1673 21.015 29.0312 21.0273C28.9199 21.0397 28.7962 21.0583 28.6602 21.083C28.5365 21.0954 28.4189 21.1139 28.3076 21.1387C28.2829 21.6706 28.2829 22.1344 28.3076 22.5303C28.3324 22.9137 28.3633 23.2354 28.4004 23.4951C28.4499 23.8044 28.5055 24.0703 28.5674 24.293C28.6292 24.5156 28.7158 24.7321 28.8271 24.9424C28.9137 25.1156 29.0251 25.3011 29.1611 25.499C29.2972 25.6846 29.4518 25.8392 29.625 25.9629C29.3034 25.9629 28.9941 25.9629 28.6973 25.9629C28.4128 25.9629 28.153 25.9567 27.918 25.9443C27.6458 25.9443 27.3861 25.9382 27.1387 25.9258C26.8913 25.9134 26.613 25.9072 26.3037 25.9072C26.0439 25.9072 25.7347 25.9072 25.376 25.9072C25.0296 25.9072 24.6523 25.9134 24.2441 25.9258C24.5658 25.5918 24.8193 25.3073 25.0049 25.0723C25.1904 24.8372 25.3327 24.6393 25.4316 24.4785C25.543 24.3053 25.611 24.1569 25.6357 24.0332C25.6605 23.8353 25.679 23.4827 25.6914 22.9756C25.7161 22.4561 25.7347 21.8623 25.7471 21.1943C25.7594 20.5264 25.7656 19.8275 25.7656 19.0977C25.7656 18.3678 25.7594 17.6875 25.7471 17.0566C25.7347 16.4134 25.7223 15.863 25.71 15.4053C25.6976 14.9476 25.6852 14.6569 25.6729 14.5332C25.6357 14.3105 25.5553 14.0879 25.4316 13.8652C25.3327 13.6673 25.1904 13.4447 25.0049 13.1973C24.8193 12.9499 24.5658 12.7025 24.2441 12.4551ZM31.2578 18.9863C31.3815 18.9121 31.4867 18.8379 31.5732 18.7637C31.6598 18.6895 31.734 18.5719 31.7959 18.4111C31.8577 18.238 31.9072 17.9967 31.9443 17.6875C31.9938 17.3783 32.0495 16.9577 32.1113 16.4258C32.1608 15.8939 32.1237 15.4548 32 15.1084C31.8887 14.762 31.734 14.4899 31.5361 14.292C31.3506 14.0817 31.1403 13.9395 30.9053 13.8652C30.6826 13.7786 30.4847 13.7354 30.3115 13.7354C29.9652 13.7354 29.625 13.8405 29.291 14.0508C28.957 14.2611 28.7035 14.5456 28.5303 14.9043C28.4684 15.0651 28.4128 15.3311 28.3633 15.7021C28.3262 16.0238 28.3014 16.4691 28.2891 17.0381C28.2767 17.6071 28.2952 18.3555 28.3447 19.2832C28.8148 19.3574 29.2292 19.3883 29.5879 19.376C29.9466 19.3512 30.2497 19.3079 30.4971 19.2461C30.7939 19.1842 31.0475 19.0977 31.2578 18.9863ZM35.9336 13.3271C36.7995 13.3519 37.5169 13.3704 38.0859 13.3828C38.6673 13.3828 39.1374 13.3828 39.4961 13.3828H40.4795H46.0088C46.0335 13.6302 46.0521 13.8714 46.0645 14.1064C46.0892 14.3291 46.1016 14.527 46.1016 14.7002C46.1016 14.9105 46.0954 15.1022 46.083 15.2754C46.0706 15.4486 46.0521 15.6341 46.0273 15.832C46.0026 16.0052 45.9779 16.1908 45.9531 16.3887C45.9284 16.5866 45.8851 16.7907 45.8232 17.001C45.6501 16.333 45.415 15.8258 45.1182 15.4795C44.8337 15.1331 44.543 14.8796 44.2461 14.7188C43.8997 14.5332 43.5348 14.4342 43.1514 14.4219C42.6442 14.4466 42.2484 14.4899 41.9639 14.5518C41.6794 14.6136 41.4567 14.7002 41.2959 14.8115C41.1351 14.9229 41.0114 15.0527 40.9248 15.2012C40.8506 15.3372 40.7702 15.4919 40.6836 15.665C40.6094 15.8135 40.5413 16.0423 40.4795 16.3516C40.4176 16.6113 40.3558 16.9639 40.2939 17.4092C40.2445 17.8545 40.1888 18.4297 40.127 19.1348C40.4609 19.0358 40.7269 18.943 40.9248 18.8564C41.1351 18.7699 41.3021 18.6956 41.4258 18.6338C41.5618 18.5596 41.6608 18.4915 41.7227 18.4297C41.7721 18.3555 41.8464 18.2194 41.9453 18.0215C42.0195 17.8483 42.1185 17.6133 42.2422 17.3164C42.3783 17.0195 42.5391 16.6113 42.7246 16.0918C42.7493 16.6608 42.7617 17.137 42.7617 17.5205C42.7617 17.8916 42.7679 18.1947 42.7803 18.4297C42.7803 18.7018 42.7865 18.9183 42.7988 19.0791V19.7842C42.7988 20.0439 42.7988 20.3965 42.7988 20.8418C42.8112 21.2747 42.8298 21.8252 42.8545 22.4932C42.7061 22.0355 42.57 21.6768 42.4463 21.417C42.335 21.1449 42.236 20.9408 42.1494 20.8047C42.0505 20.6439 41.9639 20.5326 41.8896 20.4707C41.8031 20.446 41.6855 20.4212 41.5371 20.3965C41.401 20.3841 41.2279 20.3779 41.0176 20.3779C40.8197 20.3779 40.5661 20.4089 40.2568 20.4707C40.2197 21.151 40.2135 21.7015 40.2383 22.1221C40.2754 22.5303 40.3249 22.8457 40.3867 23.0684C40.4486 23.3281 40.5228 23.5137 40.6094 23.625C40.7207 23.7363 40.9434 23.8291 41.2773 23.9033C41.6113 23.9652 41.9886 23.9899 42.4092 23.9775C42.8421 23.9528 43.2812 23.8786 43.7266 23.7549C44.1719 23.6312 44.5677 23.4271 44.9141 23.1426C45.1738 22.9076 45.4521 22.6107 45.749 22.252C45.9964 21.9427 46.2686 21.5531 46.5654 21.083C46.8747 20.613 47.1777 20.0439 47.4746 19.376C47.4251 19.9326 47.388 20.3965 47.3633 20.7676C47.3509 21.1263 47.3324 21.417 47.3076 21.6396C47.2829 21.8994 47.2643 22.0973 47.252 22.2334C47.252 22.3818 47.2334 22.5921 47.1963 22.8643C47.1715 23.0993 47.1283 23.4209 47.0664 23.8291C47.0169 24.2249 46.9489 24.7321 46.8623 25.3506C46.2809 25.363 45.7305 25.3753 45.2109 25.3877C44.6914 25.3877 44.2337 25.3939 43.8379 25.4062C43.3678 25.4186 42.9349 25.431 42.5391 25.4434C42.1309 25.4434 41.6794 25.4619 41.1846 25.499C40.7516 25.5238 40.2383 25.5609 39.6445 25.6104C39.0632 25.6598 38.4199 25.7279 37.7148 25.8145C37.7767 24.9733 37.82 24.1816 37.8447 23.4395C37.8818 22.6849 37.9066 22.0231 37.9189 21.4541C37.9313 20.7861 37.9313 20.1676 37.9189 19.5986C37.9808 18.1761 37.9561 17.0257 37.8447 16.1475C37.7334 15.2692 37.6035 14.7064 37.4551 14.459C37.3809 14.3724 37.2757 14.2673 37.1396 14.1436C37.0283 14.0446 36.8737 13.9271 36.6758 13.791C36.4779 13.6549 36.2305 13.5003 35.9336 13.3271ZM47.1963 12.8447C47.7529 12.9437 48.2106 13.0117 48.5693 13.0488C48.9281 13.0859 49.2188 13.1169 49.4414 13.1416C49.7012 13.1663 49.9053 13.1725 50.0537 13.1602H50.6104C50.8083 13.1602 51.0557 13.1602 51.3525 13.1602C51.6618 13.1478 52.0452 13.1416 52.5029 13.1416C52.7627 13.7477 52.9977 14.3044 53.208 14.8115C53.4307 15.3187 53.6162 15.7516 53.7646 16.1104C53.9378 16.5433 54.0986 16.9329 54.2471 17.2793C54.4202 17.7122 54.6058 18.1885 54.8037 18.708C55.0016 19.2275 55.181 19.7161 55.3418 20.1738C55.515 20.6315 55.6572 21.0088 55.7686 21.3057C55.8799 21.6025 55.9355 21.7386 55.9355 21.7139C55.9355 21.7015 55.9417 21.5778 55.9541 21.3428C55.9665 21.0954 55.9788 20.7923 55.9912 20.4336C56.0036 20.0625 56.016 19.6605 56.0283 19.2275C56.0531 18.7822 56.0654 18.3555 56.0654 17.9473C56.0778 17.5267 56.084 17.1432 56.084 16.7969C56.084 16.4505 56.0716 16.1908 56.0469 16.0176C56.0098 15.8073 55.9355 15.5661 55.8242 15.2939C55.7253 15.0589 55.5892 14.7806 55.416 14.459C55.2428 14.125 55.0016 13.7477 54.6924 13.3271C55.1995 13.3395 55.6139 13.3457 55.9355 13.3457C56.2572 13.3457 56.5169 13.3457 56.7148 13.3457C56.9375 13.3457 57.1107 13.3395 57.2344 13.3271C57.3952 13.3271 57.5931 13.3148 57.8281 13.29C58.0384 13.2653 58.2982 13.2467 58.6074 13.2344C58.929 13.2096 59.3249 13.1787 59.7949 13.1416C59.5228 13.389 59.3063 13.624 59.1455 13.8467C58.9847 14.0693 58.8548 14.2673 58.7559 14.4404C58.6445 14.6383 58.5703 14.8239 58.5332 14.9971C58.4837 15.2197 58.4404 15.5846 58.4033 16.0918C58.3786 16.5866 58.3477 17.1432 58.3105 17.7617C58.2858 18.3802 58.2611 19.0234 58.2363 19.6914C58.2116 20.3594 58.1868 20.9717 58.1621 21.5283C58.1621 21.9489 58.1497 22.4004 58.125 22.8828C58.1003 23.291 58.0755 23.7549 58.0508 24.2744C58.026 24.7816 57.9951 25.2949 57.958 25.8145L56.3066 25.8516C55.8242 24.998 55.416 24.2682 55.082 23.6621C54.7604 23.0436 54.4945 22.5365 54.2842 22.1406C54.0492 21.6829 53.8512 21.2995 53.6904 20.9902C53.5544 20.6934 53.375 20.3532 53.1523 19.9697C52.9668 19.6481 52.7318 19.2523 52.4473 18.7822C52.1751 18.3122 51.8473 17.7741 51.4639 17.168C51.4268 18.0215 51.4082 18.7513 51.4082 19.3574C51.4206 19.9512 51.4391 20.446 51.4639 20.8418C51.501 21.2995 51.5443 21.6829 51.5938 21.9922C51.6556 22.2891 51.7422 22.623 51.8535 22.9941C51.9525 23.3158 52.07 23.693 52.2061 24.126C52.3545 24.5589 52.5339 25.0475 52.7441 25.5918C52.0143 25.5547 51.4701 25.5361 51.1113 25.5361H50.5547C50.3815 25.5361 50.1465 25.5547 49.8496 25.5918C49.6022 25.6165 49.262 25.6536 48.8291 25.7031C48.4085 25.7526 47.8828 25.8206 47.252 25.9072C47.5488 25.5485 47.7839 25.2207 47.957 24.9238C48.1426 24.6146 48.2848 24.3548 48.3838 24.1445C48.5075 23.8971 48.5941 23.6807 48.6436 23.4951C48.6807 23.2972 48.7054 22.957 48.7178 22.4746C48.7301 21.9798 48.7301 21.4232 48.7178 20.8047C48.7178 20.1738 48.7054 19.512 48.6807 18.8193C48.6683 18.1266 48.6497 17.4834 48.625 16.8896C48.6003 16.2959 48.5693 15.7887 48.5322 15.3682C48.5075 14.9476 48.4889 14.6878 48.4766 14.5889C48.4395 14.4281 48.3652 14.2549 48.2539 14.0693C48.1549 13.9085 48.0251 13.7292 47.8643 13.5312C47.7035 13.321 47.4808 13.0921 47.1963 12.8447ZM71.54 12.418C71.3669 12.8138 71.2122 13.1602 71.0762 13.457C70.9401 13.7539 70.8226 14.0075 70.7236 14.2178C70.6123 14.4528 70.5195 14.6631 70.4453 14.8486C70.3835 14.9847 70.3031 15.1702 70.2041 15.4053C70.1051 15.6156 69.9814 15.8939 69.833 16.2402C69.6969 16.5742 69.5176 17.0072 69.2949 17.5391C69.1836 17.0814 69.0475 16.6794 68.8867 16.333C68.7259 15.9867 68.5527 15.6836 68.3672 15.4238C68.1816 15.1641 67.9837 14.9538 67.7734 14.793C67.5755 14.6198 67.3776 14.4775 67.1797 14.3662C66.722 14.1188 66.2396 13.9827 65.7324 13.958C65.0645 13.9951 64.5387 14.1064 64.1553 14.292C63.7842 14.4652 63.512 14.6693 63.3389 14.9043C63.1657 15.127 63.0729 15.362 63.0605 15.6094C63.0482 15.8444 63.0791 16.0423 63.1533 16.2031C63.2152 16.3516 63.4316 16.5247 63.8027 16.7227C64.1862 16.9206 64.6439 17.1494 65.1758 17.4092C65.7201 17.6566 66.3014 17.9411 66.9199 18.2627C67.5384 18.5719 68.1074 18.9183 68.627 19.3018C69.1589 19.6729 69.6042 20.0811 69.9629 20.5264C70.334 20.9593 70.5381 21.4232 70.5752 21.918C70.6123 22.5488 70.6061 23.1178 70.5566 23.625C70.5072 24.1322 70.334 24.5651 70.0371 24.9238C69.7402 25.2826 69.2764 25.5671 68.6455 25.7773C68.027 25.9876 67.1673 26.1175 66.0664 26.167C64.9284 26.2165 63.9945 26.1546 63.2646 25.9814C62.5348 25.8083 61.9411 25.5732 61.4834 25.2764C61.0381 24.9795 60.7041 24.6517 60.4814 24.293C60.2712 23.9342 60.1165 23.5941 60.0176 23.2725C59.9186 22.9385 59.8506 22.654 59.8135 22.4189C59.7764 22.1715 59.7145 22.0231 59.6279 21.9736C59.529 21.9118 59.43 21.8561 59.3311 21.8066C59.2445 21.7572 59.1517 21.7139 59.0527 21.6768C58.9538 21.6273 58.8548 21.584 58.7559 21.5469L64.1553 20.6748C63.846 20.9222 63.6048 21.151 63.4316 21.3613C63.2708 21.5716 63.1471 21.7572 63.0605 21.918C62.9616 22.1035 62.8936 22.2767 62.8564 22.4375C62.8317 22.6107 62.8874 22.8271 63.0234 23.0869C63.1595 23.3467 63.3451 23.6003 63.5801 23.8477C63.8275 24.0827 64.112 24.2806 64.4336 24.4414C64.7552 24.6022 65.0892 24.6702 65.4355 24.6455C65.8685 24.6084 66.221 24.5033 66.4932 24.3301C66.7653 24.1445 66.9694 23.9157 67.1055 23.6436C67.2539 23.3714 67.3405 23.0745 67.3652 22.7529C67.39 22.4313 67.359 22.1159 67.2725 21.8066C67.1982 21.485 67.0745 21.1882 66.9014 20.916C66.7282 20.6315 66.5241 20.3965 66.2891 20.2109C66.0788 20.0625 65.751 19.9202 65.3057 19.7842C64.8727 19.6481 64.3841 19.4997 63.8398 19.3389C63.3079 19.1781 62.7575 18.9925 62.1885 18.7822C61.6318 18.5719 61.1247 18.3122 60.667 18.0029C60.2217 17.6937 59.863 17.3288 59.5908 16.9082C59.3311 16.4876 59.2321 15.9805 59.2939 15.3867C59.3434 14.8796 59.5042 14.459 59.7764 14.125C60.0609 13.7786 60.4134 13.5065 60.834 13.3086C61.2669 13.0983 61.7432 12.9437 62.2627 12.8447C62.7946 12.7458 63.3327 12.6901 63.877 12.6777C64.4336 12.653 64.9779 12.6592 65.5098 12.6963C66.054 12.7334 66.5426 12.7767 66.9756 12.8262C67.4085 12.8757 67.7734 12.9251 68.0703 12.9746C68.3796 13.0117 68.5713 13.0365 68.6455 13.0488C68.9671 13.0736 69.2887 13.0674 69.6104 13.0303C69.8949 13.0055 70.2041 12.9499 70.5381 12.8633C70.8844 12.7643 71.2184 12.6159 71.54 12.418ZM71.4473 13.2158C71.8678 13.2653 72.2204 13.3024 72.5049 13.3271C72.8018 13.3395 73.043 13.3581 73.2285 13.3828C73.4512 13.4076 73.6243 13.4199 73.748 13.4199C73.8841 13.4323 74.0882 13.4261 74.3604 13.4014C74.5954 13.3766 74.9108 13.3457 75.3066 13.3086C75.7148 13.2715 76.2344 13.2158 76.8652 13.1416C76.5807 13.389 76.3519 13.6302 76.1787 13.8652C76.0179 14.0879 75.8942 14.2858 75.8076 14.459C75.6963 14.6693 75.6283 14.8672 75.6035 15.0527C75.554 15.3496 75.5107 15.7578 75.4736 16.2773C75.4489 16.7845 75.4242 17.3411 75.3994 17.9473C75.3747 18.5534 75.3623 19.1781 75.3623 19.8213C75.3623 20.4645 75.3685 21.0768 75.3809 21.6582C75.4056 22.2272 75.4427 22.7344 75.4922 23.1797C75.554 23.625 75.6283 23.9466 75.7148 24.1445C75.8385 24.3672 75.9684 24.5898 76.1045 24.8125C76.2282 24.998 76.3766 25.1898 76.5498 25.3877C76.723 25.5856 76.9209 25.7464 77.1436 25.8701C76.4137 25.833 75.8324 25.8145 75.3994 25.8145H74.7314C74.5335 25.8145 74.2799 25.8268 73.9707 25.8516C73.7109 25.8763 73.3831 25.901 72.9873 25.9258C72.5915 25.9505 72.1152 25.9876 71.5586 26.0371C71.8431 25.7279 72.0658 25.431 72.2266 25.1465C72.3874 24.862 72.5173 24.6146 72.6162 24.4043C72.7275 24.1569 72.8018 23.9219 72.8389 23.6992C72.8883 23.3776 72.9255 22.9818 72.9502 22.5117C72.9873 22.0293 73.012 21.516 73.0244 20.9717C73.0368 20.415 73.0368 19.8522 73.0244 19.2832C73.0244 18.7018 73.012 18.1452 72.9873 17.6133C72.9626 17.0814 72.9255 16.599 72.876 16.166C72.8389 15.7331 72.7894 15.3867 72.7275 15.127C72.6904 14.9661 72.6162 14.7868 72.5049 14.5889C72.4059 14.4157 72.2699 14.2178 72.0967 13.9951C71.9359 13.7601 71.7194 13.5003 71.4473 13.2158ZM82.8584 12.2881C83.2913 12.2881 83.681 12.3623 84.0273 12.5107C84.3861 12.6468 84.7139 12.8014 85.0107 12.9746C85.32 13.1478 85.6107 13.3086 85.8828 13.457C86.1549 13.5931 86.4333 13.6611 86.7178 13.6611C86.9404 13.6488 87.194 13.6178 87.4785 13.5684C87.7259 13.5189 88.0104 13.4447 88.332 13.3457C88.666 13.2344 89.0371 13.0736 89.4453 12.8633C89.0371 13.2591 88.7031 13.5931 88.4434 13.8652C88.196 14.125 88.0042 14.3415 87.8682 14.5146C87.7074 14.7126 87.5898 14.8672 87.5156 14.9785C87.4414 15.1146 87.3301 15.3187 87.1816 15.5908C87.0456 15.8382 86.86 16.1722 86.625 16.5928C86.39 17.001 86.0931 17.5391 85.7344 18.207C85.7344 17.3535 85.6478 16.6917 85.4746 16.2217C85.3138 15.7516 85.1344 15.3929 84.9365 15.1455C84.7015 14.861 84.4355 14.6816 84.1387 14.6074C83.8665 14.5703 83.5944 14.6198 83.3223 14.7559C83.0501 14.8796 82.778 15.0651 82.5059 15.3125C82.2461 15.5599 81.9925 15.8568 81.7451 16.2031C81.5101 16.5371 81.2936 16.8896 81.0957 17.2607C80.9102 17.6318 80.7555 18.0091 80.6318 18.3926C80.5081 18.7637 80.4277 19.11 80.3906 19.4316C80.3535 19.7161 80.3473 20.0501 80.3721 20.4336C80.3968 20.8047 80.4525 21.1882 80.5391 21.584C80.6257 21.9674 80.737 22.3447 80.873 22.7158C81.0091 23.0869 81.1761 23.4209 81.374 23.7178C81.5843 24.0023 81.8193 24.2373 82.0791 24.4229C82.3389 24.596 82.6357 24.6764 82.9697 24.6641C83.3408 24.6393 83.7057 24.528 84.0645 24.3301C84.3737 24.1693 84.6891 23.9219 85.0107 23.5879C85.3324 23.2415 85.6107 22.7529 85.8457 22.1221L88.5918 22.623C87.8001 23.5879 87.027 24.3115 86.2725 24.7939C85.5303 25.2764 84.8623 25.6165 84.2686 25.8145C83.5758 26.0371 82.9202 26.1423 82.3018 26.1299C81.5225 26.0433 80.7926 25.8083 80.1123 25.4248C79.432 25.0413 78.8444 24.5775 78.3496 24.0332C77.8672 23.4766 77.4899 22.8704 77.2178 22.2148C76.9456 21.5592 76.8281 20.916 76.8652 20.2852C76.89 19.8646 76.9766 19.376 77.125 18.8193C77.2734 18.2503 77.4714 17.6689 77.7188 17.0752C77.9785 16.4814 78.2878 15.9001 78.6465 15.3311C79.0052 14.762 79.401 14.2549 79.834 13.8096C80.2669 13.3519 80.737 12.987 81.2441 12.7148C81.7637 12.4303 82.3018 12.2881 82.8584 12.2881ZM100.522 12.418C100.349 12.8138 100.195 13.1602 100.059 13.457C99.9225 13.7539 99.805 14.0075 99.7061 14.2178C99.5947 14.4528 99.502 14.6631 99.4277 14.8486C99.3659 14.9847 99.2855 15.1702 99.1865 15.4053C99.0876 15.6156 98.9639 15.8939 98.8154 16.2402C98.6794 16.5742 98.5 17.0072 98.2773 17.5391C98.166 17.0814 98.0299 16.6794 97.8691 16.333C97.7083 15.9867 97.5352 15.6836 97.3496 15.4238C97.1641 15.1641 96.9661 14.9538 96.7559 14.793C96.5579 14.6198 96.36 14.4775 96.1621 14.3662C95.7044 14.1188 95.222 13.9827 94.7148 13.958C94.0469 13.9951 93.5212 14.1064 93.1377 14.292C92.7666 14.4652 92.4945 14.6693 92.3213 14.9043C92.1481 15.127 92.0553 15.362 92.043 15.6094C92.0306 15.8444 92.0615 16.0423 92.1357 16.2031C92.1976 16.3516 92.4141 16.5247 92.7852 16.7227C93.1686 16.9206 93.6263 17.1494 94.1582 17.4092C94.7025 17.6566 95.2839 17.9411 95.9023 18.2627C96.5208 18.5719 97.0898 18.9183 97.6094 19.3018C98.1413 19.6729 98.5866 20.0811 98.9453 20.5264C99.3164 20.9593 99.5205 21.4232 99.5576 21.918C99.5947 22.5488 99.5885 23.1178 99.5391 23.625C99.4896 24.1322 99.3164 24.5651 99.0195 24.9238C98.7227 25.2826 98.2588 25.5671 97.6279 25.7773C97.0094 25.9876 96.1497 26.1175 95.0488 26.167C93.9108 26.2165 92.9769 26.1546 92.2471 25.9814C91.5173 25.8083 90.9235 25.5732 90.4658 25.2764C90.0205 24.9795 89.6865 24.6517 89.4639 24.293C89.2536 23.9342 89.099 23.5941 89 23.2725C88.901 22.9385 88.833 22.654 88.7959 22.4189C88.7588 22.1715 88.6969 22.0231 88.6104 21.9736C88.5114 21.9118 88.4124 21.8561 88.3135 21.8066C88.2269 21.7572 88.1341 21.7139 88.0352 21.6768C87.9362 21.6273 87.8372 21.584 87.7383 21.5469L93.1377 20.6748C92.8285 20.9222 92.5872 21.151 92.4141 21.3613C92.2533 21.5716 92.1296 21.7572 92.043 21.918C91.944 22.1035 91.876 22.2767 91.8389 22.4375C91.8141 22.6107 91.8698 22.8271 92.0059 23.0869C92.1419 23.3467 92.3275 23.6003 92.5625 23.8477C92.8099 24.0827 93.0944 24.2806 93.416 24.4414C93.7376 24.6022 94.0716 24.6702 94.418 24.6455C94.8509 24.6084 95.2035 24.5033 95.4756 24.3301C95.7477 24.1445 95.9518 23.9157 96.0879 23.6436C96.2363 23.3714 96.3229 23.0745 96.3477 22.7529C96.3724 22.4313 96.3415 22.1159 96.2549 21.8066C96.1807 21.485 96.057 21.1882 95.8838 20.916C95.7106 20.6315 95.5065 20.3965 95.2715 20.2109C95.0612 20.0625 94.7334 19.9202 94.2881 19.7842C93.8551 19.6481 93.3665 19.4997 92.8223 19.3389C92.2904 19.1781 91.7399 18.9925 91.1709 18.7822C90.6143 18.5719 90.1071 18.3122 89.6494 18.0029C89.2041 17.6937 88.8454 17.3288 88.5732 16.9082C88.3135 16.4876 88.2145 15.9805 88.2764 15.3867C88.3258 14.8796 88.4867 14.459 88.7588 14.125C89.0433 13.7786 89.3958 13.5065 89.8164 13.3086C90.2493 13.0983 90.7256 12.9437 91.2451 12.8447C91.777 12.7458 92.3151 12.6901 92.8594 12.6777C93.416 12.653 93.9603 12.6592 94.4922 12.6963C95.0365 12.7334 95.5251 12.7767 95.958 12.8262C96.391 12.8757 96.7559 12.9251 97.0527 12.9746C97.362 13.0117 97.5537 13.0365 97.6279 13.0488C97.9495 13.0736 98.2712 13.0674 98.5928 13.0303C98.8773 13.0055 99.1865 12.9499 99.5205 12.8633C99.8669 12.7643 100.201 12.6159 100.522 12.418Z" fill="#840B0B"/>
<path d="M1.94141 13.1973C2.68359 13.2591 3.33301 13.2962 3.88965 13.3086C4.45866 13.321 4.94108 13.3271 5.33691 13.3271C5.7946 13.3271 6.19043 13.3148 6.52441 13.29C6.87077 13.2529 7.32227 13.2035 7.87891 13.1416C8.34896 13.0798 8.95508 12.9993 9.69727 12.9004C10.4395 12.7891 11.3424 12.6468 12.4062 12.4736C12.2702 12.6839 12.1527 12.9066 12.0537 13.1416C11.9671 13.3643 11.8929 13.5684 11.8311 13.7539C11.7692 13.9766 11.7135 14.193 11.6641 14.4033C11.627 14.6383 11.5837 14.929 11.5342 15.2754C11.4847 15.5723 11.4229 15.9495 11.3486 16.4072C11.2868 16.8525 11.2064 17.3844 11.1074 18.0029C10.7363 17.0381 10.359 16.2959 9.97559 15.7764C9.60449 15.2568 9.25814 14.8734 8.93652 14.626C8.56543 14.3415 8.21289 14.1807 7.87891 14.1436C7.39648 14.1436 7.00065 14.2363 6.69141 14.4219C6.38216 14.6074 6.12858 14.8486 5.93066 15.1455C5.74512 15.43 5.60286 15.7454 5.50391 16.0918C5.40495 16.4258 5.33691 16.7536 5.2998 17.0752C5.2627 17.3844 5.23796 17.6628 5.22559 17.9102C5.21322 18.1452 5.20085 18.306 5.18848 18.3926C5.62142 18.3678 5.98633 18.3369 6.2832 18.2998C6.58008 18.2627 6.8151 18.2256 6.98828 18.1885C7.19857 18.139 7.36556 18.0895 7.48926 18.04C7.6748 17.9411 7.86035 17.8236 8.0459 17.6875C8.20671 17.5638 8.3737 17.4154 8.54688 17.2422C8.73242 17.069 8.89323 16.8587 9.0293 16.6113C8.95508 17.0566 8.88704 17.4277 8.8252 17.7246C8.77572 18.0215 8.73242 18.2565 8.69531 18.4297C8.64583 18.64 8.61491 18.8008 8.60254 18.9121C8.5778 19.0234 8.54688 19.1781 8.50977 19.376C8.47266 19.5492 8.42936 19.7718 8.37988 20.0439C8.3304 20.3161 8.27474 20.6562 8.21289 21.0645C8.06445 20.8047 7.90983 20.5944 7.74902 20.4336C7.58822 20.2604 7.43978 20.1243 7.30371 20.0254C7.1429 19.9141 6.98828 19.8275 6.83984 19.7656C6.67904 19.7161 6.50586 19.6667 6.32031 19.6172C6.15951 19.5801 5.96777 19.543 5.74512 19.5059C5.53483 19.4564 5.30599 19.4131 5.05859 19.376C5.08333 20.0439 5.12044 20.6191 5.16992 21.1016C5.2194 21.5716 5.2627 21.9674 5.2998 22.2891C5.34928 22.6602 5.39876 22.9694 5.44824 23.2168C5.51009 23.4642 5.60905 23.7301 5.74512 24.0146C5.85645 24.262 6.01107 24.5465 6.20898 24.8682C6.41927 25.1774 6.68522 25.5114 7.00684 25.8701C6.75944 25.8083 6.49967 25.765 6.22754 25.7402C5.9554 25.7155 5.71419 25.6969 5.50391 25.6846C5.24414 25.6722 4.99674 25.6722 4.76172 25.6846C4.51432 25.6969 4.24219 25.7217 3.94531 25.7588C3.69792 25.7835 3.41341 25.8206 3.0918 25.8701C2.77018 25.9196 2.43001 25.9753 2.07129 26.0371C2.28158 25.8268 2.45475 25.6165 2.59082 25.4062C2.72689 25.196 2.82585 25.0104 2.8877 24.8496C2.96191 24.6641 3.01139 24.4847 3.03613 24.3115C3.0485 24.1631 3.05469 23.8415 3.05469 23.3467C3.05469 22.8395 3.0485 22.252 3.03613 21.584C3.02376 20.9036 3.00521 20.1862 2.98047 19.4316C2.95573 18.6771 2.93099 17.972 2.90625 17.3164C2.88151 16.6484 2.85059 16.0794 2.81348 15.6094C2.78874 15.1393 2.75781 14.8548 2.7207 14.7559C2.67122 14.6322 2.61556 14.4899 2.55371 14.3291C2.45475 14.0693 2.25065 13.6921 1.94141 13.1973ZM18.3252 12.0098C18.9932 12.0345 19.6673 12.1582 20.3477 12.3809C21.0404 12.5911 21.6774 12.9375 22.2588 13.4199C22.8402 13.89 23.335 14.5023 23.7432 15.2568C24.1514 15.999 24.4049 16.9082 24.5039 17.9844C24.5905 18.8626 24.4792 19.7347 24.1699 20.6006C23.873 21.4541 23.4587 22.2396 22.9268 22.957C22.3949 23.6745 21.7826 24.2868 21.0898 24.7939C20.3971 25.2887 19.7044 25.6165 19.0117 25.7773C18.5911 25.8763 18.1273 25.8887 17.6201 25.8145C17.1253 25.7279 16.6182 25.5732 16.0986 25.3506C15.5915 25.1156 15.0905 24.8187 14.5957 24.46C14.1133 24.1012 13.6742 23.693 13.2783 23.2354C12.8825 22.7653 12.5485 22.2581 12.2764 21.7139C12.0166 21.1696 11.8558 20.6006 11.7939 20.0068C11.7321 19.512 11.7259 18.9678 11.7754 18.374C11.8372 17.7679 11.9548 17.168 12.1279 16.5742C12.3135 15.9681 12.5671 15.3867 12.8887 14.8301C13.2227 14.2611 13.6432 13.7663 14.1504 13.3457C14.6576 12.9128 15.2513 12.5788 15.9316 12.3438C16.6243 12.0964 17.4222 11.985 18.3252 12.0098ZM15.0039 19.5244C14.8307 20.848 14.9544 21.9118 15.375 22.7158C15.8079 23.5199 16.4574 24.0085 17.3232 24.1816C17.7438 24.2682 18.1458 24.1816 18.5293 23.9219C18.9251 23.6497 19.2839 23.2601 19.6055 22.7529C19.9271 22.2458 20.2054 21.652 20.4404 20.9717C20.6755 20.2913 20.8486 19.5801 20.96 18.8379C21.0713 18.0957 21.0775 17.4277 20.9785 16.834C20.8919 16.2279 20.7373 15.7145 20.5146 15.2939C20.292 14.861 20.0199 14.527 19.6982 14.292C19.389 14.057 19.0674 13.9271 18.7334 13.9023C18.152 13.8652 17.6449 14.0199 17.2119 14.3662C16.779 14.7002 16.4141 15.1393 16.1172 15.6836C15.8203 16.2279 15.5791 16.8402 15.3936 17.5205C15.2204 18.2008 15.0905 18.8688 15.0039 19.5244ZM24.2441 12.4551C24.64 12.5169 24.9987 12.5726 25.3203 12.6221C25.6419 12.6592 25.9202 12.6901 26.1553 12.7148C26.4274 12.752 26.6686 12.7829 26.8789 12.8076C27.1387 12.8447 27.5283 12.8014 28.0479 12.6777C28.5674 12.5417 29.1364 12.418 29.7549 12.3066C30.3857 12.1829 31.029 12.1149 31.6846 12.1025C32.3402 12.0778 32.9401 12.1953 33.4844 12.4551C34.0286 12.7148 34.474 12.9746 34.8203 13.2344C35.1667 13.4941 35.4388 13.7725 35.6367 14.0693C35.847 14.3538 35.9954 14.6569 36.082 14.9785C36.1686 15.3001 36.2181 15.6527 36.2305 16.0361C36.2181 16.6051 36.082 17.1556 35.8223 17.6875C35.7109 17.9102 35.5625 18.1452 35.377 18.3926C35.2038 18.6276 34.9873 18.8564 34.7275 19.0791C34.4678 19.3018 34.1585 19.512 33.7998 19.71C33.4535 19.9079 33.0452 20.0811 32.5752 20.2295C33.0329 20.3656 33.4102 20.5264 33.707 20.7119C34.0163 20.8975 34.2637 21.0706 34.4492 21.2314C34.6719 21.4294 34.8389 21.6211 34.9502 21.8066C35.0863 22.0664 35.179 22.2891 35.2285 22.4746C35.278 22.6602 35.3089 22.8395 35.3213 23.0127C35.346 23.1735 35.377 23.3405 35.4141 23.5137C35.4512 23.6868 35.5316 23.8848 35.6553 24.1074C35.7542 24.2806 35.8717 24.46 36.0078 24.6455C36.1315 24.8063 36.2738 24.9795 36.4346 25.165C36.6077 25.3506 36.818 25.5299 37.0654 25.7031C36.7191 25.7155 36.3975 25.7217 36.1006 25.7217C35.8161 25.7217 35.5687 25.7217 35.3584 25.7217C35.111 25.7217 34.876 25.7155 34.6533 25.7031C34.4307 25.6908 34.1523 25.6846 33.8184 25.6846C33.5339 25.6846 33.1689 25.6846 32.7236 25.6846C32.2907 25.6846 31.765 25.6908 31.1465 25.7031C31.4186 25.4928 31.6413 25.2826 31.8145 25.0723C31.9876 24.862 32.1237 24.6702 32.2227 24.4971C32.334 24.2992 32.4144 24.1074 32.4639 23.9219C32.5257 23.5879 32.5319 23.2415 32.4824 22.8828C32.4453 22.5736 32.3464 22.2334 32.1855 21.8623C32.0247 21.4788 31.765 21.0954 31.4062 20.7119C31.0475 20.7738 30.7445 20.8232 30.4971 20.8604C30.262 20.8851 30.0579 20.9098 29.8848 20.9346C29.6868 20.9593 29.526 20.9779 29.4023 20.9902C29.291 21.0026 29.1673 21.015 29.0312 21.0273C28.9199 21.0397 28.7962 21.0583 28.6602 21.083C28.5365 21.0954 28.4189 21.1139 28.3076 21.1387C28.2829 21.6706 28.2829 22.1344 28.3076 22.5303C28.3324 22.9137 28.3633 23.2354 28.4004 23.4951C28.4499 23.8044 28.5055 24.0703 28.5674 24.293C28.6292 24.5156 28.7158 24.7321 28.8271 24.9424C28.9137 25.1156 29.0251 25.3011 29.1611 25.499C29.2972 25.6846 29.4518 25.8392 29.625 25.9629C29.3034 25.9629 28.9941 25.9629 28.6973 25.9629C28.4128 25.9629 28.153 25.9567 27.918 25.9443C27.6458 25.9443 27.3861 25.9382 27.1387 25.9258C26.8913 25.9134 26.613 25.9072 26.3037 25.9072C26.0439 25.9072 25.7347 25.9072 25.376 25.9072C25.0296 25.9072 24.6523 25.9134 24.2441 25.9258C24.5658 25.5918 24.8193 25.3073 25.0049 25.0723C25.1904 24.8372 25.3327 24.6393 25.4316 24.4785C25.543 24.3053 25.611 24.1569 25.6357 24.0332C25.6605 23.8353 25.679 23.4827 25.6914 22.9756C25.7161 22.4561 25.7347 21.8623 25.7471 21.1943C25.7594 20.5264 25.7656 19.8275 25.7656 19.0977C25.7656 18.3678 25.7594 17.6875 25.7471 17.0566C25.7347 16.4134 25.7223 15.863 25.71 15.4053C25.6976 14.9476 25.6852 14.6569 25.6729 14.5332C25.6357 14.3105 25.5553 14.0879 25.4316 13.8652C25.3327 13.6673 25.1904 13.4447 25.0049 13.1973C24.8193 12.9499 24.5658 12.7025 24.2441 12.4551ZM31.2578 18.9863C31.3815 18.9121 31.4867 18.8379 31.5732 18.7637C31.6598 18.6895 31.734 18.5719 31.7959 18.4111C31.8577 18.238 31.9072 17.9967 31.9443 17.6875C31.9938 17.3783 32.0495 16.9577 32.1113 16.4258C32.1608 15.8939 32.1237 15.4548 32 15.1084C31.8887 14.762 31.734 14.4899 31.5361 14.292C31.3506 14.0817 31.1403 13.9395 30.9053 13.8652C30.6826 13.7786 30.4847 13.7354 30.3115 13.7354C29.9652 13.7354 29.625 13.8405 29.291 14.0508C28.957 14.2611 28.7035 14.5456 28.5303 14.9043C28.4684 15.0651 28.4128 15.3311 28.3633 15.7021C28.3262 16.0238 28.3014 16.4691 28.2891 17.0381C28.2767 17.6071 28.2952 18.3555 28.3447 19.2832C28.8148 19.3574 29.2292 19.3883 29.5879 19.376C29.9466 19.3512 30.2497 19.3079 30.4971 19.2461C30.7939 19.1842 31.0475 19.0977 31.2578 18.9863ZM35.9336 13.3271C36.7995 13.3519 37.5169 13.3704 38.0859 13.3828C38.6673 13.3828 39.1374 13.3828 39.4961 13.3828H40.4795H46.0088C46.0335 13.6302 46.0521 13.8714 46.0645 14.1064C46.0892 14.3291 46.1016 14.527 46.1016 14.7002C46.1016 14.9105 46.0954 15.1022 46.083 15.2754C46.0706 15.4486 46.0521 15.6341 46.0273 15.832C46.0026 16.0052 45.9779 16.1908 45.9531 16.3887C45.9284 16.5866 45.8851 16.7907 45.8232 17.001C45.6501 16.333 45.415 15.8258 45.1182 15.4795C44.8337 15.1331 44.543 14.8796 44.2461 14.7188C43.8997 14.5332 43.5348 14.4342 43.1514 14.4219C42.6442 14.4466 42.2484 14.4899 41.9639 14.5518C41.6794 14.6136 41.4567 14.7002 41.2959 14.8115C41.1351 14.9229 41.0114 15.0527 40.9248 15.2012C40.8506 15.3372 40.7702 15.4919 40.6836 15.665C40.6094 15.8135 40.5413 16.0423 40.4795 16.3516C40.4176 16.6113 40.3558 16.9639 40.2939 17.4092C40.2445 17.8545 40.1888 18.4297 40.127 19.1348C40.4609 19.0358 40.7269 18.943 40.9248 18.8564C41.1351 18.7699 41.3021 18.6956 41.4258 18.6338C41.5618 18.5596 41.6608 18.4915 41.7227 18.4297C41.7721 18.3555 41.8464 18.2194 41.9453 18.0215C42.0195 17.8483 42.1185 17.6133 42.2422 17.3164C42.3783 17.0195 42.5391 16.6113 42.7246 16.0918C42.7493 16.6608 42.7617 17.137 42.7617 17.5205C42.7617 17.8916 42.7679 18.1947 42.7803 18.4297C42.7803 18.7018 42.7865 18.9183 42.7988 19.0791V19.7842C42.7988 20.0439 42.7988 20.3965 42.7988 20.8418C42.8112 21.2747 42.8298 21.8252 42.8545 22.4932C42.7061 22.0355 42.57 21.6768 42.4463 21.417C42.335 21.1449 42.236 20.9408 42.1494 20.8047C42.0505 20.6439 41.9639 20.5326 41.8896 20.4707C41.8031 20.446 41.6855 20.4212 41.5371 20.3965C41.401 20.3841 41.2279 20.3779 41.0176 20.3779C40.8197 20.3779 40.5661 20.4089 40.2568 20.4707C40.2197 21.151 40.2135 21.7015 40.2383 22.1221C40.2754 22.5303 40.3249 22.8457 40.3867 23.0684C40.4486 23.3281 40.5228 23.5137 40.6094 23.625C40.7207 23.7363 40.9434 23.8291 41.2773 23.9033C41.6113 23.9652 41.9886 23.9899 42.4092 23.9775C42.8421 23.9528 43.2812 23.8786 43.7266 23.7549C44.1719 23.6312 44.5677 23.4271 44.9141 23.1426C45.1738 22.9076 45.4521 22.6107 45.749 22.252C45.9964 21.9427 46.2686 21.5531 46.5654 21.083C46.8747 20.613 47.1777 20.0439 47.4746 19.376C47.4251 19.9326 47.388 20.3965 47.3633 20.7676C47.3509 21.1263 47.3324 21.417 47.3076 21.6396C47.2829 21.8994 47.2643 22.0973 47.252 22.2334C47.252 22.3818 47.2334 22.5921 47.1963 22.8643C47.1715 23.0993 47.1283 23.4209 47.0664 23.8291C47.0169 24.2249 46.9489 24.7321 46.8623 25.3506C46.2809 25.363 45.7305 25.3753 45.2109 25.3877C44.6914 25.3877 44.2337 25.3939 43.8379 25.4062C43.3678 25.4186 42.9349 25.431 42.5391 25.4434C42.1309 25.4434 41.6794 25.4619 41.1846 25.499C40.7516 25.5238 40.2383 25.5609 39.6445 25.6104C39.0632 25.6598 38.4199 25.7279 37.7148 25.8145C37.7767 24.9733 37.82 24.1816 37.8447 23.4395C37.8818 22.6849 37.9066 22.0231 37.9189 21.4541C37.9313 20.7861 37.9313 20.1676 37.9189 19.5986C37.9808 18.1761 37.9561 17.0257 37.8447 16.1475C37.7334 15.2692 37.6035 14.7064 37.4551 14.459C37.3809 14.3724 37.2757 14.2673 37.1396 14.1436C37.0283 14.0446 36.8737 13.9271 36.6758 13.791C36.4779 13.6549 36.2305 13.5003 35.9336 13.3271ZM47.1963 12.8447C47.7529 12.9437 48.2106 13.0117 48.5693 13.0488C48.9281 13.0859 49.2188 13.1169 49.4414 13.1416C49.7012 13.1663 49.9053 13.1725 50.0537 13.1602H50.6104C50.8083 13.1602 51.0557 13.1602 51.3525 13.1602C51.6618 13.1478 52.0452 13.1416 52.5029 13.1416C52.7627 13.7477 52.9977 14.3044 53.208 14.8115C53.4307 15.3187 53.6162 15.7516 53.7646 16.1104C53.9378 16.5433 54.0986 16.9329 54.2471 17.2793C54.4202 17.7122 54.6058 18.1885 54.8037 18.708C55.0016 19.2275 55.181 19.7161 55.3418 20.1738C55.515 20.6315 55.6572 21.0088 55.7686 21.3057C55.8799 21.6025 55.9355 21.7386 55.9355 21.7139C55.9355 21.7015 55.9417 21.5778 55.9541 21.3428C55.9665 21.0954 55.9788 20.7923 55.9912 20.4336C56.0036 20.0625 56.016 19.6605 56.0283 19.2275C56.0531 18.7822 56.0654 18.3555 56.0654 17.9473C56.0778 17.5267 56.084 17.1432 56.084 16.7969C56.084 16.4505 56.0716 16.1908 56.0469 16.0176C56.0098 15.8073 55.9355 15.5661 55.8242 15.2939C55.7253 15.0589 55.5892 14.7806 55.416 14.459C55.2428 14.125 55.0016 13.7477 54.6924 13.3271C55.1995 13.3395 55.6139 13.3457 55.9355 13.3457C56.2572 13.3457 56.5169 13.3457 56.7148 13.3457C56.9375 13.3457 57.1107 13.3395 57.2344 13.3271C57.3952 13.3271 57.5931 13.3148 57.8281 13.29C58.0384 13.2653 58.2982 13.2467 58.6074 13.2344C58.929 13.2096 59.3249 13.1787 59.7949 13.1416C59.5228 13.389 59.3063 13.624 59.1455 13.8467C58.9847 14.0693 58.8548 14.2673 58.7559 14.4404C58.6445 14.6383 58.5703 14.8239 58.5332 14.9971C58.4837 15.2197 58.4404 15.5846 58.4033 16.0918C58.3786 16.5866 58.3477 17.1432 58.3105 17.7617C58.2858 18.3802 58.2611 19.0234 58.2363 19.6914C58.2116 20.3594 58.1868 20.9717 58.1621 21.5283C58.1621 21.9489 58.1497 22.4004 58.125 22.8828C58.1003 23.291 58.0755 23.7549 58.0508 24.2744C58.026 24.7816 57.9951 25.2949 57.958 25.8145L56.3066 25.8516C55.8242 24.998 55.416 24.2682 55.082 23.6621C54.7604 23.0436 54.4945 22.5365 54.2842 22.1406C54.0492 21.6829 53.8512 21.2995 53.6904 20.9902C53.5544 20.6934 53.375 20.3532 53.1523 19.9697C52.9668 19.6481 52.7318 19.2523 52.4473 18.7822C52.1751 18.3122 51.8473 17.7741 51.4639 17.168C51.4268 18.0215 51.4082 18.7513 51.4082 19.3574C51.4206 19.9512 51.4391 20.446 51.4639 20.8418C51.501 21.2995 51.5443 21.6829 51.5938 21.9922C51.6556 22.2891 51.7422 22.623 51.8535 22.9941C51.9525 23.3158 52.07 23.693 52.2061 24.126C52.3545 24.5589 52.5339 25.0475 52.7441 25.5918C52.0143 25.5547 51.4701 25.5361 51.1113 25.5361H50.5547C50.3815 25.5361 50.1465 25.5547 49.8496 25.5918C49.6022 25.6165 49.262 25.6536 48.8291 25.7031C48.4085 25.7526 47.8828 25.8206 47.252 25.9072C47.5488 25.5485 47.7839 25.2207 47.957 24.9238C48.1426 24.6146 48.2848 24.3548 48.3838 24.1445C48.5075 23.8971 48.5941 23.6807 48.6436 23.4951C48.6807 23.2972 48.7054 22.957 48.7178 22.4746C48.7301 21.9798 48.7301 21.4232 48.7178 20.8047C48.7178 20.1738 48.7054 19.512 48.6807 18.8193C48.6683 18.1266 48.6497 17.4834 48.625 16.8896C48.6003 16.2959 48.5693 15.7887 48.5322 15.3682C48.5075 14.9476 48.4889 14.6878 48.4766 14.5889C48.4395 14.4281 48.3652 14.2549 48.2539 14.0693C48.1549 13.9085 48.0251 13.7292 47.8643 13.5312C47.7035 13.321 47.4808 13.0921 47.1963 12.8447ZM71.54 12.418C71.3669 12.8138 71.2122 13.1602 71.0762 13.457C70.9401 13.7539 70.8226 14.0075 70.7236 14.2178C70.6123 14.4528 70.5195 14.6631 70.4453 14.8486C70.3835 14.9847 70.3031 15.1702 70.2041 15.4053C70.1051 15.6156 69.9814 15.8939 69.833 16.2402C69.6969 16.5742 69.5176 17.0072 69.2949 17.5391C69.1836 17.0814 69.0475 16.6794 68.8867 16.333C68.7259 15.9867 68.5527 15.6836 68.3672 15.4238C68.1816 15.1641 67.9837 14.9538 67.7734 14.793C67.5755 14.6198 67.3776 14.4775 67.1797 14.3662C66.722 14.1188 66.2396 13.9827 65.7324 13.958C65.0645 13.9951 64.5387 14.1064 64.1553 14.292C63.7842 14.4652 63.512 14.6693 63.3389 14.9043C63.1657 15.127 63.0729 15.362 63.0605 15.6094C63.0482 15.8444 63.0791 16.0423 63.1533 16.2031C63.2152 16.3516 63.4316 16.5247 63.8027 16.7227C64.1862 16.9206 64.6439 17.1494 65.1758 17.4092C65.7201 17.6566 66.3014 17.9411 66.9199 18.2627C67.5384 18.5719 68.1074 18.9183 68.627 19.3018C69.1589 19.6729 69.6042 20.0811 69.9629 20.5264C70.334 20.9593 70.5381 21.4232 70.5752 21.918C70.6123 22.5488 70.6061 23.1178 70.5566 23.625C70.5072 24.1322 70.334 24.5651 70.0371 24.9238C69.7402 25.2826 69.2764 25.5671 68.6455 25.7773C68.027 25.9876 67.1673 26.1175 66.0664 26.167C64.9284 26.2165 63.9945 26.1546 63.2646 25.9814C62.5348 25.8083 61.9411 25.5732 61.4834 25.2764C61.0381 24.9795 60.7041 24.6517 60.4814 24.293C60.2712 23.9342 60.1165 23.5941 60.0176 23.2725C59.9186 22.9385 59.8506 22.654 59.8135 22.4189C59.7764 22.1715 59.7145 22.0231 59.6279 21.9736C59.529 21.9118 59.43 21.8561 59.3311 21.8066C59.2445 21.7572 59.1517 21.7139 59.0527 21.6768C58.9538 21.6273 58.8548 21.584 58.7559 21.5469L64.1553 20.6748C63.846 20.9222 63.6048 21.151 63.4316 21.3613C63.2708 21.5716 63.1471 21.7572 63.0605 21.918C62.9616 22.1035 62.8936 22.2767 62.8564 22.4375C62.8317 22.6107 62.8874 22.8271 63.0234 23.0869C63.1595 23.3467 63.3451 23.6003 63.5801 23.8477C63.8275 24.0827 64.112 24.2806 64.4336 24.4414C64.7552 24.6022 65.0892 24.6702 65.4355 24.6455C65.8685 24.6084 66.221 24.5033 66.4932 24.3301C66.7653 24.1445 66.9694 23.9157 67.1055 23.6436C67.2539 23.3714 67.3405 23.0745 67.3652 22.7529C67.39 22.4313 67.359 22.1159 67.2725 21.8066C67.1982 21.485 67.0745 21.1882 66.9014 20.916C66.7282 20.6315 66.5241 20.3965 66.2891 20.2109C66.0788 20.0625 65.751 19.9202 65.3057 19.7842C64.8727 19.6481 64.3841 19.4997 63.8398 19.3389C63.3079 19.1781 62.7575 18.9925 62.1885 18.7822C61.6318 18.5719 61.1247 18.3122 60.667 18.0029C60.2217 17.6937 59.863 17.3288 59.5908 16.9082C59.3311 16.4876 59.2321 15.9805 59.2939 15.3867C59.3434 14.8796 59.5042 14.459 59.7764 14.125C60.0609 13.7786 60.4134 13.5065 60.834 13.3086C61.2669 13.0983 61.7432 12.9437 62.2627 12.8447C62.7946 12.7458 63.3327 12.6901 63.877 12.6777C64.4336 12.653 64.9779 12.6592 65.5098 12.6963C66.054 12.7334 66.5426 12.7767 66.9756 12.8262C67.4085 12.8757 67.7734 12.9251 68.0703 12.9746C68.3796 13.0117 68.5713 13.0365 68.6455 13.0488C68.9671 13.0736 69.2887 13.0674 69.6104 13.0303C69.8949 13.0055 70.2041 12.9499 70.5381 12.8633C70.8844 12.7643 71.2184 12.6159 71.54 12.418ZM71.4473 13.2158C71.8678 13.2653 72.2204 13.3024 72.5049 13.3271C72.8018 13.3395 73.043 13.3581 73.2285 13.3828C73.4512 13.4076 73.6243 13.4199 73.748 13.4199C73.8841 13.4323 74.0882 13.4261 74.3604 13.4014C74.5954 13.3766 74.9108 13.3457 75.3066 13.3086C75.7148 13.2715 76.2344 13.2158 76.8652 13.1416C76.5807 13.389 76.3519 13.6302 76.1787 13.8652C76.0179 14.0879 75.8942 14.2858 75.8076 14.459C75.6963 14.6693 75.6283 14.8672 75.6035 15.0527C75.554 15.3496 75.5107 15.7578 75.4736 16.2773C75.4489 16.7845 75.4242 17.3411 75.3994 17.9473C75.3747 18.5534 75.3623 19.1781 75.3623 19.8213C75.3623 20.4645 75.3685 21.0768 75.3809 21.6582C75.4056 22.2272 75.4427 22.7344 75.4922 23.1797C75.554 23.625 75.6283 23.9466 75.7148 24.1445C75.8385 24.3672 75.9684 24.5898 76.1045 24.8125C76.2282 24.998 76.3766 25.1898 76.5498 25.3877C76.723 25.5856 76.9209 25.7464 77.1436 25.8701C76.4137 25.833 75.8324 25.8145 75.3994 25.8145H74.7314C74.5335 25.8145 74.2799 25.8268 73.9707 25.8516C73.7109 25.8763 73.3831 25.901 72.9873 25.9258C72.5915 25.9505 72.1152 25.9876 71.5586 26.0371C71.8431 25.7279 72.0658 25.431 72.2266 25.1465C72.3874 24.862 72.5173 24.6146 72.6162 24.4043C72.7275 24.1569 72.8018 23.9219 72.8389 23.6992C72.8883 23.3776 72.9255 22.9818 72.9502 22.5117C72.9873 22.0293 73.012 21.516 73.0244 20.9717C73.0368 20.415 73.0368 19.8522 73.0244 19.2832C73.0244 18.7018 73.012 18.1452 72.9873 17.6133C72.9626 17.0814 72.9255 16.599 72.876 16.166C72.8389 15.7331 72.7894 15.3867 72.7275 15.127C72.6904 14.9661 72.6162 14.7868 72.5049 14.5889C72.4059 14.4157 72.2699 14.2178 72.0967 13.9951C71.9359 13.7601 71.7194 13.5003 71.4473 13.2158ZM82.8584 12.2881C83.2913 12.2881 83.681 12.3623 84.0273 12.5107C84.3861 12.6468 84.7139 12.8014 85.0107 12.9746C85.32 13.1478 85.6107 13.3086 85.8828 13.457C86.1549 13.5931 86.4333 13.6611 86.7178 13.6611C86.9404 13.6488 87.194 13.6178 87.4785 13.5684C87.7259 13.5189 88.0104 13.4447 88.332 13.3457C88.666 13.2344 89.0371 13.0736 89.4453 12.8633C89.0371 13.2591 88.7031 13.5931 88.4434 13.8652C88.196 14.125 88.0042 14.3415 87.8682 14.5146C87.7074 14.7126 87.5898 14.8672 87.5156 14.9785C87.4414 15.1146 87.3301 15.3187 87.1816 15.5908C87.0456 15.8382 86.86 16.1722 86.625 16.5928C86.39 17.001 86.0931 17.5391 85.7344 18.207C85.7344 17.3535 85.6478 16.6917 85.4746 16.2217C85.3138 15.7516 85.1344 15.3929 84.9365 15.1455C84.7015 14.861 84.4355 14.6816 84.1387 14.6074C83.8665 14.5703 83.5944 14.6198 83.3223 14.7559C83.0501 14.8796 82.778 15.0651 82.5059 15.3125C82.2461 15.5599 81.9925 15.8568 81.7451 16.2031C81.5101 16.5371 81.2936 16.8896 81.0957 17.2607C80.9102 17.6318 80.7555 18.0091 80.6318 18.3926C80.5081 18.7637 80.4277 19.11 80.3906 19.4316C80.3535 19.7161 80.3473 20.0501 80.3721 20.4336C80.3968 20.8047 80.4525 21.1882 80.5391 21.584C80.6257 21.9674 80.737 22.3447 80.873 22.7158C81.0091 23.0869 81.1761 23.4209 81.374 23.7178C81.5843 24.0023 81.8193 24.2373 82.0791 24.4229C82.3389 24.596 82.6357 24.6764 82.9697 24.6641C83.3408 24.6393 83.7057 24.528 84.0645 24.3301C84.3737 24.1693 84.6891 23.9219 85.0107 23.5879C85.3324 23.2415 85.6107 22.7529 85.8457 22.1221L88.5918 22.623C87.8001 23.5879 87.027 24.3115 86.2725 24.7939C85.5303 25.2764 84.8623 25.6165 84.2686 25.8145C83.5758 26.0371 82.9202 26.1423 82.3018 26.1299C81.5225 26.0433 80.7926 25.8083 80.1123 25.4248C79.432 25.0413 78.8444 24.5775 78.3496 24.0332C77.8672 23.4766 77.4899 22.8704 77.2178 22.2148C76.9456 21.5592 76.8281 20.916 76.8652 20.2852C76.89 19.8646 76.9766 19.376 77.125 18.8193C77.2734 18.2503 77.4714 17.6689 77.7188 17.0752C77.9785 16.4814 78.2878 15.9001 78.6465 15.3311C79.0052 14.762 79.401 14.2549 79.834 13.8096C80.2669 13.3519 80.737 12.987 81.2441 12.7148C81.7637 12.4303 82.3018 12.2881 82.8584 12.2881ZM100.522 12.418C100.349 12.8138 100.195 13.1602 100.059 13.457C99.9225 13.7539 99.805 14.0075 99.7061 14.2178C99.5947 14.4528 99.502 14.6631 99.4277 14.8486C99.3659 14.9847 99.2855 15.1702 99.1865 15.4053C99.0876 15.6156 98.9639 15.8939 98.8154 16.2402C98.6794 16.5742 98.5 17.0072 98.2773 17.5391C98.166 17.0814 98.0299 16.6794 97.8691 16.333C97.7083 15.9867 97.5352 15.6836 97.3496 15.4238C97.1641 15.1641 96.9661 14.9538 96.7559 14.793C96.5579 14.6198 96.36 14.4775 96.1621 14.3662C95.7044 14.1188 95.222 13.9827 94.7148 13.958C94.0469 13.9951 93.5212 14.1064 93.1377 14.292C92.7666 14.4652 92.4945 14.6693 92.3213 14.9043C92.1481 15.127 92.0553 15.362 92.043 15.6094C92.0306 15.8444 92.0615 16.0423 92.1357 16.2031C92.1976 16.3516 92.4141 16.5247 92.7852 16.7227C93.1686 16.9206 93.6263 17.1494 94.1582 17.4092C94.7025 17.6566 95.2839 17.9411 95.9023 18.2627C96.5208 18.5719 97.0898 18.9183 97.6094 19.3018C98.1413 19.6729 98.5866 20.0811 98.9453 20.5264C99.3164 20.9593 99.5205 21.4232 99.5576 21.918C99.5947 22.5488 99.5885 23.1178 99.5391 23.625C99.4896 24.1322 99.3164 24.5651 99.0195 24.9238C98.7227 25.2826 98.2588 25.5671 97.6279 25.7773C97.0094 25.9876 96.1497 26.1175 95.0488 26.167C93.9108 26.2165 92.9769 26.1546 92.2471 25.9814C91.5173 25.8083 90.9235 25.5732 90.4658 25.2764C90.0205 24.9795 89.6865 24.6517 89.4639 24.293C89.2536 23.9342 89.099 23.5941 89 23.2725C88.901 22.9385 88.833 22.654 88.7959 22.4189C88.7588 22.1715 88.6969 22.0231 88.6104 21.9736C88.5114 21.9118 88.4124 21.8561 88.3135 21.8066C88.2269 21.7572 88.1341 21.7139 88.0352 21.6768C87.9362 21.6273 87.8372 21.584 87.7383 21.5469L93.1377 20.6748C92.8285 20.9222 92.5872 21.151 92.4141 21.3613C92.2533 21.5716 92.1296 21.7572 92.043 21.918C91.944 22.1035 91.876 22.2767 91.8389 22.4375C91.8141 22.6107 91.8698 22.8271 92.0059 23.0869C92.1419 23.3467 92.3275 23.6003 92.5625 23.8477C92.8099 24.0827 93.0944 24.2806 93.416 24.4414C93.7376 24.6022 94.0716 24.6702 94.418 24.6455C94.8509 24.6084 95.2035 24.5033 95.4756 24.3301C95.7477 24.1445 95.9518 23.9157 96.0879 23.6436C96.2363 23.3714 96.3229 23.0745 96.3477 22.7529C96.3724 22.4313 96.3415 22.1159 96.2549 21.8066C96.1807 21.485 96.057 21.1882 95.8838 20.916C95.7106 20.6315 95.5065 20.3965 95.2715 20.2109C95.0612 20.0625 94.7334 19.9202 94.2881 19.7842C93.8551 19.6481 93.3665 19.4997 92.8223 19.3389C92.2904 19.1781 91.7399 18.9925 91.1709 18.7822C90.6143 18.5719 90.1071 18.3122 89.6494 18.0029C89.2041 17.6937 88.8454 17.3288 88.5732 16.9082C88.3135 16.4876 88.2145 15.9805 88.2764 15.3867C88.3258 14.8796 88.4867 14.459 88.7588 14.125C89.0433 13.7786 89.3958 13.5065 89.8164 13.3086C90.2493 13.0983 90.7256 12.9437 91.2451 12.8447C91.777 12.7458 92.3151 12.6901 92.8594 12.6777C93.416 12.653 93.9603 12.6592 94.4922 12.6963C95.0365 12.7334 95.5251 12.7767 95.958 12.8262C96.391 12.8757 96.7559 12.9251 97.0527 12.9746C97.362 13.0117 97.5537 13.0365 97.6279 13.0488C97.9495 13.0736 98.2712 13.0674 98.5928 13.0303C98.8773 13.0055 99.1865 12.9499 99.5205 12.8633C99.8669 12.7643 100.201 12.6159 100.522 12.418Z" fill="url(#paint1_linear_391_2066)"/>
<defs>
<linearGradient id="paint0_linear_391_2066" x1="2" y1="19.0968" x2="98.9958" y2="17.1025" gradientUnits="userSpaceOnUse">
<stop stop-opacity="0"/>
<stop offset="0.495"/>
<stop offset="1" stop-opacity="0"/>
</linearGradient>
<linearGradient id="paint1_linear_391_2066" x1="0" y1="16" x2="102" y2="16" gradientUnits="userSpaceOnUse">
<stop offset="0.0659998" stop-opacity="0.18"/>
<stop offset="0.261" stop-opacity="0.7"/>
<stop offset="0.526" stop-opacity="0.09"/>
<stop offset="0.826" stop-opacity="0.7"/>
<stop offset="1" stop-opacity="0"/>
</linearGradient>
</defs>
</svg>
