<svg width="253" height="162" viewBox="0 0 253 162" fill="none" xmlns="http://www.w3.org/2000/svg">
<g filter="url(#filter0_d_417_2026)">
<rect x="4" y="2" width="245" height="153" rx="20" fill="#AE3F24"/>
</g>
<path d="M236.5 123.954C253.5 100.5 253.556 150.266 236.5 154.266C219.444 158.266 96.0564 154.266 96.0564 154.266C96.0564 154.266 219.5 147.408 236.5 123.954Z" fill="#D5720F"/>
<path d="M249 92V107.919V121.271C247.573 99.7865 0.0152645 148.342 6.11074 142.51C12.2062 136.678 154.472 93.6788 249 92Z" fill="#FDC7A3"/>
<path d="M166.975 105C166.975 105 201.495 113.693 191.021 114.02C180.548 114.346 111.886 129.689 83.0651 155H49C89.4091 130.489 115.825 120.056 166.975 105Z" fill="#FDC7A3"/>
<path d="M4 48.6594C95.354 10.3523 143.067 60.6242 248.5 48.6593C248.5 48.6593 250.64 76.0215 247 69.4859C243.36 62.9503 41.2364 23.9515 4 74.6594L4 48.6594Z" fill="#FDC7A3"/>
<path d="M4 93.3871C16.268 81.9198 109.148 40.506 181.791 51.9933L224 62.5789C137.619 40.7153 34.2299 96.3201 4 118V93.3871Z" fill="#FDC7A3"/>
<path d="M25.9938 0H221.994C243.069 1.09623 249.957 10.0497 249.015 30.4504C163.075 0.396692 87.3253 8.81646 4.01477 27.9504C3.68156 8.68961 8.92455 2.11731 25.9938 0Z" fill="#EEB087"/>
<path d="M4 22.8706C101.716 7.32421 155.473 6.42466 249 22.8706V48.5001C112.885 64.0373 160.548 16.7595 4 48.5001V22.8706Z" fill="#E5812B"/>
<defs>
<filter id="filter0_d_417_2026" x="0" y="2" width="253" height="161" filterUnits="userSpaceOnUse" color-interpolation-filters="sRGB">
<feFlood flood-opacity="0" result="BackgroundImageFix"/>
<feColorMatrix in="SourceAlpha" type="matrix" values="0 0 0 0 0 0 0 0 0 0 0 0 0 0 0 0 0 0 127 0" result="hardAlpha"/>
<feOffset dy="4"/>
<feGaussianBlur stdDeviation="2"/>
<feComposite in2="hardAlpha" operator="out"/>
<feColorMatrix type="matrix" values="0 0 0 0 0 0 0 0 0 0 0 0 0 0 0 0 0 0 0.25 0"/>
<feBlend mode="normal" in2="BackgroundImageFix" result="effect1_dropShadow_417_2026"/>
<feBlend mode="normal" in="SourceGraphic" in2="effect1_dropShadow_417_2026" result="shape"/>
</filter>
</defs>
</svg>
