<svg width="253" height="162" viewBox="0 0 253 162" fill="none" xmlns="http://www.w3.org/2000/svg">
<g filter="url(#filter0_d_409_2026)">
<rect x="4" y="1" width="245" height="153" rx="20" fill="#FB5A5A"/>
</g>
<path d="M236.5 122.954C253.5 99.4999 253.556 149.266 236.5 153.266C219.444 157.266 96.0564 153.266 96.0564 153.266C96.0564 153.266 219.5 146.408 236.5 122.954Z" fill="#FFA3A3"/>
<path d="M249 91V106.919V120.271C247.573 98.7865 0.0152645 147.342 6.11074 141.51C12.2062 135.678 154.472 92.6788 249 91Z" fill="#FFE4E4"/>
<path d="M166.975 104C166.975 104 201.495 112.693 191.021 113.02C180.548 113.346 111.886 128.689 83.0651 154H49C89.4091 129.489 115.825 119.056 166.975 104Z" fill="#FFE4E4"/>
<path d="M4 47.6594C95.354 9.35234 143.067 59.6242 248.5 47.6593C248.5 47.6593 250.64 75.0215 247 68.4859C243.36 61.9503 41.2364 22.9515 4 73.6594L4 47.6594Z" fill="#FFE4E4"/>
<path d="M4 92.3871C16.268 80.9198 109.148 39.506 181.791 50.9933L224 61.5789C137.619 39.7153 34.2299 95.3201 4 117V92.3871Z" fill="#FFE4E4"/>
<path d="M25.979 0.0493164H221.979C243.055 1.14555 249.943 10.0991 249 30.4998C163.06 0.446009 87.3105 8.86577 4 27.9998C3.66679 8.73893 8.90978 2.16663 25.979 0.0493164Z" fill="#FFE4E4"/>
<path d="M4 21.8706C101.716 6.32421 155.473 5.42466 249 21.8706V47.5001C112.885 63.0373 160.548 15.7595 4 47.5001V21.8706Z" fill="#FFA3A3"/>
<defs>
<filter id="filter0_d_409_2026" x="0" y="1" width="253" height="161" filterUnits="userSpaceOnUse" color-interpolation-filters="sRGB">
<feFlood flood-opacity="0" result="BackgroundImageFix"/>
<feColorMatrix in="SourceAlpha" type="matrix" values="0 0 0 0 0 0 0 0 0 0 0 0 0 0 0 0 0 0 127 0" result="hardAlpha"/>
<feOffset dy="4"/>
<feGaussianBlur stdDeviation="2"/>
<feComposite in2="hardAlpha" operator="out"/>
<feColorMatrix type="matrix" values="0 0 0 0 0 0 0 0 0 0 0 0 0 0 0 0 0 0 0.25 0"/>
<feBlend mode="normal" in2="BackgroundImageFix" result="effect1_dropShadow_409_2026"/>
<feBlend mode="normal" in="SourceGraphic" in2="effect1_dropShadow_409_2026" result="shape"/>
</filter>
</defs>
</svg>
