<svg width="96" height="37" viewBox="0 0 96 37" fill="none" xmlns="http://www.w3.org/2000/svg">
<mask id="path-1-inside-1_391_2070" fill="white">
<path d="M4 10C4 4.47715 8.47715 0 14 0H82C87.5229 0 92 4.47715 92 10V27C92 32.5228 87.5229 37 82 37H14C8.47715 37 4 32.5228 4 27V10Z"/>
</mask>
<path d="M4 10C4 2.8203 9.8203 -3 17 -3H79C86.1797 -3 92 2.8203 92 10C92 6.13401 87.5229 3 82 3H14C8.47715 3 4 6.13401 4 10ZM92 27C92 34.1797 86.1797 40 79 40H17C9.8203 40 4 34.1797 4 27C4 30.866 8.47715 34 14 34H82C87.5229 34 92 30.866 92 27ZM4 37V0V37ZM92 0V37V0Z" fill="#840B0B" mask="url(#path-1-inside-1_391_2070)"/>
<path d="M4 10C4 2.8203 9.8203 -3 17 -3H79C86.1797 -3 92 2.8203 92 10C92 6.13401 87.5229 3 82 3H14C8.47715 3 4 6.13401 4 10ZM92 27C92 34.1797 86.1797 40 79 40H17C9.8203 40 4 34.1797 4 27C4 30.866 8.47715 34 14 34H82C87.5229 34 92 30.866 92 27ZM4 37V0V37ZM92 0V37V0Z" fill="url(#paint0_linear_391_2070)" mask="url(#path-1-inside-1_391_2070)"/>
<path d="M25.8364 12.6963C26.2323 12.7087 26.5786 12.7148 26.8755 12.7148C27.1724 12.7025 27.4136 12.6963 27.5991 12.6963H28.1372C28.2733 12.6839 28.4403 12.6777 28.6382 12.6777C28.8114 12.6777 29.0216 12.6777 29.269 12.6777C29.5164 12.6777 29.8009 12.6839 30.1226 12.6963C30.2215 13.0426 30.3328 13.3828 30.4565 13.7168C30.5926 14.0384 30.7101 14.3291 30.8091 14.5889C30.9328 14.8981 31.0565 15.1888 31.1802 15.4609C31.3039 15.7331 31.4523 16.0609 31.6255 16.4443C31.7739 16.766 31.9533 17.1618 32.1636 17.6318C32.3739 18.0895 32.6213 18.6152 32.9058 19.209C33.0418 18.8255 33.1655 18.473 33.2769 18.1514C33.4006 17.8298 33.5057 17.5514 33.5923 17.3164C33.6912 17.0443 33.7716 16.7969 33.8335 16.5742C33.8953 16.3516 33.9634 16.0794 34.0376 15.7578C34.0994 15.4857 34.1675 15.1579 34.2417 14.7744C34.3283 14.391 34.4149 13.9456 34.5015 13.4385C34.8602 13.4385 35.1818 13.4385 35.4663 13.4385C35.7508 13.4385 35.9982 13.4323 36.2085 13.4199C36.4435 13.4199 36.6538 13.4137 36.8394 13.4014C37.0373 13.4014 37.3032 13.389 37.6372 13.3643C37.9217 13.3395 38.299 13.321 38.769 13.3086C39.2515 13.2839 39.8452 13.2529 40.5503 13.2158C40.2905 13.4014 40.0802 13.5869 39.9194 13.7725C39.771 13.9456 39.6535 14.1003 39.5669 14.2363C39.4679 14.3971 39.4061 14.5518 39.3813 14.7002C39.3566 14.8239 39.3319 15.1084 39.3071 15.5537C39.2948 15.999 39.2762 16.5309 39.2515 17.1494C39.2391 17.7555 39.2267 18.4049 39.2144 19.0977C39.2144 19.7904 39.2205 20.446 39.2329 21.0645C39.2453 21.6829 39.2638 22.221 39.2886 22.6787C39.3257 23.124 39.3752 23.4085 39.437 23.5322C39.5236 23.6807 39.6411 23.8538 39.7896 24.0518C39.9256 24.2249 40.0988 24.4229 40.3091 24.6455C40.5317 24.8682 40.8224 25.1156 41.1812 25.3877C40.6121 25.4124 40.1359 25.431 39.7524 25.4434C39.3813 25.4557 39.0721 25.4681 38.8247 25.4805C38.5402 25.4928 38.3114 25.499 38.1382 25.499C37.9526 25.499 37.6991 25.5052 37.3774 25.5176C37.0929 25.5299 36.7157 25.5485 36.2456 25.5732C35.7756 25.5856 35.1694 25.6104 34.4272 25.6475C34.6004 25.4495 34.7612 25.2516 34.9097 25.0537C35.0581 24.8558 35.1818 24.6764 35.2808 24.5156C35.4045 24.3301 35.5096 24.1507 35.5962 23.9775C35.6828 23.7425 35.7508 23.3158 35.8003 22.6973C35.8498 22.1654 35.8869 21.4046 35.9116 20.415C35.9364 19.4131 35.9364 18.071 35.9116 16.3887C35.6766 16.7721 35.4663 17.1556 35.2808 17.5391C35.1076 17.9102 34.953 18.2503 34.8169 18.5596C34.6685 18.9183 34.5324 19.2646 34.4087 19.5986C34.285 19.945 34.1551 20.3285 34.019 20.749C33.8953 21.1077 33.7469 21.5345 33.5737 22.0293C33.4129 22.5241 33.2274 23.0684 33.0171 23.6621L32.312 23.6992C32.2131 23.2044 32.1141 22.7591 32.0151 22.3633C31.9162 21.9551 31.8172 21.6087 31.7183 21.3242C31.6069 20.9902 31.4956 20.6934 31.3843 20.4336C31.2606 20.1738 31.1245 19.8831 30.9761 19.5615C30.84 19.2894 30.673 18.9678 30.4751 18.5967C30.2896 18.2256 30.0731 17.8112 29.8257 17.3535C29.702 18.6152 29.6278 19.6419 29.603 20.4336C29.5783 21.2129 29.5783 21.819 29.603 22.252C29.6278 22.7715 29.6649 23.1488 29.7144 23.3838C29.7886 23.5941 29.9061 23.8291 30.0669 24.0889C30.203 24.3115 30.3885 24.5775 30.6235 24.8867C30.8709 25.1836 31.1864 25.5176 31.5698 25.8887C31.2977 25.8887 31.0132 25.8887 30.7163 25.8887C30.4194 25.8887 30.1473 25.8949 29.8999 25.9072C29.603 25.9196 29.3123 25.9258 29.0278 25.9258C28.731 25.9382 28.3846 25.9567 27.9888 25.9814C27.6424 26.0062 27.228 26.0309 26.7456 26.0557C26.2632 26.0804 25.7065 26.1237 25.0757 26.1855C25.3478 26.0124 25.5705 25.8454 25.7437 25.6846C25.9168 25.5114 26.0529 25.3568 26.1519 25.2207C26.2756 25.0599 26.3683 24.8991 26.4302 24.7383C26.4673 24.6393 26.4982 24.4229 26.5229 24.0889C26.5601 23.7549 26.591 23.3467 26.6157 22.8643C26.6528 22.3818 26.6776 21.8438 26.6899 21.25C26.7147 20.6562 26.7332 20.0563 26.7456 19.4502C26.7703 18.8317 26.7889 18.2318 26.8013 17.6504C26.8136 17.0566 26.8198 16.5247 26.8198 16.0547C26.8322 15.5723 26.8384 15.1702 26.8384 14.8486C26.8384 14.527 26.8384 14.3229 26.8384 14.2363C26.8013 14.0508 26.7456 13.8652 26.6714 13.6797C26.6095 13.5189 26.5106 13.3519 26.3745 13.1787C26.2384 13.0055 26.0591 12.8447 25.8364 12.6963ZM41.0884 13.2158C41.509 13.2653 41.8615 13.3024 42.146 13.3271C42.4429 13.3395 42.6841 13.3581 42.8696 13.3828C43.0923 13.4076 43.2655 13.4199 43.3892 13.4199C43.5252 13.4323 43.7293 13.4261 44.0015 13.4014C44.2365 13.3766 44.5519 13.3457 44.9478 13.3086C45.356 13.2715 45.8755 13.2158 46.5063 13.1416C46.2218 13.389 45.993 13.6302 45.8198 13.8652C45.659 14.0879 45.5353 14.2858 45.4487 14.459C45.3374 14.6693 45.2694 14.8672 45.2446 15.0527C45.1951 15.3496 45.1519 15.7578 45.1147 16.2773C45.09 16.7845 45.0653 17.3411 45.0405 17.9473C45.0158 18.5534 45.0034 19.1781 45.0034 19.8213C45.0034 20.4645 45.0096 21.0768 45.022 21.6582C45.0467 22.2272 45.0838 22.7344 45.1333 23.1797C45.1951 23.625 45.2694 23.9466 45.356 24.1445C45.4797 24.3672 45.6095 24.5898 45.7456 24.8125C45.8693 24.998 46.0177 25.1898 46.1909 25.3877C46.3641 25.5856 46.562 25.7464 46.7847 25.8701C46.0549 25.833 45.4735 25.8145 45.0405 25.8145H44.3726C44.1746 25.8145 43.9211 25.8268 43.6118 25.8516C43.3521 25.8763 43.0243 25.901 42.6284 25.9258C42.2326 25.9505 41.7563 25.9876 41.1997 26.0371C41.4842 25.7279 41.7069 25.431 41.8677 25.1465C42.0285 24.862 42.1584 24.6146 42.2573 24.4043C42.3687 24.1569 42.4429 23.9219 42.48 23.6992C42.5295 23.3776 42.5666 22.9818 42.5913 22.5117C42.6284 22.0293 42.6532 21.516 42.6655 20.9717C42.6779 20.415 42.6779 19.8522 42.6655 19.2832C42.6655 18.7018 42.6532 18.1452 42.6284 17.6133C42.6037 17.0814 42.5666 16.599 42.5171 16.166C42.48 15.7331 42.4305 15.3867 42.3687 15.127C42.3315 14.9661 42.2573 14.7868 42.146 14.5889C42.047 14.4157 41.911 14.2178 41.7378 13.9951C41.577 13.7601 41.3605 13.5003 41.0884 13.2158ZM58.9009 12.418C58.7277 12.8138 58.5731 13.1602 58.437 13.457C58.3009 13.7539 58.1834 14.0075 58.0845 14.2178C57.9731 14.4528 57.8804 14.6631 57.8062 14.8486C57.7443 14.9847 57.6639 15.1702 57.5649 15.4053C57.466 15.6156 57.3423 15.8939 57.1938 16.2402C57.0578 16.5742 56.8784 17.0072 56.6558 17.5391C56.5444 17.0814 56.4084 16.6794 56.2476 16.333C56.0868 15.9867 55.9136 15.6836 55.728 15.4238C55.5425 15.1641 55.3446 14.9538 55.1343 14.793C54.9364 14.6198 54.7384 14.4775 54.5405 14.3662C54.0828 14.1188 53.6004 13.9827 53.0933 13.958C52.4253 13.9951 51.8996 14.1064 51.5161 14.292C51.145 14.4652 50.8729 14.6693 50.6997 14.9043C50.5265 15.127 50.4338 15.362 50.4214 15.6094C50.409 15.8444 50.4399 16.0423 50.5142 16.2031C50.576 16.3516 50.7925 16.5247 51.1636 16.7227C51.547 16.9206 52.0047 17.1494 52.5366 17.4092C53.0809 17.6566 53.6623 17.9411 54.2808 18.2627C54.8993 18.5719 55.4683 18.9183 55.9878 19.3018C56.5197 19.6729 56.965 20.0811 57.3237 20.5264C57.6948 20.9593 57.8989 21.4232 57.936 21.918C57.9731 22.5488 57.967 23.1178 57.9175 23.625C57.868 24.1322 57.6948 24.5651 57.3979 24.9238C57.1011 25.2826 56.6372 25.5671 56.0063 25.7773C55.3879 25.9876 54.5282 26.1175 53.4272 26.167C52.2892 26.2165 51.3553 26.1546 50.6255 25.9814C49.8957 25.8083 49.3019 25.5732 48.8442 25.2764C48.3989 24.9795 48.0649 24.6517 47.8423 24.293C47.632 23.9342 47.4774 23.5941 47.3784 23.2725C47.2795 22.9385 47.2114 22.654 47.1743 22.4189C47.1372 22.1715 47.0754 22.0231 46.9888 21.9736C46.8898 21.9118 46.7909 21.8561 46.6919 21.8066C46.6053 21.7572 46.5125 21.7139 46.4136 21.6768C46.3146 21.6273 46.2157 21.584 46.1167 21.5469L51.5161 20.6748C51.2069 20.9222 50.9657 21.151 50.7925 21.3613C50.6317 21.5716 50.508 21.7572 50.4214 21.918C50.3224 22.1035 50.2544 22.2767 50.2173 22.4375C50.1925 22.6107 50.2482 22.8271 50.3843 23.0869C50.5203 23.3467 50.7059 23.6003 50.9409 23.8477C51.1883 24.0827 51.4728 24.2806 51.7944 24.4414C52.116 24.6022 52.45 24.6702 52.7964 24.6455C53.2293 24.6084 53.5819 24.5033 53.854 24.3301C54.1261 24.1445 54.3302 23.9157 54.4663 23.6436C54.6147 23.3714 54.7013 23.0745 54.7261 22.7529C54.7508 22.4313 54.7199 22.1159 54.6333 21.8066C54.5591 21.485 54.4354 21.1882 54.2622 20.916C54.089 20.6315 53.8849 20.3965 53.6499 20.2109C53.4396 20.0625 53.1118 19.9202 52.6665 19.7842C52.2336 19.6481 51.745 19.4997 51.2007 19.3389C50.6688 19.1781 50.1183 18.9925 49.5493 18.7822C48.9927 18.5719 48.4855 18.3122 48.0278 18.0029C47.5825 17.6937 47.2238 17.3288 46.9517 16.9082C46.6919 16.4876 46.5929 15.9805 46.6548 15.3867C46.7043 14.8796 46.8651 14.459 47.1372 14.125C47.4217 13.7786 47.7743 13.5065 48.1948 13.3086C48.6278 13.0983 49.104 12.9437 49.6235 12.8447C50.1554 12.7458 50.6935 12.6901 51.2378 12.6777C51.7944 12.653 52.3387 12.6592 52.8706 12.6963C53.4149 12.7334 53.9035 12.7767 54.3364 12.8262C54.7694 12.8757 55.1343 12.9251 55.4312 12.9746C55.7404 13.0117 55.9321 13.0365 56.0063 13.0488C56.328 13.0736 56.6496 13.0674 56.9712 13.0303C57.2557 13.0055 57.5649 12.9499 57.8989 12.8633C58.2453 12.7643 58.5793 12.6159 58.9009 12.418ZM64.4302 12.2881C64.8631 12.2881 65.2528 12.3623 65.5991 12.5107C65.9578 12.6468 66.2856 12.8014 66.5825 12.9746C66.8918 13.1478 67.1825 13.3086 67.4546 13.457C67.7267 13.5931 68.005 13.6611 68.2896 13.6611C68.5122 13.6488 68.7658 13.6178 69.0503 13.5684C69.2977 13.5189 69.5822 13.4447 69.9038 13.3457C70.2378 13.2344 70.6089 13.0736 71.0171 12.8633C70.6089 13.2591 70.2749 13.5931 70.0151 13.8652C69.7677 14.125 69.576 14.3415 69.4399 14.5146C69.2791 14.7126 69.1616 14.8672 69.0874 14.9785C69.0132 15.1146 68.9019 15.3187 68.7534 15.5908C68.6174 15.8382 68.4318 16.1722 68.1968 16.5928C67.9618 17.001 67.6649 17.5391 67.3062 18.207C67.3062 17.3535 67.2196 16.6917 67.0464 16.2217C66.8856 15.7516 66.7062 15.3929 66.5083 15.1455C66.2733 14.861 66.0073 14.6816 65.7104 14.6074C65.4383 14.5703 65.1662 14.6198 64.894 14.7559C64.6219 14.8796 64.3498 15.0651 64.0776 15.3125C63.8179 15.5599 63.5643 15.8568 63.3169 16.2031C63.0819 16.5371 62.8654 16.8896 62.6675 17.2607C62.4819 17.6318 62.3273 18.0091 62.2036 18.3926C62.0799 18.7637 61.9995 19.11 61.9624 19.4316C61.9253 19.7161 61.9191 20.0501 61.9438 20.4336C61.9686 20.8047 62.0243 21.1882 62.1108 21.584C62.1974 21.9674 62.3088 22.3447 62.4448 22.7158C62.5809 23.0869 62.7479 23.4209 62.9458 23.7178C63.1561 24.0023 63.3911 24.2373 63.6509 24.4229C63.9106 24.596 64.2075 24.6764 64.5415 24.6641C64.9126 24.6393 65.2775 24.528 65.6362 24.3301C65.9455 24.1693 66.2609 23.9219 66.5825 23.5879C66.9041 23.2415 67.1825 22.7529 67.4175 22.1221L70.1636 22.623C69.3719 23.5879 68.5988 24.3115 67.8442 24.7939C67.1021 25.2764 66.4341 25.6165 65.8403 25.8145C65.1476 26.0371 64.492 26.1423 63.8735 26.1299C63.0942 26.0433 62.3644 25.8083 61.6841 25.4248C61.0037 25.0413 60.4162 24.5775 59.9214 24.0332C59.439 23.4766 59.0617 22.8704 58.7896 22.2148C58.5174 21.5592 58.3999 20.916 58.437 20.2852C58.4618 19.8646 58.5483 19.376 58.6968 18.8193C58.8452 18.2503 59.0431 17.6689 59.2905 17.0752C59.5503 16.4814 59.8595 15.9001 60.2183 15.3311C60.577 14.762 60.9728 14.2549 61.4058 13.8096C61.8387 13.3519 62.3088 12.987 62.8159 12.7148C63.3354 12.4303 63.8735 12.2881 64.4302 12.2881Z" fill="#840B0B"/>
<path d="M25.8364 12.6963C26.2323 12.7087 26.5786 12.7148 26.8755 12.7148C27.1724 12.7025 27.4136 12.6963 27.5991 12.6963H28.1372C28.2733 12.6839 28.4403 12.6777 28.6382 12.6777C28.8114 12.6777 29.0216 12.6777 29.269 12.6777C29.5164 12.6777 29.8009 12.6839 30.1226 12.6963C30.2215 13.0426 30.3328 13.3828 30.4565 13.7168C30.5926 14.0384 30.7101 14.3291 30.8091 14.5889C30.9328 14.8981 31.0565 15.1888 31.1802 15.4609C31.3039 15.7331 31.4523 16.0609 31.6255 16.4443C31.7739 16.766 31.9533 17.1618 32.1636 17.6318C32.3739 18.0895 32.6213 18.6152 32.9058 19.209C33.0418 18.8255 33.1655 18.473 33.2769 18.1514C33.4006 17.8298 33.5057 17.5514 33.5923 17.3164C33.6912 17.0443 33.7716 16.7969 33.8335 16.5742C33.8953 16.3516 33.9634 16.0794 34.0376 15.7578C34.0994 15.4857 34.1675 15.1579 34.2417 14.7744C34.3283 14.391 34.4149 13.9456 34.5015 13.4385C34.8602 13.4385 35.1818 13.4385 35.4663 13.4385C35.7508 13.4385 35.9982 13.4323 36.2085 13.4199C36.4435 13.4199 36.6538 13.4137 36.8394 13.4014C37.0373 13.4014 37.3032 13.389 37.6372 13.3643C37.9217 13.3395 38.299 13.321 38.769 13.3086C39.2515 13.2839 39.8452 13.2529 40.5503 13.2158C40.2905 13.4014 40.0802 13.5869 39.9194 13.7725C39.771 13.9456 39.6535 14.1003 39.5669 14.2363C39.4679 14.3971 39.4061 14.5518 39.3813 14.7002C39.3566 14.8239 39.3319 15.1084 39.3071 15.5537C39.2948 15.999 39.2762 16.5309 39.2515 17.1494C39.2391 17.7555 39.2267 18.4049 39.2144 19.0977C39.2144 19.7904 39.2205 20.446 39.2329 21.0645C39.2453 21.6829 39.2638 22.221 39.2886 22.6787C39.3257 23.124 39.3752 23.4085 39.437 23.5322C39.5236 23.6807 39.6411 23.8538 39.7896 24.0518C39.9256 24.2249 40.0988 24.4229 40.3091 24.6455C40.5317 24.8682 40.8224 25.1156 41.1812 25.3877C40.6121 25.4124 40.1359 25.431 39.7524 25.4434C39.3813 25.4557 39.0721 25.4681 38.8247 25.4805C38.5402 25.4928 38.3114 25.499 38.1382 25.499C37.9526 25.499 37.6991 25.5052 37.3774 25.5176C37.0929 25.5299 36.7157 25.5485 36.2456 25.5732C35.7756 25.5856 35.1694 25.6104 34.4272 25.6475C34.6004 25.4495 34.7612 25.2516 34.9097 25.0537C35.0581 24.8558 35.1818 24.6764 35.2808 24.5156C35.4045 24.3301 35.5096 24.1507 35.5962 23.9775C35.6828 23.7425 35.7508 23.3158 35.8003 22.6973C35.8498 22.1654 35.8869 21.4046 35.9116 20.415C35.9364 19.4131 35.9364 18.071 35.9116 16.3887C35.6766 16.7721 35.4663 17.1556 35.2808 17.5391C35.1076 17.9102 34.953 18.2503 34.8169 18.5596C34.6685 18.9183 34.5324 19.2646 34.4087 19.5986C34.285 19.945 34.1551 20.3285 34.019 20.749C33.8953 21.1077 33.7469 21.5345 33.5737 22.0293C33.4129 22.5241 33.2274 23.0684 33.0171 23.6621L32.312 23.6992C32.2131 23.2044 32.1141 22.7591 32.0151 22.3633C31.9162 21.9551 31.8172 21.6087 31.7183 21.3242C31.6069 20.9902 31.4956 20.6934 31.3843 20.4336C31.2606 20.1738 31.1245 19.8831 30.9761 19.5615C30.84 19.2894 30.673 18.9678 30.4751 18.5967C30.2896 18.2256 30.0731 17.8112 29.8257 17.3535C29.702 18.6152 29.6278 19.6419 29.603 20.4336C29.5783 21.2129 29.5783 21.819 29.603 22.252C29.6278 22.7715 29.6649 23.1488 29.7144 23.3838C29.7886 23.5941 29.9061 23.8291 30.0669 24.0889C30.203 24.3115 30.3885 24.5775 30.6235 24.8867C30.8709 25.1836 31.1864 25.5176 31.5698 25.8887C31.2977 25.8887 31.0132 25.8887 30.7163 25.8887C30.4194 25.8887 30.1473 25.8949 29.8999 25.9072C29.603 25.9196 29.3123 25.9258 29.0278 25.9258C28.731 25.9382 28.3846 25.9567 27.9888 25.9814C27.6424 26.0062 27.228 26.0309 26.7456 26.0557C26.2632 26.0804 25.7065 26.1237 25.0757 26.1855C25.3478 26.0124 25.5705 25.8454 25.7437 25.6846C25.9168 25.5114 26.0529 25.3568 26.1519 25.2207C26.2756 25.0599 26.3683 24.8991 26.4302 24.7383C26.4673 24.6393 26.4982 24.4229 26.5229 24.0889C26.5601 23.7549 26.591 23.3467 26.6157 22.8643C26.6528 22.3818 26.6776 21.8438 26.6899 21.25C26.7147 20.6562 26.7332 20.0563 26.7456 19.4502C26.7703 18.8317 26.7889 18.2318 26.8013 17.6504C26.8136 17.0566 26.8198 16.5247 26.8198 16.0547C26.8322 15.5723 26.8384 15.1702 26.8384 14.8486C26.8384 14.527 26.8384 14.3229 26.8384 14.2363C26.8013 14.0508 26.7456 13.8652 26.6714 13.6797C26.6095 13.5189 26.5106 13.3519 26.3745 13.1787C26.2384 13.0055 26.0591 12.8447 25.8364 12.6963ZM41.0884 13.2158C41.509 13.2653 41.8615 13.3024 42.146 13.3271C42.4429 13.3395 42.6841 13.3581 42.8696 13.3828C43.0923 13.4076 43.2655 13.4199 43.3892 13.4199C43.5252 13.4323 43.7293 13.4261 44.0015 13.4014C44.2365 13.3766 44.5519 13.3457 44.9478 13.3086C45.356 13.2715 45.8755 13.2158 46.5063 13.1416C46.2218 13.389 45.993 13.6302 45.8198 13.8652C45.659 14.0879 45.5353 14.2858 45.4487 14.459C45.3374 14.6693 45.2694 14.8672 45.2446 15.0527C45.1951 15.3496 45.1519 15.7578 45.1147 16.2773C45.09 16.7845 45.0653 17.3411 45.0405 17.9473C45.0158 18.5534 45.0034 19.1781 45.0034 19.8213C45.0034 20.4645 45.0096 21.0768 45.022 21.6582C45.0467 22.2272 45.0838 22.7344 45.1333 23.1797C45.1951 23.625 45.2694 23.9466 45.356 24.1445C45.4797 24.3672 45.6095 24.5898 45.7456 24.8125C45.8693 24.998 46.0177 25.1898 46.1909 25.3877C46.3641 25.5856 46.562 25.7464 46.7847 25.8701C46.0549 25.833 45.4735 25.8145 45.0405 25.8145H44.3726C44.1746 25.8145 43.9211 25.8268 43.6118 25.8516C43.3521 25.8763 43.0243 25.901 42.6284 25.9258C42.2326 25.9505 41.7563 25.9876 41.1997 26.0371C41.4842 25.7279 41.7069 25.431 41.8677 25.1465C42.0285 24.862 42.1584 24.6146 42.2573 24.4043C42.3687 24.1569 42.4429 23.9219 42.48 23.6992C42.5295 23.3776 42.5666 22.9818 42.5913 22.5117C42.6284 22.0293 42.6532 21.516 42.6655 20.9717C42.6779 20.415 42.6779 19.8522 42.6655 19.2832C42.6655 18.7018 42.6532 18.1452 42.6284 17.6133C42.6037 17.0814 42.5666 16.599 42.5171 16.166C42.48 15.7331 42.4305 15.3867 42.3687 15.127C42.3315 14.9661 42.2573 14.7868 42.146 14.5889C42.047 14.4157 41.911 14.2178 41.7378 13.9951C41.577 13.7601 41.3605 13.5003 41.0884 13.2158ZM58.9009 12.418C58.7277 12.8138 58.5731 13.1602 58.437 13.457C58.3009 13.7539 58.1834 14.0075 58.0845 14.2178C57.9731 14.4528 57.8804 14.6631 57.8062 14.8486C57.7443 14.9847 57.6639 15.1702 57.5649 15.4053C57.466 15.6156 57.3423 15.8939 57.1938 16.2402C57.0578 16.5742 56.8784 17.0072 56.6558 17.5391C56.5444 17.0814 56.4084 16.6794 56.2476 16.333C56.0868 15.9867 55.9136 15.6836 55.728 15.4238C55.5425 15.1641 55.3446 14.9538 55.1343 14.793C54.9364 14.6198 54.7384 14.4775 54.5405 14.3662C54.0828 14.1188 53.6004 13.9827 53.0933 13.958C52.4253 13.9951 51.8996 14.1064 51.5161 14.292C51.145 14.4652 50.8729 14.6693 50.6997 14.9043C50.5265 15.127 50.4338 15.362 50.4214 15.6094C50.409 15.8444 50.4399 16.0423 50.5142 16.2031C50.576 16.3516 50.7925 16.5247 51.1636 16.7227C51.547 16.9206 52.0047 17.1494 52.5366 17.4092C53.0809 17.6566 53.6623 17.9411 54.2808 18.2627C54.8993 18.5719 55.4683 18.9183 55.9878 19.3018C56.5197 19.6729 56.965 20.0811 57.3237 20.5264C57.6948 20.9593 57.8989 21.4232 57.936 21.918C57.9731 22.5488 57.967 23.1178 57.9175 23.625C57.868 24.1322 57.6948 24.5651 57.3979 24.9238C57.1011 25.2826 56.6372 25.5671 56.0063 25.7773C55.3879 25.9876 54.5282 26.1175 53.4272 26.167C52.2892 26.2165 51.3553 26.1546 50.6255 25.9814C49.8957 25.8083 49.3019 25.5732 48.8442 25.2764C48.3989 24.9795 48.0649 24.6517 47.8423 24.293C47.632 23.9342 47.4774 23.5941 47.3784 23.2725C47.2795 22.9385 47.2114 22.654 47.1743 22.4189C47.1372 22.1715 47.0754 22.0231 46.9888 21.9736C46.8898 21.9118 46.7909 21.8561 46.6919 21.8066C46.6053 21.7572 46.5125 21.7139 46.4136 21.6768C46.3146 21.6273 46.2157 21.584 46.1167 21.5469L51.5161 20.6748C51.2069 20.9222 50.9657 21.151 50.7925 21.3613C50.6317 21.5716 50.508 21.7572 50.4214 21.918C50.3224 22.1035 50.2544 22.2767 50.2173 22.4375C50.1925 22.6107 50.2482 22.8271 50.3843 23.0869C50.5203 23.3467 50.7059 23.6003 50.9409 23.8477C51.1883 24.0827 51.4728 24.2806 51.7944 24.4414C52.116 24.6022 52.45 24.6702 52.7964 24.6455C53.2293 24.6084 53.5819 24.5033 53.854 24.3301C54.1261 24.1445 54.3302 23.9157 54.4663 23.6436C54.6147 23.3714 54.7013 23.0745 54.7261 22.7529C54.7508 22.4313 54.7199 22.1159 54.6333 21.8066C54.5591 21.485 54.4354 21.1882 54.2622 20.916C54.089 20.6315 53.8849 20.3965 53.6499 20.2109C53.4396 20.0625 53.1118 19.9202 52.6665 19.7842C52.2336 19.6481 51.745 19.4997 51.2007 19.3389C50.6688 19.1781 50.1183 18.9925 49.5493 18.7822C48.9927 18.5719 48.4855 18.3122 48.0278 18.0029C47.5825 17.6937 47.2238 17.3288 46.9517 16.9082C46.6919 16.4876 46.5929 15.9805 46.6548 15.3867C46.7043 14.8796 46.8651 14.459 47.1372 14.125C47.4217 13.7786 47.7743 13.5065 48.1948 13.3086C48.6278 13.0983 49.104 12.9437 49.6235 12.8447C50.1554 12.7458 50.6935 12.6901 51.2378 12.6777C51.7944 12.653 52.3387 12.6592 52.8706 12.6963C53.4149 12.7334 53.9035 12.7767 54.3364 12.8262C54.7694 12.8757 55.1343 12.9251 55.4312 12.9746C55.7404 13.0117 55.9321 13.0365 56.0063 13.0488C56.328 13.0736 56.6496 13.0674 56.9712 13.0303C57.2557 13.0055 57.5649 12.9499 57.8989 12.8633C58.2453 12.7643 58.5793 12.6159 58.9009 12.418ZM64.4302 12.2881C64.8631 12.2881 65.2528 12.3623 65.5991 12.5107C65.9578 12.6468 66.2856 12.8014 66.5825 12.9746C66.8918 13.1478 67.1825 13.3086 67.4546 13.457C67.7267 13.5931 68.005 13.6611 68.2896 13.6611C68.5122 13.6488 68.7658 13.6178 69.0503 13.5684C69.2977 13.5189 69.5822 13.4447 69.9038 13.3457C70.2378 13.2344 70.6089 13.0736 71.0171 12.8633C70.6089 13.2591 70.2749 13.5931 70.0151 13.8652C69.7677 14.125 69.576 14.3415 69.4399 14.5146C69.2791 14.7126 69.1616 14.8672 69.0874 14.9785C69.0132 15.1146 68.9019 15.3187 68.7534 15.5908C68.6174 15.8382 68.4318 16.1722 68.1968 16.5928C67.9618 17.001 67.6649 17.5391 67.3062 18.207C67.3062 17.3535 67.2196 16.6917 67.0464 16.2217C66.8856 15.7516 66.7062 15.3929 66.5083 15.1455C66.2733 14.861 66.0073 14.6816 65.7104 14.6074C65.4383 14.5703 65.1662 14.6198 64.894 14.7559C64.6219 14.8796 64.3498 15.0651 64.0776 15.3125C63.8179 15.5599 63.5643 15.8568 63.3169 16.2031C63.0819 16.5371 62.8654 16.8896 62.6675 17.2607C62.4819 17.6318 62.3273 18.0091 62.2036 18.3926C62.0799 18.7637 61.9995 19.11 61.9624 19.4316C61.9253 19.7161 61.9191 20.0501 61.9438 20.4336C61.9686 20.8047 62.0243 21.1882 62.1108 21.584C62.1974 21.9674 62.3088 22.3447 62.4448 22.7158C62.5809 23.0869 62.7479 23.4209 62.9458 23.7178C63.1561 24.0023 63.3911 24.2373 63.6509 24.4229C63.9106 24.596 64.2075 24.6764 64.5415 24.6641C64.9126 24.6393 65.2775 24.528 65.6362 24.3301C65.9455 24.1693 66.2609 23.9219 66.5825 23.5879C66.9041 23.2415 67.1825 22.7529 67.4175 22.1221L70.1636 22.623C69.3719 23.5879 68.5988 24.3115 67.8442 24.7939C67.1021 25.2764 66.4341 25.6165 65.8403 25.8145C65.1476 26.0371 64.492 26.1423 63.8735 26.1299C63.0942 26.0433 62.3644 25.8083 61.6841 25.4248C61.0037 25.0413 60.4162 24.5775 59.9214 24.0332C59.439 23.4766 59.0617 22.8704 58.7896 22.2148C58.5174 21.5592 58.3999 20.916 58.437 20.2852C58.4618 19.8646 58.5483 19.376 58.6968 18.8193C58.8452 18.2503 59.0431 17.6689 59.2905 17.0752C59.5503 16.4814 59.8595 15.9001 60.2183 15.3311C60.577 14.762 60.9728 14.2549 61.4058 13.8096C61.8387 13.3519 62.3088 12.987 62.8159 12.7148C63.3354 12.4303 63.8735 12.2881 64.4302 12.2881Z" fill="url(#paint1_linear_391_2070)"/>
<defs>
<linearGradient id="paint0_linear_391_2070" x1="4" y1="19.0968" x2="92.0028" y2="17.4552" gradientUnits="userSpaceOnUse">
<stop stop-opacity="0"/>
<stop offset="0.495"/>
<stop offset="1" stop-opacity="0"/>
</linearGradient>
<linearGradient id="paint1_linear_391_2070" x1="0" y1="16" x2="96" y2="16" gradientUnits="userSpaceOnUse">
<stop offset="0.0659998" stop-opacity="0.18"/>
<stop offset="0.261" stop-opacity="0.7"/>
<stop offset="0.526" stop-opacity="0.09"/>
<stop offset="0.826" stop-opacity="0.7"/>
<stop offset="1" stop-opacity="0"/>
</linearGradient>
</defs>
</svg>
