<svg width="96" height="37" viewBox="0 0 96 37" fill="none" xmlns="http://www.w3.org/2000/svg">
<mask id="path-1-inside-1_391_2062" fill="white">
<path d="M4 10C4 4.47715 8.47715 0 14 0H82C87.5229 0 92 4.47715 92 10V27C92 32.5228 87.5229 37 82 37H14C8.47715 37 4 32.5228 4 27V10Z"/>
</mask>
<path d="M4 10C4 2.8203 9.8203 -3 17 -3H79C86.1797 -3 92 2.8203 92 10C92 6.13401 87.5229 3 82 3H14C8.47715 3 4 6.13401 4 10ZM92 27C92 34.1797 86.1797 40 79 40H17C9.8203 40 4 34.1797 4 27C4 30.866 8.47715 34 14 34H82C87.5229 34 92 30.866 92 27ZM4 37V0V37ZM92 0V37V0Z" fill="#840B0B" mask="url(#path-1-inside-1_391_2062)"/>
<path d="M4 10C4 2.8203 9.8203 -3 17 -3H79C86.1797 -3 92 2.8203 92 10C92 6.13401 87.5229 3 82 3H14C8.47715 3 4 6.13401 4 10ZM92 27C92 34.1797 86.1797 40 79 40H17C9.8203 40 4 34.1797 4 27C4 30.866 8.47715 34 14 34H82C87.5229 34 92 30.866 92 27ZM4 37V0V37ZM92 0V37V0Z" fill="url(#paint0_linear_391_2062)" mask="url(#path-1-inside-1_391_2062)"/>
<path d="M27.8496 12.7148C28.3197 12.8262 28.7402 12.9128 29.1113 12.9746C29.4948 13.0241 29.8164 13.0612 30.0762 13.0859C30.3854 13.123 30.6576 13.1354 30.8926 13.123C31.1895 13.1107 31.5605 13.0674 32.0059 12.9932C32.4512 12.9189 32.9212 12.8447 33.416 12.7705C33.9108 12.6963 34.3994 12.6344 34.8818 12.585C35.3643 12.5355 35.7848 12.5293 36.1436 12.5664C36.5023 12.6035 36.8796 12.6901 37.2754 12.8262C37.6712 12.9499 38.0423 13.123 38.3887 13.3457C38.735 13.556 39.0319 13.8158 39.2793 14.125C39.5391 14.4342 39.6999 14.793 39.7617 15.2012C39.8236 15.597 39.7865 16.0238 39.6504 16.4814C39.5143 16.9268 39.2979 17.3659 39.001 17.7988C38.7041 18.2194 38.333 18.609 37.8877 18.9678C37.4424 19.3265 36.9476 19.6172 36.4033 19.8398C35.9704 20.0007 35.5003 20.1243 34.9932 20.2109C34.5602 20.2852 34.0531 20.3346 33.4717 20.3594C32.9027 20.3717 32.2965 20.3099 31.6533 20.1738C31.5667 20.5326 31.5173 20.8665 31.5049 21.1758C31.5049 21.4727 31.5173 21.7386 31.542 21.9736C31.5791 22.2458 31.6286 22.4932 31.6904 22.7158C31.7646 22.9385 31.8574 23.1982 31.9688 23.4951C32.0677 23.7425 32.179 24.0456 32.3027 24.4043C32.4388 24.7507 32.5996 25.1403 32.7852 25.5732C32.5625 25.5732 32.346 25.5794 32.1357 25.5918C31.9255 25.5918 31.7337 25.598 31.5605 25.6104C31.3626 25.6227 31.1771 25.6351 31.0039 25.6475C30.806 25.6598 30.5833 25.6846 30.3359 25.7217C30.1257 25.7464 29.8597 25.7835 29.5381 25.833C29.2288 25.8825 28.8763 25.9443 28.4805 26.0186C28.7402 25.6475 28.9443 25.3073 29.0928 24.998C29.2536 24.6764 29.3711 24.3981 29.4453 24.1631C29.5319 23.891 29.5876 23.6436 29.6123 23.4209C29.6247 23.2354 29.6247 22.9076 29.6123 22.4375C29.6123 21.9674 29.6061 21.4232 29.5938 20.8047C29.5814 20.1862 29.5628 19.5368 29.5381 18.8564C29.5133 18.1761 29.4824 17.5391 29.4453 16.9453C29.4082 16.3392 29.3649 15.8197 29.3154 15.3867C29.2783 14.9538 29.2412 14.6693 29.2041 14.5332C29.1546 14.3724 29.068 14.1992 28.9443 14.0137C28.8454 13.8529 28.7031 13.6673 28.5176 13.457C28.3444 13.2344 28.1217 12.987 27.8496 12.7148ZM31.6904 16.3701C31.6781 16.4938 31.6719 16.6237 31.6719 16.7598C31.6719 17.0195 31.6904 17.3535 31.7275 17.7617C31.8141 17.972 31.9193 18.1452 32.043 18.2812C32.179 18.4173 32.3213 18.5225 32.4697 18.5967C32.6305 18.6709 32.7913 18.7204 32.9521 18.7451C33.113 18.7699 33.2738 18.7822 33.4346 18.7822C33.8057 18.7699 34.1953 18.6833 34.6035 18.5225C35.1478 18.2874 35.5312 17.9535 35.7539 17.5205C35.9766 17.0876 36.0941 16.6423 36.1064 16.1846C36.1188 15.7269 36.0384 15.3063 35.8652 14.9229C35.7044 14.5394 35.5065 14.2796 35.2715 14.1436C35.0736 14.057 34.82 14.0199 34.5107 14.0322C34.2386 14.0446 33.8984 14.1126 33.4902 14.2363C33.082 14.36 32.5811 14.5827 31.9873 14.9043C31.9255 15.127 31.876 15.3249 31.8389 15.498C31.8018 15.6712 31.7708 15.8258 31.7461 15.9619C31.7214 16.1104 31.7028 16.2464 31.6904 16.3701ZM39.2051 12.9561C39.6133 13.0055 39.9844 13.0426 40.3184 13.0674C40.64 13.0921 40.9183 13.1169 41.1533 13.1416C41.4255 13.1663 41.6667 13.1849 41.877 13.1973C42.0996 13.1973 42.3841 13.1911 42.7305 13.1787C43.0273 13.1663 43.4046 13.1478 43.8623 13.123C44.32 13.0983 44.8828 13.055 45.5508 12.9932C45.2292 13.1787 44.9632 13.3643 44.7529 13.5498C44.555 13.7354 44.4004 13.9023 44.2891 14.0508C44.153 14.224 44.054 14.3971 43.9922 14.5703C43.9551 14.8053 43.9674 15.263 44.0293 15.9434C44.054 16.2279 44.0911 16.5804 44.1406 17.001C44.2025 17.4092 44.2767 17.8978 44.3633 18.4668C44.4622 19.0234 44.5798 19.6667 44.7158 20.3965C44.8643 21.1263 45.0312 21.9551 45.2168 22.8828C45.4642 22.1777 45.6683 21.5531 45.8291 21.0088C45.9899 20.4521 46.126 19.9759 46.2373 19.5801C46.361 19.1348 46.4661 18.7389 46.5527 18.3926C46.6393 18.0339 46.7445 17.57 46.8682 17.001C46.9671 16.5186 47.097 15.8939 47.2578 15.127C47.4186 14.36 47.6165 13.4137 47.8516 12.2881L48.5195 12.3809C48.5814 13.2591 48.6432 14.0322 48.7051 14.7002C48.7793 15.3682 48.8411 15.9372 48.8906 16.4072C48.9401 16.9515 48.9896 17.4215 49.0391 17.8174C49.0885 18.1761 49.1628 18.5905 49.2617 19.0605C49.3483 19.4564 49.4596 19.945 49.5957 20.5264C49.7318 21.0954 49.9111 21.7386 50.1338 22.4561C50.3564 21.5778 50.5544 20.7923 50.7275 20.0996C50.9131 19.4069 51.0677 18.7946 51.1914 18.2627C51.3275 17.7308 51.4388 17.2731 51.5254 16.8896C51.6243 16.5062 51.7048 16.1846 51.7666 15.9248C51.9027 15.3063 51.9831 14.8919 52.0078 14.6816C51.9954 14.4466 51.9398 14.2178 51.8408 13.9951C51.7542 13.7972 51.6182 13.5807 51.4326 13.3457C51.2471 13.1107 50.9749 12.8818 50.6162 12.6592C51.3708 12.6839 51.9831 12.7025 52.4531 12.7148C52.9355 12.7148 53.319 12.7148 53.6035 12.7148H54.3457H55.0137C55.2611 12.7148 55.5827 12.7148 55.9785 12.7148C56.3867 12.7025 56.9062 12.6839 57.5371 12.6592C56.9928 12.9437 56.5537 13.2035 56.2197 13.4385C55.8857 13.6735 55.626 13.8714 55.4404 14.0322C55.2178 14.2301 55.057 14.3971 54.958 14.5332C54.859 14.7806 54.6982 15.3372 54.4756 16.2031C54.3766 16.5742 54.2653 17.0381 54.1416 17.5947C54.0179 18.139 53.8695 18.7946 53.6963 19.5615C53.5355 20.3285 53.3499 21.2253 53.1396 22.252C52.9294 23.2663 52.6943 24.429 52.4346 25.7402L49.2246 25.4062L47.8516 19.6357C47.6413 20.6872 47.4743 21.5407 47.3506 22.1963C47.2269 22.8395 47.1341 23.3405 47.0723 23.6992C46.998 24.1322 46.9548 24.4476 46.9424 24.6455C46.93 24.8187 46.9176 24.9857 46.9053 25.1465C46.8929 25.2826 46.8743 25.431 46.8496 25.5918C46.8372 25.7526 46.8187 25.901 46.7939 26.0371H43.5098C43.1882 24.627 42.8975 23.3838 42.6377 22.3076C42.3903 21.2191 42.1676 20.2666 41.9697 19.4502C41.7718 18.6338 41.5986 17.9411 41.4502 17.3721C41.3141 16.8031 41.1904 16.3268 41.0791 15.9434C40.8317 15.0527 40.6523 14.5023 40.541 14.292C40.4544 14.193 40.3431 14.0755 40.207 13.9395C40.0957 13.8281 39.9596 13.6921 39.7988 13.5312C39.6257 13.3581 39.4277 13.1663 39.2051 12.9561ZM55.1621 12.8447C55.7188 12.9437 56.1764 13.0117 56.5352 13.0488C56.8939 13.0859 57.1846 13.1169 57.4072 13.1416C57.667 13.1663 57.8711 13.1725 58.0195 13.1602H58.5762C58.7741 13.1602 59.0215 13.1602 59.3184 13.1602C59.6276 13.1478 60.0111 13.1416 60.4688 13.1416C60.7285 13.7477 60.9635 14.3044 61.1738 14.8115C61.3965 15.3187 61.582 15.7516 61.7305 16.1104C61.9036 16.5433 62.0645 16.9329 62.2129 17.2793C62.3861 17.7122 62.5716 18.1885 62.7695 18.708C62.9674 19.2275 63.1468 19.7161 63.3076 20.1738C63.4808 20.6315 63.623 21.0088 63.7344 21.3057C63.8457 21.6025 63.9014 21.7386 63.9014 21.7139C63.9014 21.7015 63.9076 21.5778 63.9199 21.3428C63.9323 21.0954 63.9447 20.7923 63.957 20.4336C63.9694 20.0625 63.9818 19.6605 63.9941 19.2275C64.0189 18.7822 64.0312 18.3555 64.0312 17.9473C64.0436 17.5267 64.0498 17.1432 64.0498 16.7969C64.0498 16.4505 64.0374 16.1908 64.0127 16.0176C63.9756 15.8073 63.9014 15.5661 63.79 15.2939C63.6911 15.0589 63.555 14.7806 63.3818 14.459C63.2087 14.125 62.9674 13.7477 62.6582 13.3271C63.1654 13.3395 63.5798 13.3457 63.9014 13.3457C64.223 13.3457 64.4827 13.3457 64.6807 13.3457C64.9033 13.3457 65.0765 13.3395 65.2002 13.3271C65.361 13.3271 65.5589 13.3148 65.7939 13.29C66.0042 13.2653 66.264 13.2467 66.5732 13.2344C66.8949 13.2096 67.2907 13.1787 67.7607 13.1416C67.4886 13.389 67.2721 13.624 67.1113 13.8467C66.9505 14.0693 66.8206 14.2673 66.7217 14.4404C66.6104 14.6383 66.5361 14.8239 66.499 14.9971C66.4495 15.2197 66.4062 15.5846 66.3691 16.0918C66.3444 16.5866 66.3135 17.1432 66.2764 17.7617C66.2516 18.3802 66.2269 19.0234 66.2021 19.6914C66.1774 20.3594 66.1527 20.9717 66.1279 21.5283C66.1279 21.9489 66.1156 22.4004 66.0908 22.8828C66.0661 23.291 66.0413 23.7549 66.0166 24.2744C65.9919 24.7816 65.9609 25.2949 65.9238 25.8145L64.2725 25.8516C63.79 24.998 63.3818 24.2682 63.0479 23.6621C62.7262 23.0436 62.4603 22.5365 62.25 22.1406C62.015 21.6829 61.8171 21.2995 61.6562 20.9902C61.5202 20.6934 61.3408 20.3532 61.1182 19.9697C60.9326 19.6481 60.6976 19.2523 60.4131 18.7822C60.141 18.3122 59.8132 17.7741 59.4297 17.168C59.3926 18.0215 59.374 18.7513 59.374 19.3574C59.3864 19.9512 59.4049 20.446 59.4297 20.8418C59.4668 21.2995 59.5101 21.6829 59.5596 21.9922C59.6214 22.2891 59.708 22.623 59.8193 22.9941C59.9183 23.3158 60.0358 23.693 60.1719 24.126C60.3203 24.5589 60.4997 25.0475 60.71 25.5918C59.9801 25.5547 59.4359 25.5361 59.0771 25.5361H58.5205C58.3473 25.5361 58.1123 25.5547 57.8154 25.5918C57.568 25.6165 57.2279 25.6536 56.7949 25.7031C56.3743 25.7526 55.8486 25.8206 55.2178 25.9072C55.5146 25.5485 55.7497 25.2207 55.9229 24.9238C56.1084 24.6146 56.2507 24.3548 56.3496 24.1445C56.4733 23.8971 56.5599 23.6807 56.6094 23.4951C56.6465 23.2972 56.6712 22.957 56.6836 22.4746C56.696 21.9798 56.696 21.4232 56.6836 20.8047C56.6836 20.1738 56.6712 19.512 56.6465 18.8193C56.6341 18.1266 56.6156 17.4834 56.5908 16.8896C56.5661 16.2959 56.5352 15.7887 56.498 15.3682C56.4733 14.9476 56.4548 14.6878 56.4424 14.5889C56.4053 14.4281 56.3311 14.2549 56.2197 14.0693C56.1208 13.9085 55.9909 13.7292 55.8301 13.5312C55.6693 13.321 55.4466 13.0921 55.1621 12.8447Z" fill="#840B0B"/>
<path d="M27.8496 12.7148C28.3197 12.8262 28.7402 12.9128 29.1113 12.9746C29.4948 13.0241 29.8164 13.0612 30.0762 13.0859C30.3854 13.123 30.6576 13.1354 30.8926 13.123C31.1895 13.1107 31.5605 13.0674 32.0059 12.9932C32.4512 12.9189 32.9212 12.8447 33.416 12.7705C33.9108 12.6963 34.3994 12.6344 34.8818 12.585C35.3643 12.5355 35.7848 12.5293 36.1436 12.5664C36.5023 12.6035 36.8796 12.6901 37.2754 12.8262C37.6712 12.9499 38.0423 13.123 38.3887 13.3457C38.735 13.556 39.0319 13.8158 39.2793 14.125C39.5391 14.4342 39.6999 14.793 39.7617 15.2012C39.8236 15.597 39.7865 16.0238 39.6504 16.4814C39.5143 16.9268 39.2979 17.3659 39.001 17.7988C38.7041 18.2194 38.333 18.609 37.8877 18.9678C37.4424 19.3265 36.9476 19.6172 36.4033 19.8398C35.9704 20.0007 35.5003 20.1243 34.9932 20.2109C34.5602 20.2852 34.0531 20.3346 33.4717 20.3594C32.9027 20.3717 32.2965 20.3099 31.6533 20.1738C31.5667 20.5326 31.5173 20.8665 31.5049 21.1758C31.5049 21.4727 31.5173 21.7386 31.542 21.9736C31.5791 22.2458 31.6286 22.4932 31.6904 22.7158C31.7646 22.9385 31.8574 23.1982 31.9688 23.4951C32.0677 23.7425 32.179 24.0456 32.3027 24.4043C32.4388 24.7507 32.5996 25.1403 32.7852 25.5732C32.5625 25.5732 32.346 25.5794 32.1357 25.5918C31.9255 25.5918 31.7337 25.598 31.5605 25.6104C31.3626 25.6227 31.1771 25.6351 31.0039 25.6475C30.806 25.6598 30.5833 25.6846 30.3359 25.7217C30.1257 25.7464 29.8597 25.7835 29.5381 25.833C29.2288 25.8825 28.8763 25.9443 28.4805 26.0186C28.7402 25.6475 28.9443 25.3073 29.0928 24.998C29.2536 24.6764 29.3711 24.3981 29.4453 24.1631C29.5319 23.891 29.5876 23.6436 29.6123 23.4209C29.6247 23.2354 29.6247 22.9076 29.6123 22.4375C29.6123 21.9674 29.6061 21.4232 29.5938 20.8047C29.5814 20.1862 29.5628 19.5368 29.5381 18.8564C29.5133 18.1761 29.4824 17.5391 29.4453 16.9453C29.4082 16.3392 29.3649 15.8197 29.3154 15.3867C29.2783 14.9538 29.2412 14.6693 29.2041 14.5332C29.1546 14.3724 29.068 14.1992 28.9443 14.0137C28.8454 13.8529 28.7031 13.6673 28.5176 13.457C28.3444 13.2344 28.1217 12.987 27.8496 12.7148ZM31.6904 16.3701C31.6781 16.4938 31.6719 16.6237 31.6719 16.7598C31.6719 17.0195 31.6904 17.3535 31.7275 17.7617C31.8141 17.972 31.9193 18.1452 32.043 18.2812C32.179 18.4173 32.3213 18.5225 32.4697 18.5967C32.6305 18.6709 32.7913 18.7204 32.9521 18.7451C33.113 18.7699 33.2738 18.7822 33.4346 18.7822C33.8057 18.7699 34.1953 18.6833 34.6035 18.5225C35.1478 18.2874 35.5312 17.9535 35.7539 17.5205C35.9766 17.0876 36.0941 16.6423 36.1064 16.1846C36.1188 15.7269 36.0384 15.3063 35.8652 14.9229C35.7044 14.5394 35.5065 14.2796 35.2715 14.1436C35.0736 14.057 34.82 14.0199 34.5107 14.0322C34.2386 14.0446 33.8984 14.1126 33.4902 14.2363C33.082 14.36 32.5811 14.5827 31.9873 14.9043C31.9255 15.127 31.876 15.3249 31.8389 15.498C31.8018 15.6712 31.7708 15.8258 31.7461 15.9619C31.7214 16.1104 31.7028 16.2464 31.6904 16.3701ZM39.2051 12.9561C39.6133 13.0055 39.9844 13.0426 40.3184 13.0674C40.64 13.0921 40.9183 13.1169 41.1533 13.1416C41.4255 13.1663 41.6667 13.1849 41.877 13.1973C42.0996 13.1973 42.3841 13.1911 42.7305 13.1787C43.0273 13.1663 43.4046 13.1478 43.8623 13.123C44.32 13.0983 44.8828 13.055 45.5508 12.9932C45.2292 13.1787 44.9632 13.3643 44.7529 13.5498C44.555 13.7354 44.4004 13.9023 44.2891 14.0508C44.153 14.224 44.054 14.3971 43.9922 14.5703C43.9551 14.8053 43.9674 15.263 44.0293 15.9434C44.054 16.2279 44.0911 16.5804 44.1406 17.001C44.2025 17.4092 44.2767 17.8978 44.3633 18.4668C44.4622 19.0234 44.5798 19.6667 44.7158 20.3965C44.8643 21.1263 45.0312 21.9551 45.2168 22.8828C45.4642 22.1777 45.6683 21.5531 45.8291 21.0088C45.9899 20.4521 46.126 19.9759 46.2373 19.5801C46.361 19.1348 46.4661 18.7389 46.5527 18.3926C46.6393 18.0339 46.7445 17.57 46.8682 17.001C46.9671 16.5186 47.097 15.8939 47.2578 15.127C47.4186 14.36 47.6165 13.4137 47.8516 12.2881L48.5195 12.3809C48.5814 13.2591 48.6432 14.0322 48.7051 14.7002C48.7793 15.3682 48.8411 15.9372 48.8906 16.4072C48.9401 16.9515 48.9896 17.4215 49.0391 17.8174C49.0885 18.1761 49.1628 18.5905 49.2617 19.0605C49.3483 19.4564 49.4596 19.945 49.5957 20.5264C49.7318 21.0954 49.9111 21.7386 50.1338 22.4561C50.3564 21.5778 50.5544 20.7923 50.7275 20.0996C50.9131 19.4069 51.0677 18.7946 51.1914 18.2627C51.3275 17.7308 51.4388 17.2731 51.5254 16.8896C51.6243 16.5062 51.7048 16.1846 51.7666 15.9248C51.9027 15.3063 51.9831 14.8919 52.0078 14.6816C51.9954 14.4466 51.9398 14.2178 51.8408 13.9951C51.7542 13.7972 51.6182 13.5807 51.4326 13.3457C51.2471 13.1107 50.9749 12.8818 50.6162 12.6592C51.3708 12.6839 51.9831 12.7025 52.4531 12.7148C52.9355 12.7148 53.319 12.7148 53.6035 12.7148H54.3457H55.0137C55.2611 12.7148 55.5827 12.7148 55.9785 12.7148C56.3867 12.7025 56.9062 12.6839 57.5371 12.6592C56.9928 12.9437 56.5537 13.2035 56.2197 13.4385C55.8857 13.6735 55.626 13.8714 55.4404 14.0322C55.2178 14.2301 55.057 14.3971 54.958 14.5332C54.859 14.7806 54.6982 15.3372 54.4756 16.2031C54.3766 16.5742 54.2653 17.0381 54.1416 17.5947C54.0179 18.139 53.8695 18.7946 53.6963 19.5615C53.5355 20.3285 53.3499 21.2253 53.1396 22.252C52.9294 23.2663 52.6943 24.429 52.4346 25.7402L49.2246 25.4062L47.8516 19.6357C47.6413 20.6872 47.4743 21.5407 47.3506 22.1963C47.2269 22.8395 47.1341 23.3405 47.0723 23.6992C46.998 24.1322 46.9548 24.4476 46.9424 24.6455C46.93 24.8187 46.9176 24.9857 46.9053 25.1465C46.8929 25.2826 46.8743 25.431 46.8496 25.5918C46.8372 25.7526 46.8187 25.901 46.7939 26.0371H43.5098C43.1882 24.627 42.8975 23.3838 42.6377 22.3076C42.3903 21.2191 42.1676 20.2666 41.9697 19.4502C41.7718 18.6338 41.5986 17.9411 41.4502 17.3721C41.3141 16.8031 41.1904 16.3268 41.0791 15.9434C40.8317 15.0527 40.6523 14.5023 40.541 14.292C40.4544 14.193 40.3431 14.0755 40.207 13.9395C40.0957 13.8281 39.9596 13.6921 39.7988 13.5312C39.6257 13.3581 39.4277 13.1663 39.2051 12.9561ZM55.1621 12.8447C55.7188 12.9437 56.1764 13.0117 56.5352 13.0488C56.8939 13.0859 57.1846 13.1169 57.4072 13.1416C57.667 13.1663 57.8711 13.1725 58.0195 13.1602H58.5762C58.7741 13.1602 59.0215 13.1602 59.3184 13.1602C59.6276 13.1478 60.0111 13.1416 60.4688 13.1416C60.7285 13.7477 60.9635 14.3044 61.1738 14.8115C61.3965 15.3187 61.582 15.7516 61.7305 16.1104C61.9036 16.5433 62.0645 16.9329 62.2129 17.2793C62.3861 17.7122 62.5716 18.1885 62.7695 18.708C62.9674 19.2275 63.1468 19.7161 63.3076 20.1738C63.4808 20.6315 63.623 21.0088 63.7344 21.3057C63.8457 21.6025 63.9014 21.7386 63.9014 21.7139C63.9014 21.7015 63.9076 21.5778 63.9199 21.3428C63.9323 21.0954 63.9447 20.7923 63.957 20.4336C63.9694 20.0625 63.9818 19.6605 63.9941 19.2275C64.0189 18.7822 64.0312 18.3555 64.0312 17.9473C64.0436 17.5267 64.0498 17.1432 64.0498 16.7969C64.0498 16.4505 64.0374 16.1908 64.0127 16.0176C63.9756 15.8073 63.9014 15.5661 63.79 15.2939C63.6911 15.0589 63.555 14.7806 63.3818 14.459C63.2087 14.125 62.9674 13.7477 62.6582 13.3271C63.1654 13.3395 63.5798 13.3457 63.9014 13.3457C64.223 13.3457 64.4827 13.3457 64.6807 13.3457C64.9033 13.3457 65.0765 13.3395 65.2002 13.3271C65.361 13.3271 65.5589 13.3148 65.7939 13.29C66.0042 13.2653 66.264 13.2467 66.5732 13.2344C66.8949 13.2096 67.2907 13.1787 67.7607 13.1416C67.4886 13.389 67.2721 13.624 67.1113 13.8467C66.9505 14.0693 66.8206 14.2673 66.7217 14.4404C66.6104 14.6383 66.5361 14.8239 66.499 14.9971C66.4495 15.2197 66.4062 15.5846 66.3691 16.0918C66.3444 16.5866 66.3135 17.1432 66.2764 17.7617C66.2516 18.3802 66.2269 19.0234 66.2021 19.6914C66.1774 20.3594 66.1527 20.9717 66.1279 21.5283C66.1279 21.9489 66.1156 22.4004 66.0908 22.8828C66.0661 23.291 66.0413 23.7549 66.0166 24.2744C65.9919 24.7816 65.9609 25.2949 65.9238 25.8145L64.2725 25.8516C63.79 24.998 63.3818 24.2682 63.0479 23.6621C62.7262 23.0436 62.4603 22.5365 62.25 22.1406C62.015 21.6829 61.8171 21.2995 61.6562 20.9902C61.5202 20.6934 61.3408 20.3532 61.1182 19.9697C60.9326 19.6481 60.6976 19.2523 60.4131 18.7822C60.141 18.3122 59.8132 17.7741 59.4297 17.168C59.3926 18.0215 59.374 18.7513 59.374 19.3574C59.3864 19.9512 59.4049 20.446 59.4297 20.8418C59.4668 21.2995 59.5101 21.6829 59.5596 21.9922C59.6214 22.2891 59.708 22.623 59.8193 22.9941C59.9183 23.3158 60.0358 23.693 60.1719 24.126C60.3203 24.5589 60.4997 25.0475 60.71 25.5918C59.9801 25.5547 59.4359 25.5361 59.0771 25.5361H58.5205C58.3473 25.5361 58.1123 25.5547 57.8154 25.5918C57.568 25.6165 57.2279 25.6536 56.7949 25.7031C56.3743 25.7526 55.8486 25.8206 55.2178 25.9072C55.5146 25.5485 55.7497 25.2207 55.9229 24.9238C56.1084 24.6146 56.2507 24.3548 56.3496 24.1445C56.4733 23.8971 56.5599 23.6807 56.6094 23.4951C56.6465 23.2972 56.6712 22.957 56.6836 22.4746C56.696 21.9798 56.696 21.4232 56.6836 20.8047C56.6836 20.1738 56.6712 19.512 56.6465 18.8193C56.6341 18.1266 56.6156 17.4834 56.5908 16.8896C56.5661 16.2959 56.5352 15.7887 56.498 15.3682C56.4733 14.9476 56.4548 14.6878 56.4424 14.5889C56.4053 14.4281 56.3311 14.2549 56.2197 14.0693C56.1208 13.9085 55.9909 13.7292 55.8301 13.5312C55.6693 13.321 55.4466 13.0921 55.1621 12.8447Z" fill="url(#paint1_linear_391_2062)"/>
<defs>
<linearGradient id="paint0_linear_391_2062" x1="4" y1="19.0968" x2="92.0028" y2="17.4552" gradientUnits="userSpaceOnUse">
<stop stop-opacity="0"/>
<stop offset="0.495"/>
<stop offset="1" stop-opacity="0"/>
</linearGradient>
<linearGradient id="paint1_linear_391_2062" x1="0" y1="16" x2="96" y2="16" gradientUnits="userSpaceOnUse">
<stop offset="0.0659998" stop-opacity="0.18"/>
<stop offset="0.261" stop-opacity="0.7"/>
<stop offset="0.526" stop-opacity="0.09"/>
<stop offset="0.826" stop-opacity="0.7"/>
<stop offset="1" stop-opacity="0"/>
</linearGradient>
</defs>
</svg>
