<svg width="96" height="37" viewBox="0 0 96 37" fill="none" xmlns="http://www.w3.org/2000/svg">
<mask id="path-1-inside-1_391_2054" fill="white">
<path d="M4 10C4 4.47715 8.47715 0 14 0H82C87.5229 0 92 4.47715 92 10V27C92 32.5228 87.5229 37 82 37H14C8.47715 37 4 32.5228 4 27V10Z"/>
</mask>
<path d="M4 10C4 2.8203 9.8203 -3 17 -3H79C86.1797 -3 92 2.8203 92 10C92 6.13401 87.5229 3 82 3H14C8.47715 3 4 6.13401 4 10ZM92 27C92 34.1797 86.1797 40 79 40H17C9.8203 40 4 34.1797 4 27C4 30.866 8.47715 34 14 34H82C87.5229 34 92 30.866 92 27ZM4 37V0V37ZM92 0V37V0Z" fill="#840B0B" mask="url(#path-1-inside-1_391_2054)"/>
<path d="M4 10C4 2.8203 9.8203 -3 17 -3H79C86.1797 -3 92 2.8203 92 10C92 6.13401 87.5229 3 82 3H14C8.47715 3 4 6.13401 4 10ZM92 27C92 34.1797 86.1797 40 79 40H17C9.8203 40 4 34.1797 4 27C4 30.866 8.47715 34 14 34H82C87.5229 34 92 30.866 92 27ZM4 37V0V37ZM92 0V37V0Z" fill="url(#paint0_linear_391_2054)" mask="url(#path-1-inside-1_391_2054)"/>
<path d="M31.5049 12.4551C31.9007 12.5169 32.2594 12.5726 32.5811 12.6221C32.9027 12.6592 33.181 12.6901 33.416 12.7148C33.6882 12.752 33.9294 12.7829 34.1396 12.8076C34.3994 12.8447 34.7891 12.8014 35.3086 12.6777C35.8281 12.5417 36.3971 12.418 37.0156 12.3066C37.6465 12.1829 38.2897 12.1149 38.9453 12.1025C39.6009 12.0778 40.2008 12.1953 40.7451 12.4551C41.2894 12.7148 41.7347 12.9746 42.0811 13.2344C42.4274 13.4941 42.6995 13.7725 42.8975 14.0693C43.1077 14.3538 43.2562 14.6569 43.3428 14.9785C43.4294 15.3001 43.4788 15.6527 43.4912 16.0361C43.4788 16.6051 43.3428 17.1556 43.083 17.6875C42.9717 17.9102 42.8232 18.1452 42.6377 18.3926C42.4645 18.6276 42.248 18.8564 41.9883 19.0791C41.7285 19.3018 41.4193 19.512 41.0605 19.71C40.7142 19.9079 40.306 20.0811 39.8359 20.2295C40.2936 20.3656 40.6709 20.5264 40.9678 20.7119C41.277 20.8975 41.5244 21.0706 41.71 21.2314C41.9326 21.4294 42.0996 21.6211 42.2109 21.8066C42.347 22.0664 42.4398 22.2891 42.4893 22.4746C42.5387 22.6602 42.5697 22.8395 42.582 23.0127C42.6068 23.1735 42.6377 23.3405 42.6748 23.5137C42.7119 23.6868 42.7923 23.8848 42.916 24.1074C43.015 24.2806 43.1325 24.46 43.2686 24.6455C43.3923 24.8063 43.5345 24.9795 43.6953 25.165C43.8685 25.3506 44.0788 25.5299 44.3262 25.7031C43.9798 25.7155 43.6582 25.7217 43.3613 25.7217C43.0768 25.7217 42.8294 25.7217 42.6191 25.7217C42.3717 25.7217 42.1367 25.7155 41.9141 25.7031C41.6914 25.6908 41.4131 25.6846 41.0791 25.6846C40.7946 25.6846 40.4297 25.6846 39.9844 25.6846C39.5514 25.6846 39.0257 25.6908 38.4072 25.7031C38.6794 25.4928 38.902 25.2826 39.0752 25.0723C39.2484 24.862 39.3844 24.6702 39.4834 24.4971C39.5947 24.2992 39.6751 24.1074 39.7246 23.9219C39.7865 23.5879 39.7926 23.2415 39.7432 22.8828C39.7061 22.5736 39.6071 22.2334 39.4463 21.8623C39.2855 21.4788 39.0257 21.0954 38.667 20.7119C38.3083 20.7738 38.0052 20.8232 37.7578 20.8604C37.5228 20.8851 37.3187 20.9098 37.1455 20.9346C36.9476 20.9593 36.7868 20.9779 36.6631 20.9902C36.5518 21.0026 36.4281 21.015 36.292 21.0273C36.1807 21.0397 36.057 21.0583 35.9209 21.083C35.7972 21.0954 35.6797 21.1139 35.5684 21.1387C35.5436 21.6706 35.5436 22.1344 35.5684 22.5303C35.5931 22.9137 35.624 23.2354 35.6611 23.4951C35.7106 23.8044 35.7663 24.0703 35.8281 24.293C35.89 24.5156 35.9766 24.7321 36.0879 24.9424C36.1745 25.1156 36.2858 25.3011 36.4219 25.499C36.5579 25.6846 36.7126 25.8392 36.8857 25.9629C36.5641 25.9629 36.2549 25.9629 35.958 25.9629C35.6735 25.9629 35.4137 25.9567 35.1787 25.9443C34.9066 25.9443 34.6468 25.9382 34.3994 25.9258C34.152 25.9134 33.8737 25.9072 33.5645 25.9072C33.3047 25.9072 32.9954 25.9072 32.6367 25.9072C32.2904 25.9072 31.9131 25.9134 31.5049 25.9258C31.8265 25.5918 32.0801 25.3073 32.2656 25.0723C32.4512 24.8372 32.5934 24.6393 32.6924 24.4785C32.8037 24.3053 32.8717 24.1569 32.8965 24.0332C32.9212 23.8353 32.9398 23.4827 32.9521 22.9756C32.9769 22.4561 32.9954 21.8623 33.0078 21.1943C33.0202 20.5264 33.0264 19.8275 33.0264 19.0977C33.0264 18.3678 33.0202 17.6875 33.0078 17.0566C32.9954 16.4134 32.9831 15.863 32.9707 15.4053C32.9583 14.9476 32.946 14.6569 32.9336 14.5332C32.8965 14.3105 32.8161 14.0879 32.6924 13.8652C32.5934 13.6673 32.4512 13.4447 32.2656 13.1973C32.0801 12.9499 31.8265 12.7025 31.5049 12.4551ZM38.5186 18.9863C38.6423 18.9121 38.7474 18.8379 38.834 18.7637C38.9206 18.6895 38.9948 18.5719 39.0566 18.4111C39.1185 18.238 39.168 17.9967 39.2051 17.6875C39.2546 17.3783 39.3102 16.9577 39.3721 16.4258C39.4215 15.8939 39.3844 15.4548 39.2607 15.1084C39.1494 14.762 38.9948 14.4899 38.7969 14.292C38.6113 14.0817 38.401 13.9395 38.166 13.8652C37.9434 13.7786 37.7454 13.7354 37.5723 13.7354C37.2259 13.7354 36.8857 13.8405 36.5518 14.0508C36.2178 14.2611 35.9642 14.5456 35.791 14.9043C35.7292 15.0651 35.6735 15.3311 35.624 15.7021C35.5869 16.0238 35.5622 16.4691 35.5498 17.0381C35.5374 17.6071 35.556 18.3555 35.6055 19.2832C36.0755 19.3574 36.4899 19.3883 36.8486 19.376C37.2074 19.3512 37.5104 19.3079 37.7578 19.2461C38.0547 19.1842 38.3083 19.0977 38.5186 18.9863ZM43.1943 13.3271C44.0602 13.3519 44.7777 13.3704 45.3467 13.3828C45.9281 13.3828 46.3981 13.3828 46.7568 13.3828H47.7402H53.2695C53.2943 13.6302 53.3128 13.8714 53.3252 14.1064C53.3499 14.3291 53.3623 14.527 53.3623 14.7002C53.3623 14.9105 53.3561 15.1022 53.3438 15.2754C53.3314 15.4486 53.3128 15.6341 53.2881 15.832C53.2633 16.0052 53.2386 16.1908 53.2139 16.3887C53.1891 16.5866 53.1458 16.7907 53.084 17.001C52.9108 16.333 52.6758 15.8258 52.3789 15.4795C52.0944 15.1331 51.8037 14.8796 51.5068 14.7188C51.1605 14.5332 50.7956 14.4342 50.4121 14.4219C49.9049 14.4466 49.5091 14.4899 49.2246 14.5518C48.9401 14.6136 48.7174 14.7002 48.5566 14.8115C48.3958 14.9229 48.2721 15.0527 48.1855 15.2012C48.1113 15.3372 48.0309 15.4919 47.9443 15.665C47.8701 15.8135 47.8021 16.0423 47.7402 16.3516C47.6784 16.6113 47.6165 16.9639 47.5547 17.4092C47.5052 17.8545 47.4495 18.4297 47.3877 19.1348C47.7217 19.0358 47.9876 18.943 48.1855 18.8564C48.3958 18.7699 48.5628 18.6956 48.6865 18.6338C48.8226 18.5596 48.9215 18.4915 48.9834 18.4297C49.0329 18.3555 49.1071 18.2194 49.2061 18.0215C49.2803 17.8483 49.3792 17.6133 49.5029 17.3164C49.639 17.0195 49.7998 16.6113 49.9854 16.0918C50.0101 16.6608 50.0225 17.137 50.0225 17.5205C50.0225 17.8916 50.0286 18.1947 50.041 18.4297C50.041 18.7018 50.0472 18.9183 50.0596 19.0791V19.7842C50.0596 20.0439 50.0596 20.3965 50.0596 20.8418C50.0719 21.2747 50.0905 21.8252 50.1152 22.4932C49.9668 22.0355 49.8307 21.6768 49.707 21.417C49.5957 21.1449 49.4967 20.9408 49.4102 20.8047C49.3112 20.6439 49.2246 20.5326 49.1504 20.4707C49.0638 20.446 48.9463 20.4212 48.7979 20.3965C48.6618 20.3841 48.4886 20.3779 48.2783 20.3779C48.0804 20.3779 47.8268 20.4089 47.5176 20.4707C47.4805 21.151 47.4743 21.7015 47.499 22.1221C47.5361 22.5303 47.5856 22.8457 47.6475 23.0684C47.7093 23.3281 47.7835 23.5137 47.8701 23.625C47.9814 23.7363 48.2041 23.8291 48.5381 23.9033C48.8721 23.9652 49.2493 23.9899 49.6699 23.9775C50.1029 23.9528 50.542 23.8786 50.9873 23.7549C51.4326 23.6312 51.8285 23.4271 52.1748 23.1426C52.4346 22.9076 52.7129 22.6107 53.0098 22.252C53.2572 21.9427 53.5293 21.5531 53.8262 21.083C54.1354 20.613 54.4385 20.0439 54.7354 19.376C54.6859 19.9326 54.6488 20.3965 54.624 20.7676C54.6117 21.1263 54.5931 21.417 54.5684 21.6396C54.5436 21.8994 54.5251 22.0973 54.5127 22.2334C54.5127 22.3818 54.4941 22.5921 54.457 22.8643C54.4323 23.0993 54.389 23.4209 54.3271 23.8291C54.2777 24.2249 54.2096 24.7321 54.123 25.3506C53.5417 25.363 52.9912 25.3753 52.4717 25.3877C51.9521 25.3877 51.4945 25.3939 51.0986 25.4062C50.6286 25.4186 50.1956 25.431 49.7998 25.4434C49.3916 25.4434 48.9401 25.4619 48.4453 25.499C48.0124 25.5238 47.499 25.5609 46.9053 25.6104C46.3239 25.6598 45.6807 25.7279 44.9756 25.8145C45.0374 24.9733 45.0807 24.1816 45.1055 23.4395C45.1426 22.6849 45.1673 22.0231 45.1797 21.4541C45.1921 20.7861 45.1921 20.1676 45.1797 19.5986C45.2415 18.1761 45.2168 17.0257 45.1055 16.1475C44.9941 15.2692 44.8643 14.7064 44.7158 14.459C44.6416 14.3724 44.5365 14.2673 44.4004 14.1436C44.2891 14.0446 44.1344 13.9271 43.9365 13.791C43.7386 13.6549 43.4912 13.5003 43.1943 13.3271ZM52.9355 12.6777C53.7643 12.7148 54.4076 12.7334 54.8652 12.7334H55.5518C55.7497 12.7334 55.9971 12.7272 56.2939 12.7148C56.5413 12.7025 56.8568 12.6963 57.2402 12.6963C57.6237 12.6839 58.0814 12.6654 58.6133 12.6406C58.3659 12.8138 58.168 12.9808 58.0195 13.1416C57.8711 13.3024 57.7536 13.4447 57.667 13.5684C57.568 13.7168 57.5 13.8529 57.4629 13.9766C57.3763 14.2982 57.3392 14.7373 57.3516 15.2939C57.3763 15.8382 57.432 16.432 57.5186 17.0752C57.6051 17.7061 57.7103 18.3493 57.834 19.0049C57.9577 19.6605 58.0814 20.2542 58.2051 20.7861C58.3411 21.318 58.4587 21.7572 58.5576 22.1035C58.6689 22.4375 58.7493 22.6045 58.7988 22.6045C58.8483 22.6045 58.9411 22.4251 59.0771 22.0664C59.2256 21.7077 59.3926 21.2562 59.5781 20.7119C59.7637 20.1553 59.9554 19.5553 60.1533 18.9121C60.3512 18.2565 60.5306 17.638 60.6914 17.0566C60.8646 16.4629 61.0068 15.9557 61.1182 15.5352C61.2295 15.1022 61.2852 14.8363 61.2852 14.7373C61.2728 14.6012 61.2295 14.459 61.1553 14.3105C61.0934 14.1745 60.9821 14.0199 60.8213 13.8467C60.6729 13.6611 60.4626 13.4508 60.1904 13.2158C60.5739 13.2035 60.9017 13.1911 61.1738 13.1787C61.4583 13.1663 61.6995 13.1602 61.8975 13.1602H62.4727H65.4414C65.1322 13.3704 64.8662 13.5745 64.6436 13.7725C64.4333 13.9704 64.2601 14.1559 64.124 14.3291C63.9632 14.527 63.8271 14.7126 63.7158 14.8857C63.5921 15.1455 63.388 15.7083 63.1035 16.5742C62.9798 16.9453 62.8376 17.3968 62.6768 17.9287C62.516 18.4606 62.3242 19.0977 62.1016 19.8398C61.8789 20.582 61.6315 21.4417 61.3594 22.4189C61.0872 23.3838 60.778 24.4847 60.4316 25.7217L57.8525 26.0557C57.5433 25.0908 57.2712 24.2126 57.0361 23.4209C56.8135 22.6169 56.6156 21.9303 56.4424 21.3613C56.2445 20.6934 56.0775 20.0934 55.9414 19.5615C55.7559 18.9183 55.5951 18.2689 55.459 17.6133C55.3353 16.9453 55.224 16.3454 55.125 15.8135C55.0384 15.2692 54.958 14.8177 54.8838 14.459C54.8096 14.1003 54.7292 13.89 54.6426 13.8281C54.5684 13.7663 54.457 13.6859 54.3086 13.5869C54.1725 13.5003 53.9993 13.389 53.7891 13.2529C53.5664 13.1045 53.2819 12.9128 52.9355 12.6777Z" fill="#840B0B"/>
<path d="M31.5049 12.4551C31.9007 12.5169 32.2594 12.5726 32.5811 12.6221C32.9027 12.6592 33.181 12.6901 33.416 12.7148C33.6882 12.752 33.9294 12.7829 34.1396 12.8076C34.3994 12.8447 34.7891 12.8014 35.3086 12.6777C35.8281 12.5417 36.3971 12.418 37.0156 12.3066C37.6465 12.1829 38.2897 12.1149 38.9453 12.1025C39.6009 12.0778 40.2008 12.1953 40.7451 12.4551C41.2894 12.7148 41.7347 12.9746 42.0811 13.2344C42.4274 13.4941 42.6995 13.7725 42.8975 14.0693C43.1077 14.3538 43.2562 14.6569 43.3428 14.9785C43.4294 15.3001 43.4788 15.6527 43.4912 16.0361C43.4788 16.6051 43.3428 17.1556 43.083 17.6875C42.9717 17.9102 42.8232 18.1452 42.6377 18.3926C42.4645 18.6276 42.248 18.8564 41.9883 19.0791C41.7285 19.3018 41.4193 19.512 41.0605 19.71C40.7142 19.9079 40.306 20.0811 39.8359 20.2295C40.2936 20.3656 40.6709 20.5264 40.9678 20.7119C41.277 20.8975 41.5244 21.0706 41.71 21.2314C41.9326 21.4294 42.0996 21.6211 42.2109 21.8066C42.347 22.0664 42.4398 22.2891 42.4893 22.4746C42.5387 22.6602 42.5697 22.8395 42.582 23.0127C42.6068 23.1735 42.6377 23.3405 42.6748 23.5137C42.7119 23.6868 42.7923 23.8848 42.916 24.1074C43.015 24.2806 43.1325 24.46 43.2686 24.6455C43.3923 24.8063 43.5345 24.9795 43.6953 25.165C43.8685 25.3506 44.0788 25.5299 44.3262 25.7031C43.9798 25.7155 43.6582 25.7217 43.3613 25.7217C43.0768 25.7217 42.8294 25.7217 42.6191 25.7217C42.3717 25.7217 42.1367 25.7155 41.9141 25.7031C41.6914 25.6908 41.4131 25.6846 41.0791 25.6846C40.7946 25.6846 40.4297 25.6846 39.9844 25.6846C39.5514 25.6846 39.0257 25.6908 38.4072 25.7031C38.6794 25.4928 38.902 25.2826 39.0752 25.0723C39.2484 24.862 39.3844 24.6702 39.4834 24.4971C39.5947 24.2992 39.6751 24.1074 39.7246 23.9219C39.7865 23.5879 39.7926 23.2415 39.7432 22.8828C39.7061 22.5736 39.6071 22.2334 39.4463 21.8623C39.2855 21.4788 39.0257 21.0954 38.667 20.7119C38.3083 20.7738 38.0052 20.8232 37.7578 20.8604C37.5228 20.8851 37.3187 20.9098 37.1455 20.9346C36.9476 20.9593 36.7868 20.9779 36.6631 20.9902C36.5518 21.0026 36.4281 21.015 36.292 21.0273C36.1807 21.0397 36.057 21.0583 35.9209 21.083C35.7972 21.0954 35.6797 21.1139 35.5684 21.1387C35.5436 21.6706 35.5436 22.1344 35.5684 22.5303C35.5931 22.9137 35.624 23.2354 35.6611 23.4951C35.7106 23.8044 35.7663 24.0703 35.8281 24.293C35.89 24.5156 35.9766 24.7321 36.0879 24.9424C36.1745 25.1156 36.2858 25.3011 36.4219 25.499C36.5579 25.6846 36.7126 25.8392 36.8857 25.9629C36.5641 25.9629 36.2549 25.9629 35.958 25.9629C35.6735 25.9629 35.4137 25.9567 35.1787 25.9443C34.9066 25.9443 34.6468 25.9382 34.3994 25.9258C34.152 25.9134 33.8737 25.9072 33.5645 25.9072C33.3047 25.9072 32.9954 25.9072 32.6367 25.9072C32.2904 25.9072 31.9131 25.9134 31.5049 25.9258C31.8265 25.5918 32.0801 25.3073 32.2656 25.0723C32.4512 24.8372 32.5934 24.6393 32.6924 24.4785C32.8037 24.3053 32.8717 24.1569 32.8965 24.0332C32.9212 23.8353 32.9398 23.4827 32.9521 22.9756C32.9769 22.4561 32.9954 21.8623 33.0078 21.1943C33.0202 20.5264 33.0264 19.8275 33.0264 19.0977C33.0264 18.3678 33.0202 17.6875 33.0078 17.0566C32.9954 16.4134 32.9831 15.863 32.9707 15.4053C32.9583 14.9476 32.946 14.6569 32.9336 14.5332C32.8965 14.3105 32.8161 14.0879 32.6924 13.8652C32.5934 13.6673 32.4512 13.4447 32.2656 13.1973C32.0801 12.9499 31.8265 12.7025 31.5049 12.4551ZM38.5186 18.9863C38.6423 18.9121 38.7474 18.8379 38.834 18.7637C38.9206 18.6895 38.9948 18.5719 39.0566 18.4111C39.1185 18.238 39.168 17.9967 39.2051 17.6875C39.2546 17.3783 39.3102 16.9577 39.3721 16.4258C39.4215 15.8939 39.3844 15.4548 39.2607 15.1084C39.1494 14.762 38.9948 14.4899 38.7969 14.292C38.6113 14.0817 38.401 13.9395 38.166 13.8652C37.9434 13.7786 37.7454 13.7354 37.5723 13.7354C37.2259 13.7354 36.8857 13.8405 36.5518 14.0508C36.2178 14.2611 35.9642 14.5456 35.791 14.9043C35.7292 15.0651 35.6735 15.3311 35.624 15.7021C35.5869 16.0238 35.5622 16.4691 35.5498 17.0381C35.5374 17.6071 35.556 18.3555 35.6055 19.2832C36.0755 19.3574 36.4899 19.3883 36.8486 19.376C37.2074 19.3512 37.5104 19.3079 37.7578 19.2461C38.0547 19.1842 38.3083 19.0977 38.5186 18.9863ZM43.1943 13.3271C44.0602 13.3519 44.7777 13.3704 45.3467 13.3828C45.9281 13.3828 46.3981 13.3828 46.7568 13.3828H47.7402H53.2695C53.2943 13.6302 53.3128 13.8714 53.3252 14.1064C53.3499 14.3291 53.3623 14.527 53.3623 14.7002C53.3623 14.9105 53.3561 15.1022 53.3438 15.2754C53.3314 15.4486 53.3128 15.6341 53.2881 15.832C53.2633 16.0052 53.2386 16.1908 53.2139 16.3887C53.1891 16.5866 53.1458 16.7907 53.084 17.001C52.9108 16.333 52.6758 15.8258 52.3789 15.4795C52.0944 15.1331 51.8037 14.8796 51.5068 14.7188C51.1605 14.5332 50.7956 14.4342 50.4121 14.4219C49.9049 14.4466 49.5091 14.4899 49.2246 14.5518C48.9401 14.6136 48.7174 14.7002 48.5566 14.8115C48.3958 14.9229 48.2721 15.0527 48.1855 15.2012C48.1113 15.3372 48.0309 15.4919 47.9443 15.665C47.8701 15.8135 47.8021 16.0423 47.7402 16.3516C47.6784 16.6113 47.6165 16.9639 47.5547 17.4092C47.5052 17.8545 47.4495 18.4297 47.3877 19.1348C47.7217 19.0358 47.9876 18.943 48.1855 18.8564C48.3958 18.7699 48.5628 18.6956 48.6865 18.6338C48.8226 18.5596 48.9215 18.4915 48.9834 18.4297C49.0329 18.3555 49.1071 18.2194 49.2061 18.0215C49.2803 17.8483 49.3792 17.6133 49.5029 17.3164C49.639 17.0195 49.7998 16.6113 49.9854 16.0918C50.0101 16.6608 50.0225 17.137 50.0225 17.5205C50.0225 17.8916 50.0286 18.1947 50.041 18.4297C50.041 18.7018 50.0472 18.9183 50.0596 19.0791V19.7842C50.0596 20.0439 50.0596 20.3965 50.0596 20.8418C50.0719 21.2747 50.0905 21.8252 50.1152 22.4932C49.9668 22.0355 49.8307 21.6768 49.707 21.417C49.5957 21.1449 49.4967 20.9408 49.4102 20.8047C49.3112 20.6439 49.2246 20.5326 49.1504 20.4707C49.0638 20.446 48.9463 20.4212 48.7979 20.3965C48.6618 20.3841 48.4886 20.3779 48.2783 20.3779C48.0804 20.3779 47.8268 20.4089 47.5176 20.4707C47.4805 21.151 47.4743 21.7015 47.499 22.1221C47.5361 22.5303 47.5856 22.8457 47.6475 23.0684C47.7093 23.3281 47.7835 23.5137 47.8701 23.625C47.9814 23.7363 48.2041 23.8291 48.5381 23.9033C48.8721 23.9652 49.2493 23.9899 49.6699 23.9775C50.1029 23.9528 50.542 23.8786 50.9873 23.7549C51.4326 23.6312 51.8285 23.4271 52.1748 23.1426C52.4346 22.9076 52.7129 22.6107 53.0098 22.252C53.2572 21.9427 53.5293 21.5531 53.8262 21.083C54.1354 20.613 54.4385 20.0439 54.7354 19.376C54.6859 19.9326 54.6488 20.3965 54.624 20.7676C54.6117 21.1263 54.5931 21.417 54.5684 21.6396C54.5436 21.8994 54.5251 22.0973 54.5127 22.2334C54.5127 22.3818 54.4941 22.5921 54.457 22.8643C54.4323 23.0993 54.389 23.4209 54.3271 23.8291C54.2777 24.2249 54.2096 24.7321 54.123 25.3506C53.5417 25.363 52.9912 25.3753 52.4717 25.3877C51.9521 25.3877 51.4945 25.3939 51.0986 25.4062C50.6286 25.4186 50.1956 25.431 49.7998 25.4434C49.3916 25.4434 48.9401 25.4619 48.4453 25.499C48.0124 25.5238 47.499 25.5609 46.9053 25.6104C46.3239 25.6598 45.6807 25.7279 44.9756 25.8145C45.0374 24.9733 45.0807 24.1816 45.1055 23.4395C45.1426 22.6849 45.1673 22.0231 45.1797 21.4541C45.1921 20.7861 45.1921 20.1676 45.1797 19.5986C45.2415 18.1761 45.2168 17.0257 45.1055 16.1475C44.9941 15.2692 44.8643 14.7064 44.7158 14.459C44.6416 14.3724 44.5365 14.2673 44.4004 14.1436C44.2891 14.0446 44.1344 13.9271 43.9365 13.791C43.7386 13.6549 43.4912 13.5003 43.1943 13.3271ZM52.9355 12.6777C53.7643 12.7148 54.4076 12.7334 54.8652 12.7334H55.5518C55.7497 12.7334 55.9971 12.7272 56.2939 12.7148C56.5413 12.7025 56.8568 12.6963 57.2402 12.6963C57.6237 12.6839 58.0814 12.6654 58.6133 12.6406C58.3659 12.8138 58.168 12.9808 58.0195 13.1416C57.8711 13.3024 57.7536 13.4447 57.667 13.5684C57.568 13.7168 57.5 13.8529 57.4629 13.9766C57.3763 14.2982 57.3392 14.7373 57.3516 15.2939C57.3763 15.8382 57.432 16.432 57.5186 17.0752C57.6051 17.7061 57.7103 18.3493 57.834 19.0049C57.9577 19.6605 58.0814 20.2542 58.2051 20.7861C58.3411 21.318 58.4587 21.7572 58.5576 22.1035C58.6689 22.4375 58.7493 22.6045 58.7988 22.6045C58.8483 22.6045 58.9411 22.4251 59.0771 22.0664C59.2256 21.7077 59.3926 21.2562 59.5781 20.7119C59.7637 20.1553 59.9554 19.5553 60.1533 18.9121C60.3512 18.2565 60.5306 17.638 60.6914 17.0566C60.8646 16.4629 61.0068 15.9557 61.1182 15.5352C61.2295 15.1022 61.2852 14.8363 61.2852 14.7373C61.2728 14.6012 61.2295 14.459 61.1553 14.3105C61.0934 14.1745 60.9821 14.0199 60.8213 13.8467C60.6729 13.6611 60.4626 13.4508 60.1904 13.2158C60.5739 13.2035 60.9017 13.1911 61.1738 13.1787C61.4583 13.1663 61.6995 13.1602 61.8975 13.1602H62.4727H65.4414C65.1322 13.3704 64.8662 13.5745 64.6436 13.7725C64.4333 13.9704 64.2601 14.1559 64.124 14.3291C63.9632 14.527 63.8271 14.7126 63.7158 14.8857C63.5921 15.1455 63.388 15.7083 63.1035 16.5742C62.9798 16.9453 62.8376 17.3968 62.6768 17.9287C62.516 18.4606 62.3242 19.0977 62.1016 19.8398C61.8789 20.582 61.6315 21.4417 61.3594 22.4189C61.0872 23.3838 60.778 24.4847 60.4316 25.7217L57.8525 26.0557C57.5433 25.0908 57.2712 24.2126 57.0361 23.4209C56.8135 22.6169 56.6156 21.9303 56.4424 21.3613C56.2445 20.6934 56.0775 20.0934 55.9414 19.5615C55.7559 18.9183 55.5951 18.2689 55.459 17.6133C55.3353 16.9453 55.224 16.3454 55.125 15.8135C55.0384 15.2692 54.958 14.8177 54.8838 14.459C54.8096 14.1003 54.7292 13.89 54.6426 13.8281C54.5684 13.7663 54.457 13.6859 54.3086 13.5869C54.1725 13.5003 53.9993 13.389 53.7891 13.2529C53.5664 13.1045 53.2819 12.9128 52.9355 12.6777Z" fill="url(#paint1_linear_391_2054)"/>
<defs>
<linearGradient id="paint0_linear_391_2054" x1="4" y1="19.0968" x2="92.0028" y2="17.4552" gradientUnits="userSpaceOnUse">
<stop stop-opacity="0"/>
<stop offset="0.495"/>
<stop offset="1" stop-opacity="0"/>
</linearGradient>
<linearGradient id="paint1_linear_391_2054" x1="0" y1="16" x2="96" y2="16" gradientUnits="userSpaceOnUse">
<stop offset="0.0659998" stop-opacity="0.18"/>
<stop offset="0.261" stop-opacity="0.7"/>
<stop offset="0.526" stop-opacity="0.09"/>
<stop offset="0.826" stop-opacity="0.7"/>
<stop offset="1" stop-opacity="0"/>
</linearGradient>
</defs>
</svg>
