<svg width="1718" height="835" viewBox="0 0 1718 835" fill="none" xmlns="http://www.w3.org/2000/svg">
<rect x="70" y="346.15" width="160" height="67.3688" fill="#D9D9D9" stroke="black" stroke-width="2"/>
<rect x="394" y="347.217" width="160" height="67.3688" fill="#D9D9D9" stroke="black" stroke-width="2"/>
<rect x="304" y="277.848" width="160" height="67.3688" fill="#D9D9D9" stroke="black" stroke-width="2"/>
<rect x="165" y="415.519" width="160" height="67.3688" fill="#9F9D9D" stroke="black" stroke-width="2"/>
<rect x="142" y="277.848" width="160" height="67.3688" fill="#9F9D9D" stroke="black" stroke-width="2"/>
<rect x="327" y="415.519" width="160" height="67.3688" fill="#757575" stroke="black" stroke-width="2"/>
<rect x="232" y="346.15" width="160" height="67.3688" fill="#B6B3B3" stroke="black" stroke-width="2"/>
<rect x="408" y="483.82" width="160" height="67.3688" fill="#D9D9D9" stroke="black" stroke-width="2"/>
<rect x="804" y="415.519" width="160" height="67.3688" fill="#D9D9D9" stroke="black" stroke-width="2"/>
<rect x="1128" y="416.586" width="160" height="67.3688" fill="#D9D9D9" stroke="black" stroke-width="2"/>
<rect x="70" y="346.15" width="160" height="67.3688" fill="#D9D9D9" stroke="black" stroke-width="2"/>
<rect x="3" y="416.586" width="160" height="67.3688" fill="#D9D9D9" stroke="black" stroke-width="2"/>
<rect x="394" y="347.217" width="160" height="67.3688" fill="#D9D9D9" stroke="black" stroke-width="2"/>
<rect x="304" y="277.848" width="160" height="67.3688" fill="#D9D9D9" stroke="black" stroke-width="2"/>
<rect x="165" y="415.519" width="160" height="67.3688" fill="#9F9D9D" stroke="black" stroke-width="2"/>
<rect x="142" y="277.848" width="160" height="67.3688" fill="#9F9D9D" stroke="black" stroke-width="2"/>
<rect x="327" y="415.519" width="160" height="67.3688" fill="#757575" stroke="black" stroke-width="2"/>
<rect x="232" y="346.15" width="160" height="67.3688" fill="#B6B3B3" stroke="black" stroke-width="2"/>
<rect x="1233" y="623.625" width="160" height="67.3688" fill="#D9D9D9" stroke="black" stroke-width="2"/>
<rect x="1557" y="624.692" width="160" height="67.3688" fill="#D9D9D9" stroke="black" stroke-width="2"/>
<rect x="1467" y="555.323" width="160" height="67.3688" fill="#D9D9D9" stroke="black" stroke-width="2"/>
<rect x="1375" y="485.954" width="160" height="67.3688" fill="#D9D9D9" stroke="black" stroke-width="2"/>
<rect x="1328" y="692.994" width="160" height="67.3688" fill="#9F9D9D" stroke="black" stroke-width="2"/>
<rect x="1420" y="761.295" width="160" height="67.3688" fill="#F05B5B" stroke="black" stroke-width="2"/>
<rect x="1305" y="555.323" width="160" height="67.3688" fill="#9F9D9D" stroke="black" stroke-width="2"/>
<rect x="1490" y="692.994" width="160" height="67.3688" fill="#757575" stroke="black" stroke-width="2"/>
<rect x="1395" y="623.625" width="160" height="67.3688" fill="#B6B3B3" stroke="black" stroke-width="2"/>
<rect x="1192" y="347.217" width="160" height="67.3688" fill="#757575" stroke="black" stroke-width="2"/>
<rect x="1516" y="348.284" width="160" height="67.3688" fill="#D9D9D9" stroke="black" stroke-width="2"/>
<rect x="1426" y="278.915" width="160" height="67.3688" fill="#D9D9D9" stroke="black" stroke-width="2"/>
<rect x="1287" y="416.586" width="160" height="67.3688" fill="#9F9D9D" stroke="black" stroke-width="2"/>
<rect x="1213" y="484.887" width="160" height="67.3688" fill="#9F9D9D" stroke="black" stroke-width="2"/>
<rect x="1264" y="278.915" width="160" height="67.3688" fill="#9F9D9D" stroke="black" stroke-width="2"/>
<rect x="1336" y="210.614" width="160" height="67.3688" fill="#9F9D9D" stroke="black" stroke-width="2"/>
<rect x="1449" y="416.586" width="160" height="67.3688" fill="#757575" stroke="black" stroke-width="2"/>
<rect x="1354" y="347.217" width="160" height="67.3688" fill="#B6B3B3" stroke="black" stroke-width="2"/>
<rect x="1143" y="74.0107" width="160" height="67.3688" fill="#757575" stroke="black" stroke-width="2"/>
<rect x="994" y="72.9435" width="160" height="67.3688" fill="#757575" stroke="black" stroke-width="2"/>
<rect x="1467" y="75.0779" width="160" height="67.3688" fill="#D9D9D9" stroke="black" stroke-width="2"/>
<rect x="1377" y="5.70917" width="160" height="67.3688" fill="#D9D9D9" stroke="black" stroke-width="2"/>
<rect x="1238" y="143.379" width="160" height="67.3688" fill="#9F9D9D" stroke="black" stroke-width="2"/>
<rect x="1215" y="5.70917" width="160" height="67.3688" fill="#9F9D9D" stroke="black" stroke-width="2"/>
<rect x="1060" y="5.70917" width="160" height="67.3688" fill="#9F9D9D" stroke="black" stroke-width="2"/>
<rect x="1400" y="143.379" width="160" height="67.3688" fill="#757575" stroke="black" stroke-width="2"/>
<rect x="1305" y="74.0107" width="160" height="67.3688" fill="#B6B3B3" stroke="black" stroke-width="2"/>
<rect x="17" y="552.122" width="160" height="67.3688" fill="#D9D9D9" stroke="black" stroke-width="2"/>
<rect x="123" y="761.295" width="160" height="67.3688" fill="#D9D9D9" stroke="black" stroke-width="2"/>
<rect x="341" y="553.189" width="160" height="67.3688" fill="#D9D9D9" stroke="black" stroke-width="2"/>
<rect x="251" y="483.82" width="160" height="67.3688" fill="#D9D9D9" stroke="black" stroke-width="2"/>
<rect x="112" y="621.49" width="160" height="67.3688" fill="#9F9D9D" stroke="black" stroke-width="2"/>
<rect x="288" y="762.362" width="160" height="67.3688" fill="#9F9D9D" stroke="black" stroke-width="2"/>
<rect x="89" y="483.82" width="160" height="67.3688" fill="#9F9D9D" stroke="black" stroke-width="2"/>
<rect x="274" y="621.49" width="160" height="67.3688" fill="#757575" stroke="black" stroke-width="2"/>
<rect x="193" y="690.859" width="160" height="67.3688" fill="#757575" stroke="black" stroke-width="2"/>
<rect x="179" y="552.122" width="160" height="67.3688" fill="#B6B3B3" stroke="black" stroke-width="2"/>
<rect x="31" y="690.859" width="160" height="67.3688" fill="#B6B3B3" stroke="black" stroke-width="2"/>
<rect x="355" y="691.926" width="160" height="67.3688" fill="#D9D9D9" stroke="black" stroke-width="2"/>
<rect x="679" y="692.994" width="160" height="67.3688" fill="#D9D9D9" stroke="black" stroke-width="2"/>
<rect x="589" y="623.625" width="160" height="67.3688" fill="#D9D9D9" stroke="black" stroke-width="2"/>
<rect x="450" y="761.295" width="160" height="67.3688" fill="#9F9D9D" stroke="black" stroke-width="2"/>
<rect x="427" y="623.625" width="160" height="67.3688" fill="#9F9D9D" stroke="black" stroke-width="2"/>
<rect x="612" y="761.295" width="160" height="67.3688" fill="#757575" stroke="black" stroke-width="2"/>
<rect x="517" y="691.926" width="160" height="67.3688" fill="#B6B3B3" stroke="black" stroke-width="2"/>
<rect x="850" y="209.547" width="160" height="67.3688" fill="#D9D9D9" stroke="black" stroke-width="2"/>
<rect x="1174" y="210.614" width="160" height="67.3688" fill="#D9D9D9" stroke="black" stroke-width="2"/>
<rect x="1084" y="141.245" width="160" height="67.3688" fill="#D9D9D9" stroke="black" stroke-width="2"/>
<rect x="945" y="278.915" width="160" height="67.3688" fill="#9F9D9D" stroke="black" stroke-width="2"/>
<rect x="922" y="141.245" width="160" height="67.3688" fill="#9F9D9D" stroke="black" stroke-width="2"/>
<rect x="1107" y="278.915" width="160" height="67.3688" fill="#757575" stroke="black" stroke-width="2"/>
<rect x="1012" y="209.547" width="160" height="67.3688" fill="#B6B3B3" stroke="black" stroke-width="2"/>
<rect x="508" y="71.8763" width="160" height="67.3688" fill="#D9D9D9" stroke="black" stroke-width="2"/>
<rect x="832" y="72.9435" width="160" height="67.3688" fill="#D9D9D9" stroke="black" stroke-width="2"/>
<rect x="742" y="3.57474" width="160" height="67.3688" fill="#D9D9D9" stroke="black" stroke-width="2"/>
<rect x="603" y="141.245" width="160" height="67.3688" fill="#9F9D9D" stroke="black" stroke-width="2"/>
<rect x="580" y="3.57474" width="160" height="67.3688" fill="#9F9D9D" stroke="black" stroke-width="2"/>
<rect x="765" y="141.245" width="160" height="67.3688" fill="#757575" stroke="black" stroke-width="2"/>
<rect x="670" y="71.8763" width="160" height="67.3688" fill="#B6B3B3" stroke="black" stroke-width="2"/>
<rect x="904" y="4.64194" width="160" height="67.3688" fill="#B6B3B3" stroke="black" stroke-width="2"/>
<rect x="118" y="139.111" width="160" height="67.3688" fill="#D9D9D9" stroke="black" stroke-width="2"/>
<rect x="89" y="2.50751" width="160" height="67.3688" fill="#D9D9D9" stroke="black" stroke-width="2"/>
<rect x="442" y="140.178" width="160" height="67.3688" fill="#D9D9D9" stroke="black" stroke-width="2"/>
<rect x="352" y="70.8091" width="160" height="67.3688" fill="#D9D9D9" stroke="black" stroke-width="2"/>
<rect x="213" y="208.479" width="160" height="67.3688" fill="#9F9D9D" stroke="black" stroke-width="2"/>
<rect x="190" y="70.8091" width="160" height="67.3688" fill="#9F9D9D" stroke="black" stroke-width="2"/>
<rect x="254" y="1.44031" width="160" height="67.3688" fill="#9F9D9D" stroke="black" stroke-width="2"/>
<rect x="375" y="208.479" width="160" height="67.3688" fill="#757575" stroke="black" stroke-width="2"/>
<rect x="416" y="3.57474" width="160" height="67.3688" fill="#757575" stroke="black" stroke-width="2"/>
<rect x="28" y="69.7419" width="160" height="67.3688" fill="#757575" stroke="black" stroke-width="2"/>
<rect x="51" y="209.547" width="160" height="67.3688" fill="#757575" stroke="black" stroke-width="2"/>
<rect x="280" y="139.111" width="160" height="67.3688" fill="#B6B3B3" stroke="black" stroke-width="2"/>
<rect x="839" y="691.926" width="160" height="67.3688" fill="#D9D9D9" stroke="black" stroke-width="2"/>
<rect x="1258" y="762.362" width="160" height="67.3688" fill="#D9D9D9" stroke="black" stroke-width="2"/>
<rect x="1163" y="694.061" width="160" height="67.3688" fill="#757575" stroke="black" stroke-width="2"/>
<rect x="1071" y="622.558" width="160" height="67.3688" fill="#D9D9D9" stroke="black" stroke-width="2"/>
<rect x="934" y="762.362" width="160" height="67.3688" fill="#9F9D9D" stroke="black" stroke-width="2"/>
<rect x="913" y="622.558" width="160" height="67.3688" fill="#9F9D9D" stroke="black" stroke-width="2"/>
<rect x="1096" y="762.362" width="160" height="67.3688" fill="#757575" stroke="black" stroke-width="2"/>
<rect x="1001" y="692.994" width="160" height="67.3688" fill="#B6B3B3" stroke="black" stroke-width="2"/>
<rect x="773" y="761.295" width="160" height="67.3688" fill="#B6B3B3" stroke="black" stroke-width="2"/>
<rect x="408" y="483.82" width="160" height="67.3688" fill="#D9D9D9" stroke="black" stroke-width="2"/>
<rect x="804" y="415.519" width="160" height="67.3688" fill="#D9D9D9" stroke="black" stroke-width="2"/>
<rect x="1128" y="416.586" width="160" height="67.3688" fill="#D9D9D9" stroke="black" stroke-width="2"/>
<rect x="1038" y="347.217" width="160" height="67.3688" fill="#D9D9D9" stroke="black" stroke-width="2"/>
<rect x="890" y="483.82" width="160" height="67.3688" fill="#9F9D9D" stroke="black" stroke-width="2"/>
<rect x="827" y="553.189" width="160" height="67.3688" fill="#9F9D9D" stroke="black" stroke-width="2"/>
<rect x="876" y="347.217" width="160" height="67.3688" fill="#9F9D9D" stroke="black" stroke-width="2"/>
<rect x="1051" y="483.82" width="160" height="67.3688" fill="#757575" stroke="black" stroke-width="2"/>
<rect x="989" y="553.189" width="160" height="67.3688" fill="#757575" stroke="black" stroke-width="2"/>
<rect x="966" y="415.519" width="160" height="67.3688" fill="#B6B3B3" stroke="black" stroke-width="2"/>
<rect x="1142" y="553.189" width="160" height="67.3688" fill="#D9D9D9" stroke="black" stroke-width="2"/>
<rect x="732" y="484.887" width="160" height="67.3688" fill="#D9D9D9" stroke="black" stroke-width="2"/>
<rect x="642" y="415.519" width="160" height="67.3688" fill="#D9D9D9" stroke="black" stroke-width="2"/>
<rect x="503" y="553.189" width="160" height="67.3688" fill="#9F9D9D" stroke="black" stroke-width="2"/>
<rect x="480" y="415.519" width="160" height="67.3688" fill="#9F9D9D" stroke="black" stroke-width="2"/>
<rect x="665" y="553.189" width="160" height="67.3688" fill="#757575" stroke="black" stroke-width="2"/>
<rect x="751" y="622.558" width="160" height="67.3688" fill="#757575" stroke="black" stroke-width="2"/>
<rect x="751" y="622.558" width="160" height="67.3688" fill="#757575" stroke="black" stroke-width="2"/>
<rect x="1540" y="486" width="160" height="67.3688" fill="#757575" stroke="black" stroke-width="2"/>
<rect x="570" y="483.82" width="160" height="67.3688" fill="#B6B3B3" stroke="black" stroke-width="2"/>
<rect x="460" y="277.848" width="160" height="67.3688" fill="#B6B3B3" stroke="black" stroke-width="2"/>
<rect x="1497" y="210" width="160" height="67.3688" fill="#B6B3B3" stroke="black" stroke-width="2"/>
<rect x="784" y="278.915" width="160" height="67.3688" fill="#B6B3B3" stroke="black" stroke-width="2"/>
<rect x="694" y="209.547" width="160" height="67.3688" fill="#D9D9D9" stroke="black" stroke-width="2"/>
<rect x="555" y="347.217" width="160" height="67.3688" fill="#9F9D9D" stroke="black" stroke-width="2"/>
<rect x="532" y="209.547" width="160" height="67.3688" fill="#9F9D9D" stroke="black" stroke-width="2"/>
<rect x="717" y="347.217" width="160" height="67.3688" fill="#757575" stroke="black" stroke-width="2"/>
<rect x="622" y="277.848" width="160" height="67.3688" fill="#D9D9D9" stroke="black" stroke-width="2"/>
<rect y="2" width="1718" height="833" fill="#040404" fill-opacity="0.65"/>
</svg>
