<svg width="96" height="37" viewBox="0 0 96 37" fill="none" xmlns="http://www.w3.org/2000/svg">
<mask id="path-1-inside-1_391_2074" fill="white">
<path d="M4 10C4 4.47715 8.47715 0 14 0H82C87.5229 0 92 4.47715 92 10V27C92 32.5228 87.5229 37 82 37H14C8.47715 37 4 32.5228 4 27V10Z"/>
</mask>
<path d="M4 10C4 2.8203 9.8203 -3 17 -3H79C86.1797 -3 92 2.8203 92 10C92 6.13401 87.5229 3 82 3H14C8.47715 3 4 6.13401 4 10ZM92 27C92 34.1797 86.1797 40 79 40H17C9.8203 40 4 34.1797 4 27C4 30.866 8.47715 34 14 34H82C87.5229 34 92 30.866 92 27ZM4 37V0V37ZM92 0V37V0Z" fill="#840B0B" mask="url(#path-1-inside-1_391_2074)"/>
<path d="M4 10C4 2.8203 9.8203 -3 17 -3H79C86.1797 -3 92 2.8203 92 10C92 6.13401 87.5229 3 82 3H14C8.47715 3 4 6.13401 4 10ZM92 27C92 34.1797 86.1797 40 79 40H17C9.8203 40 4 34.1797 4 27C4 30.866 8.47715 34 14 34H82C87.5229 34 92 30.866 92 27ZM4 37V0V37ZM92 0V37V0Z" fill="url(#paint0_linear_391_2074)" mask="url(#path-1-inside-1_391_2074)"/>
<path d="M27.7197 12.9561C28.1279 13.0055 28.499 13.0426 28.833 13.0674C29.1546 13.0921 29.4329 13.1169 29.668 13.1416C29.9401 13.1663 30.1813 13.1849 30.3916 13.1973C30.6143 13.1973 30.8988 13.1911 31.2451 13.1787C31.542 13.1663 31.9193 13.1478 32.377 13.123C32.8346 13.0983 33.3975 13.055 34.0654 12.9932C33.7438 13.1787 33.4779 13.3643 33.2676 13.5498C33.0697 13.7354 32.915 13.9023 32.8037 14.0508C32.6676 14.224 32.5687 14.3971 32.5068 14.5703C32.4697 14.8053 32.4821 15.263 32.5439 15.9434C32.5687 16.2279 32.6058 16.5804 32.6553 17.001C32.7171 17.4092 32.7913 17.8978 32.8779 18.4668C32.9769 19.0234 33.0944 19.6667 33.2305 20.3965C33.3789 21.1263 33.5459 21.9551 33.7314 22.8828C33.9788 22.1777 34.1829 21.5531 34.3438 21.0088C34.5046 20.4521 34.6406 19.9759 34.752 19.5801C34.8757 19.1348 34.9808 18.7389 35.0674 18.3926C35.154 18.0339 35.2591 17.57 35.3828 17.001C35.4818 16.5186 35.6117 15.8939 35.7725 15.127C35.9333 14.36 36.1312 13.4137 36.3662 12.2881L37.0342 12.3809C37.096 13.2591 37.1579 14.0322 37.2197 14.7002C37.2939 15.3682 37.3558 15.9372 37.4053 16.4072C37.4548 16.9515 37.5042 17.4215 37.5537 17.8174C37.6032 18.1761 37.6774 18.5905 37.7764 19.0605C37.863 19.4564 37.9743 19.945 38.1104 20.5264C38.2464 21.0954 38.4258 21.7386 38.6484 22.4561C38.8711 21.5778 39.069 20.7923 39.2422 20.0996C39.4277 19.4069 39.5824 18.7946 39.7061 18.2627C39.8421 17.7308 39.9535 17.2731 40.04 16.8896C40.139 16.5062 40.2194 16.1846 40.2812 15.9248C40.4173 15.3063 40.4977 14.8919 40.5225 14.6816C40.5101 14.4466 40.4544 14.2178 40.3555 13.9951C40.2689 13.7972 40.1328 13.5807 39.9473 13.3457C39.7617 13.1107 39.4896 12.8818 39.1309 12.6592C39.8854 12.6839 40.4977 12.7025 40.9678 12.7148C41.4502 12.7148 41.8337 12.7148 42.1182 12.7148H42.8604H43.5283C43.7757 12.7148 44.0973 12.7148 44.4932 12.7148C44.9014 12.7025 45.4209 12.6839 46.0518 12.6592C45.5075 12.9437 45.0684 13.2035 44.7344 13.4385C44.4004 13.6735 44.1406 13.8714 43.9551 14.0322C43.7324 14.2301 43.5716 14.3971 43.4727 14.5332C43.3737 14.7806 43.2129 15.3372 42.9902 16.2031C42.8913 16.5742 42.7799 17.0381 42.6562 17.5947C42.5326 18.139 42.3841 18.7946 42.2109 19.5615C42.0501 20.3285 41.8646 21.2253 41.6543 22.252C41.444 23.2663 41.209 24.429 40.9492 25.7402L37.7393 25.4062L36.3662 19.6357C36.1559 20.6872 35.9889 21.5407 35.8652 22.1963C35.7415 22.8395 35.6488 23.3405 35.5869 23.6992C35.5127 24.1322 35.4694 24.4476 35.457 24.6455C35.4447 24.8187 35.4323 24.9857 35.4199 25.1465C35.4076 25.2826 35.389 25.431 35.3643 25.5918C35.3519 25.7526 35.3333 25.901 35.3086 26.0371H32.0244C31.7028 24.627 31.4121 23.3838 31.1523 22.3076C30.9049 21.2191 30.6823 20.2666 30.4844 19.4502C30.2865 18.6338 30.1133 17.9411 29.9648 17.3721C29.8288 16.8031 29.7051 16.3268 29.5938 15.9434C29.3464 15.0527 29.167 14.5023 29.0557 14.292C28.9691 14.193 28.8577 14.0755 28.7217 13.9395C28.6104 13.8281 28.4743 13.6921 28.3135 13.5312C28.1403 13.3581 27.9424 13.1663 27.7197 12.9561ZM43.0088 13.3271C43.8747 13.3519 44.5921 13.3704 45.1611 13.3828C45.7425 13.3828 46.2126 13.3828 46.5713 13.3828H47.5547H53.084C53.1087 13.6302 53.1273 13.8714 53.1396 14.1064C53.1644 14.3291 53.1768 14.527 53.1768 14.7002C53.1768 14.9105 53.1706 15.1022 53.1582 15.2754C53.1458 15.4486 53.1273 15.6341 53.1025 15.832C53.0778 16.0052 53.0531 16.1908 53.0283 16.3887C53.0036 16.5866 52.9603 16.7907 52.8984 17.001C52.7253 16.333 52.4902 15.8258 52.1934 15.4795C51.9089 15.1331 51.6182 14.8796 51.3213 14.7188C50.9749 14.5332 50.61 14.4342 50.2266 14.4219C49.7194 14.4466 49.3236 14.4899 49.0391 14.5518C48.7546 14.6136 48.5319 14.7002 48.3711 14.8115C48.2103 14.9229 48.0866 15.0527 48 15.2012C47.9258 15.3372 47.8454 15.4919 47.7588 15.665C47.6846 15.8135 47.6165 16.0423 47.5547 16.3516C47.4928 16.6113 47.431 16.9639 47.3691 17.4092C47.3197 17.8545 47.264 18.4297 47.2021 19.1348C47.5361 19.0358 47.8021 18.943 48 18.8564C48.2103 18.7699 48.3773 18.6956 48.501 18.6338C48.637 18.5596 48.736 18.4915 48.7979 18.4297C48.8473 18.3555 48.9215 18.2194 49.0205 18.0215C49.0947 17.8483 49.1937 17.6133 49.3174 17.3164C49.4535 17.0195 49.6143 16.6113 49.7998 16.0918C49.8245 16.6608 49.8369 17.137 49.8369 17.5205C49.8369 17.8916 49.8431 18.1947 49.8555 18.4297C49.8555 18.7018 49.8617 18.9183 49.874 19.0791V19.7842C49.874 20.0439 49.874 20.3965 49.874 20.8418C49.8864 21.2747 49.9049 21.8252 49.9297 22.4932C49.7812 22.0355 49.6452 21.6768 49.5215 21.417C49.4102 21.1449 49.3112 20.9408 49.2246 20.8047C49.1257 20.6439 49.0391 20.5326 48.9648 20.4707C48.8783 20.446 48.7607 20.4212 48.6123 20.3965C48.4762 20.3841 48.3031 20.3779 48.0928 20.3779C47.8949 20.3779 47.6413 20.4089 47.332 20.4707C47.2949 21.151 47.2887 21.7015 47.3135 22.1221C47.3506 22.5303 47.4001 22.8457 47.4619 23.0684C47.5238 23.3281 47.598 23.5137 47.6846 23.625C47.7959 23.7363 48.0186 23.8291 48.3525 23.9033C48.6865 23.9652 49.0638 23.9899 49.4844 23.9775C49.9173 23.9528 50.3564 23.8786 50.8018 23.7549C51.2471 23.6312 51.6429 23.4271 51.9893 23.1426C52.249 22.9076 52.5273 22.6107 52.8242 22.252C53.0716 21.9427 53.3438 21.5531 53.6406 21.083C53.9499 20.613 54.2529 20.0439 54.5498 19.376C54.5003 19.9326 54.4632 20.3965 54.4385 20.7676C54.4261 21.1263 54.4076 21.417 54.3828 21.6396C54.3581 21.8994 54.3395 22.0973 54.3271 22.2334C54.3271 22.3818 54.3086 22.5921 54.2715 22.8643C54.2467 23.0993 54.2035 23.4209 54.1416 23.8291C54.0921 24.2249 54.0241 24.7321 53.9375 25.3506C53.3561 25.363 52.8057 25.3753 52.2861 25.3877C51.7666 25.3877 51.3089 25.3939 50.9131 25.4062C50.443 25.4186 50.0101 25.431 49.6143 25.4434C49.2061 25.4434 48.7546 25.4619 48.2598 25.499C47.8268 25.5238 47.3135 25.5609 46.7197 25.6104C46.1383 25.6598 45.4951 25.7279 44.79 25.8145C44.8519 24.9733 44.8952 24.1816 44.9199 23.4395C44.957 22.6849 44.9818 22.0231 44.9941 21.4541C45.0065 20.7861 45.0065 20.1676 44.9941 19.5986C45.056 18.1761 45.0312 17.0257 44.9199 16.1475C44.8086 15.2692 44.6787 14.7064 44.5303 14.459C44.4561 14.3724 44.3509 14.2673 44.2148 14.1436C44.1035 14.0446 43.9489 13.9271 43.751 13.791C43.5531 13.6549 43.3057 13.5003 43.0088 13.3271ZM54.6611 12.7334C55.057 12.8324 55.4342 12.9066 55.793 12.9561C56.1517 13.0055 56.4671 13.0426 56.7393 13.0674C57.0609 13.1045 57.3577 13.1169 57.6299 13.1045C57.9762 13.1045 58.4092 13.0736 58.9287 13.0117C59.4606 12.9499 60.0049 12.8942 60.5615 12.8447C61.1182 12.7829 61.6501 12.7458 62.1572 12.7334C62.6768 12.7087 63.0973 12.7396 63.4189 12.8262C63.7406 12.9004 64.0684 13.0179 64.4023 13.1787C64.7487 13.3271 65.0641 13.5189 65.3486 13.7539C65.6331 13.9766 65.8682 14.2425 66.0537 14.5518C66.2393 14.8486 66.3444 15.1888 66.3691 15.5723C66.3568 16.0547 66.2454 16.5062 66.0352 16.9268C65.862 17.2855 65.5713 17.6566 65.1631 18.04C64.7549 18.4111 64.1673 18.6956 63.4004 18.8936C63.7839 18.943 64.1117 19.0296 64.3838 19.1533C64.6683 19.2646 64.9095 19.4007 65.1074 19.5615C65.3177 19.71 65.4847 19.877 65.6084 20.0625C65.7445 20.248 65.8496 20.4336 65.9238 20.6191C66.1094 21.0521 66.196 21.5345 66.1836 22.0664C66.1094 22.7591 65.9671 23.3096 65.7568 23.7178C65.5589 24.126 65.3301 24.4414 65.0703 24.6641C64.8105 24.8867 64.5446 25.0413 64.2725 25.1279C64.0003 25.2145 63.7529 25.2826 63.5303 25.332C63.3076 25.3815 63.0355 25.4062 62.7139 25.4062C62.3923 25.4062 62.0459 25.4001 61.6748 25.3877C61.3161 25.363 60.945 25.3444 60.5615 25.332C60.1781 25.3073 59.8132 25.3073 59.4668 25.332C59.1823 25.3568 58.8359 25.3815 58.4277 25.4062C58.0814 25.431 57.6484 25.4619 57.1289 25.499C56.6094 25.5238 56.0033 25.5547 55.3105 25.5918C55.4466 25.4928 55.5579 25.3815 55.6445 25.2578C55.7435 25.1217 55.8239 25.0042 55.8857 24.9053C55.9476 24.7816 56.0033 24.6641 56.0527 24.5527C56.0898 24.4538 56.1208 24.1816 56.1455 23.7363C56.1702 23.291 56.1888 22.7591 56.2012 22.1406C56.2135 21.5098 56.2197 20.8356 56.2197 20.1182C56.2321 19.3883 56.2259 18.6895 56.2012 18.0215C56.1888 17.3411 56.1641 16.7412 56.127 16.2217C56.1022 15.6898 56.0651 15.3063 56.0156 15.0713C55.9414 14.8115 55.8424 14.5456 55.7188 14.2734C55.6198 14.0384 55.4775 13.7848 55.292 13.5127C55.1188 13.2406 54.9085 12.9808 54.6611 12.7334ZM58.5762 14.626C58.5762 14.6755 58.5824 14.8424 58.5947 15.127C58.6071 15.3743 58.6195 15.7578 58.6318 16.2773C58.6566 16.7845 58.6875 17.5081 58.7246 18.4482C59.0339 18.5843 59.3369 18.6585 59.6338 18.6709C59.9307 18.6709 60.1966 18.6585 60.4316 18.6338C60.7038 18.5967 60.9635 18.5348 61.2109 18.4482C61.5449 18.3122 61.8047 18.0895 61.9902 17.7803C62.1882 17.471 62.318 17.1494 62.3799 16.8154C62.4541 16.4691 62.4727 16.1475 62.4355 15.8506C62.3984 15.5413 62.318 15.3187 62.1943 15.1826C61.9593 14.9723 61.6686 14.7992 61.3223 14.6631C61.0254 14.5518 60.6481 14.4775 60.1904 14.4404C59.7451 14.391 59.207 14.4528 58.5762 14.626ZM58.4834 23.4209C58.9411 23.6559 59.3431 23.8105 59.6895 23.8848C60.0358 23.959 60.3265 23.9961 60.5615 23.9961C60.8337 23.9961 61.0687 23.959 61.2666 23.8848C61.5016 23.7734 61.7305 23.625 61.9531 23.4395C62.1882 23.2415 62.3613 23.0127 62.4727 22.7529C62.5964 22.4808 62.6458 22.1839 62.6211 21.8623C62.5964 21.5283 62.4541 21.1634 62.1943 20.7676C61.9593 20.4831 61.6748 20.2604 61.3408 20.0996C61.0439 19.9635 60.6667 19.877 60.209 19.8398C59.7637 19.8027 59.2132 19.9079 58.5576 20.1553L58.4834 23.4209Z" fill="#840B0B"/>
<path d="M27.7197 12.9561C28.1279 13.0055 28.499 13.0426 28.833 13.0674C29.1546 13.0921 29.4329 13.1169 29.668 13.1416C29.9401 13.1663 30.1813 13.1849 30.3916 13.1973C30.6143 13.1973 30.8988 13.1911 31.2451 13.1787C31.542 13.1663 31.9193 13.1478 32.377 13.123C32.8346 13.0983 33.3975 13.055 34.0654 12.9932C33.7438 13.1787 33.4779 13.3643 33.2676 13.5498C33.0697 13.7354 32.915 13.9023 32.8037 14.0508C32.6676 14.224 32.5687 14.3971 32.5068 14.5703C32.4697 14.8053 32.4821 15.263 32.5439 15.9434C32.5687 16.2279 32.6058 16.5804 32.6553 17.001C32.7171 17.4092 32.7913 17.8978 32.8779 18.4668C32.9769 19.0234 33.0944 19.6667 33.2305 20.3965C33.3789 21.1263 33.5459 21.9551 33.7314 22.8828C33.9788 22.1777 34.1829 21.5531 34.3438 21.0088C34.5046 20.4521 34.6406 19.9759 34.752 19.5801C34.8757 19.1348 34.9808 18.7389 35.0674 18.3926C35.154 18.0339 35.2591 17.57 35.3828 17.001C35.4818 16.5186 35.6117 15.8939 35.7725 15.127C35.9333 14.36 36.1312 13.4137 36.3662 12.2881L37.0342 12.3809C37.096 13.2591 37.1579 14.0322 37.2197 14.7002C37.2939 15.3682 37.3558 15.9372 37.4053 16.4072C37.4548 16.9515 37.5042 17.4215 37.5537 17.8174C37.6032 18.1761 37.6774 18.5905 37.7764 19.0605C37.863 19.4564 37.9743 19.945 38.1104 20.5264C38.2464 21.0954 38.4258 21.7386 38.6484 22.4561C38.8711 21.5778 39.069 20.7923 39.2422 20.0996C39.4277 19.4069 39.5824 18.7946 39.7061 18.2627C39.8421 17.7308 39.9535 17.2731 40.04 16.8896C40.139 16.5062 40.2194 16.1846 40.2812 15.9248C40.4173 15.3063 40.4977 14.8919 40.5225 14.6816C40.5101 14.4466 40.4544 14.2178 40.3555 13.9951C40.2689 13.7972 40.1328 13.5807 39.9473 13.3457C39.7617 13.1107 39.4896 12.8818 39.1309 12.6592C39.8854 12.6839 40.4977 12.7025 40.9678 12.7148C41.4502 12.7148 41.8337 12.7148 42.1182 12.7148H42.8604H43.5283C43.7757 12.7148 44.0973 12.7148 44.4932 12.7148C44.9014 12.7025 45.4209 12.6839 46.0518 12.6592C45.5075 12.9437 45.0684 13.2035 44.7344 13.4385C44.4004 13.6735 44.1406 13.8714 43.9551 14.0322C43.7324 14.2301 43.5716 14.3971 43.4727 14.5332C43.3737 14.7806 43.2129 15.3372 42.9902 16.2031C42.8913 16.5742 42.7799 17.0381 42.6562 17.5947C42.5326 18.139 42.3841 18.7946 42.2109 19.5615C42.0501 20.3285 41.8646 21.2253 41.6543 22.252C41.444 23.2663 41.209 24.429 40.9492 25.7402L37.7393 25.4062L36.3662 19.6357C36.1559 20.6872 35.9889 21.5407 35.8652 22.1963C35.7415 22.8395 35.6488 23.3405 35.5869 23.6992C35.5127 24.1322 35.4694 24.4476 35.457 24.6455C35.4447 24.8187 35.4323 24.9857 35.4199 25.1465C35.4076 25.2826 35.389 25.431 35.3643 25.5918C35.3519 25.7526 35.3333 25.901 35.3086 26.0371H32.0244C31.7028 24.627 31.4121 23.3838 31.1523 22.3076C30.9049 21.2191 30.6823 20.2666 30.4844 19.4502C30.2865 18.6338 30.1133 17.9411 29.9648 17.3721C29.8288 16.8031 29.7051 16.3268 29.5938 15.9434C29.3464 15.0527 29.167 14.5023 29.0557 14.292C28.9691 14.193 28.8577 14.0755 28.7217 13.9395C28.6104 13.8281 28.4743 13.6921 28.3135 13.5312C28.1403 13.3581 27.9424 13.1663 27.7197 12.9561ZM43.0088 13.3271C43.8747 13.3519 44.5921 13.3704 45.1611 13.3828C45.7425 13.3828 46.2126 13.3828 46.5713 13.3828H47.5547H53.084C53.1087 13.6302 53.1273 13.8714 53.1396 14.1064C53.1644 14.3291 53.1768 14.527 53.1768 14.7002C53.1768 14.9105 53.1706 15.1022 53.1582 15.2754C53.1458 15.4486 53.1273 15.6341 53.1025 15.832C53.0778 16.0052 53.0531 16.1908 53.0283 16.3887C53.0036 16.5866 52.9603 16.7907 52.8984 17.001C52.7253 16.333 52.4902 15.8258 52.1934 15.4795C51.9089 15.1331 51.6182 14.8796 51.3213 14.7188C50.9749 14.5332 50.61 14.4342 50.2266 14.4219C49.7194 14.4466 49.3236 14.4899 49.0391 14.5518C48.7546 14.6136 48.5319 14.7002 48.3711 14.8115C48.2103 14.9229 48.0866 15.0527 48 15.2012C47.9258 15.3372 47.8454 15.4919 47.7588 15.665C47.6846 15.8135 47.6165 16.0423 47.5547 16.3516C47.4928 16.6113 47.431 16.9639 47.3691 17.4092C47.3197 17.8545 47.264 18.4297 47.2021 19.1348C47.5361 19.0358 47.8021 18.943 48 18.8564C48.2103 18.7699 48.3773 18.6956 48.501 18.6338C48.637 18.5596 48.736 18.4915 48.7979 18.4297C48.8473 18.3555 48.9215 18.2194 49.0205 18.0215C49.0947 17.8483 49.1937 17.6133 49.3174 17.3164C49.4535 17.0195 49.6143 16.6113 49.7998 16.0918C49.8245 16.6608 49.8369 17.137 49.8369 17.5205C49.8369 17.8916 49.8431 18.1947 49.8555 18.4297C49.8555 18.7018 49.8617 18.9183 49.874 19.0791V19.7842C49.874 20.0439 49.874 20.3965 49.874 20.8418C49.8864 21.2747 49.9049 21.8252 49.9297 22.4932C49.7812 22.0355 49.6452 21.6768 49.5215 21.417C49.4102 21.1449 49.3112 20.9408 49.2246 20.8047C49.1257 20.6439 49.0391 20.5326 48.9648 20.4707C48.8783 20.446 48.7607 20.4212 48.6123 20.3965C48.4762 20.3841 48.3031 20.3779 48.0928 20.3779C47.8949 20.3779 47.6413 20.4089 47.332 20.4707C47.2949 21.151 47.2887 21.7015 47.3135 22.1221C47.3506 22.5303 47.4001 22.8457 47.4619 23.0684C47.5238 23.3281 47.598 23.5137 47.6846 23.625C47.7959 23.7363 48.0186 23.8291 48.3525 23.9033C48.6865 23.9652 49.0638 23.9899 49.4844 23.9775C49.9173 23.9528 50.3564 23.8786 50.8018 23.7549C51.2471 23.6312 51.6429 23.4271 51.9893 23.1426C52.249 22.9076 52.5273 22.6107 52.8242 22.252C53.0716 21.9427 53.3438 21.5531 53.6406 21.083C53.9499 20.613 54.2529 20.0439 54.5498 19.376C54.5003 19.9326 54.4632 20.3965 54.4385 20.7676C54.4261 21.1263 54.4076 21.417 54.3828 21.6396C54.3581 21.8994 54.3395 22.0973 54.3271 22.2334C54.3271 22.3818 54.3086 22.5921 54.2715 22.8643C54.2467 23.0993 54.2035 23.4209 54.1416 23.8291C54.0921 24.2249 54.0241 24.7321 53.9375 25.3506C53.3561 25.363 52.8057 25.3753 52.2861 25.3877C51.7666 25.3877 51.3089 25.3939 50.9131 25.4062C50.443 25.4186 50.0101 25.431 49.6143 25.4434C49.2061 25.4434 48.7546 25.4619 48.2598 25.499C47.8268 25.5238 47.3135 25.5609 46.7197 25.6104C46.1383 25.6598 45.4951 25.7279 44.79 25.8145C44.8519 24.9733 44.8952 24.1816 44.9199 23.4395C44.957 22.6849 44.9818 22.0231 44.9941 21.4541C45.0065 20.7861 45.0065 20.1676 44.9941 19.5986C45.056 18.1761 45.0312 17.0257 44.9199 16.1475C44.8086 15.2692 44.6787 14.7064 44.5303 14.459C44.4561 14.3724 44.3509 14.2673 44.2148 14.1436C44.1035 14.0446 43.9489 13.9271 43.751 13.791C43.5531 13.6549 43.3057 13.5003 43.0088 13.3271ZM54.6611 12.7334C55.057 12.8324 55.4342 12.9066 55.793 12.9561C56.1517 13.0055 56.4671 13.0426 56.7393 13.0674C57.0609 13.1045 57.3577 13.1169 57.6299 13.1045C57.9762 13.1045 58.4092 13.0736 58.9287 13.0117C59.4606 12.9499 60.0049 12.8942 60.5615 12.8447C61.1182 12.7829 61.6501 12.7458 62.1572 12.7334C62.6768 12.7087 63.0973 12.7396 63.4189 12.8262C63.7406 12.9004 64.0684 13.0179 64.4023 13.1787C64.7487 13.3271 65.0641 13.5189 65.3486 13.7539C65.6331 13.9766 65.8682 14.2425 66.0537 14.5518C66.2393 14.8486 66.3444 15.1888 66.3691 15.5723C66.3568 16.0547 66.2454 16.5062 66.0352 16.9268C65.862 17.2855 65.5713 17.6566 65.1631 18.04C64.7549 18.4111 64.1673 18.6956 63.4004 18.8936C63.7839 18.943 64.1117 19.0296 64.3838 19.1533C64.6683 19.2646 64.9095 19.4007 65.1074 19.5615C65.3177 19.71 65.4847 19.877 65.6084 20.0625C65.7445 20.248 65.8496 20.4336 65.9238 20.6191C66.1094 21.0521 66.196 21.5345 66.1836 22.0664C66.1094 22.7591 65.9671 23.3096 65.7568 23.7178C65.5589 24.126 65.3301 24.4414 65.0703 24.6641C64.8105 24.8867 64.5446 25.0413 64.2725 25.1279C64.0003 25.2145 63.7529 25.2826 63.5303 25.332C63.3076 25.3815 63.0355 25.4062 62.7139 25.4062C62.3923 25.4062 62.0459 25.4001 61.6748 25.3877C61.3161 25.363 60.945 25.3444 60.5615 25.332C60.1781 25.3073 59.8132 25.3073 59.4668 25.332C59.1823 25.3568 58.8359 25.3815 58.4277 25.4062C58.0814 25.431 57.6484 25.4619 57.1289 25.499C56.6094 25.5238 56.0033 25.5547 55.3105 25.5918C55.4466 25.4928 55.5579 25.3815 55.6445 25.2578C55.7435 25.1217 55.8239 25.0042 55.8857 24.9053C55.9476 24.7816 56.0033 24.6641 56.0527 24.5527C56.0898 24.4538 56.1208 24.1816 56.1455 23.7363C56.1702 23.291 56.1888 22.7591 56.2012 22.1406C56.2135 21.5098 56.2197 20.8356 56.2197 20.1182C56.2321 19.3883 56.2259 18.6895 56.2012 18.0215C56.1888 17.3411 56.1641 16.7412 56.127 16.2217C56.1022 15.6898 56.0651 15.3063 56.0156 15.0713C55.9414 14.8115 55.8424 14.5456 55.7188 14.2734C55.6198 14.0384 55.4775 13.7848 55.292 13.5127C55.1188 13.2406 54.9085 12.9808 54.6611 12.7334ZM58.5762 14.626C58.5762 14.6755 58.5824 14.8424 58.5947 15.127C58.6071 15.3743 58.6195 15.7578 58.6318 16.2773C58.6566 16.7845 58.6875 17.5081 58.7246 18.4482C59.0339 18.5843 59.3369 18.6585 59.6338 18.6709C59.9307 18.6709 60.1966 18.6585 60.4316 18.6338C60.7038 18.5967 60.9635 18.5348 61.2109 18.4482C61.5449 18.3122 61.8047 18.0895 61.9902 17.7803C62.1882 17.471 62.318 17.1494 62.3799 16.8154C62.4541 16.4691 62.4727 16.1475 62.4355 15.8506C62.3984 15.5413 62.318 15.3187 62.1943 15.1826C61.9593 14.9723 61.6686 14.7992 61.3223 14.6631C61.0254 14.5518 60.6481 14.4775 60.1904 14.4404C59.7451 14.391 59.207 14.4528 58.5762 14.626ZM58.4834 23.4209C58.9411 23.6559 59.3431 23.8105 59.6895 23.8848C60.0358 23.959 60.3265 23.9961 60.5615 23.9961C60.8337 23.9961 61.0687 23.959 61.2666 23.8848C61.5016 23.7734 61.7305 23.625 61.9531 23.4395C62.1882 23.2415 62.3613 23.0127 62.4727 22.7529C62.5964 22.4808 62.6458 22.1839 62.6211 21.8623C62.5964 21.5283 62.4541 21.1634 62.1943 20.7676C61.9593 20.4831 61.6748 20.2604 61.3408 20.0996C61.0439 19.9635 60.6667 19.877 60.209 19.8398C59.7637 19.8027 59.2132 19.9079 58.5576 20.1553L58.4834 23.4209Z" fill="url(#paint1_linear_391_2074)"/>
<defs>
<linearGradient id="paint0_linear_391_2074" x1="4" y1="19.0968" x2="92.0028" y2="17.4552" gradientUnits="userSpaceOnUse">
<stop stop-opacity="0"/>
<stop offset="0.495"/>
<stop offset="1" stop-opacity="0"/>
</linearGradient>
<linearGradient id="paint1_linear_391_2074" x1="0" y1="16" x2="96" y2="16" gradientUnits="userSpaceOnUse">
<stop offset="0.0659998" stop-opacity="0.18"/>
<stop offset="0.261" stop-opacity="0.7"/>
<stop offset="0.526" stop-opacity="0.09"/>
<stop offset="0.826" stop-opacity="0.7"/>
<stop offset="1" stop-opacity="0"/>
</linearGradient>
</defs>
</svg>
