<svg width="170" height="75" viewBox="0 0 170 75" fill="none" xmlns="http://www.w3.org/2000/svg">
<g clip-path="url(#clip0_185_19717)">
<rect y="1" width="165" height="71" fill="#D41A1A"/>
<path d="M84.6875 39.4062H89.7148L95.4277 57.2129L101.141 39.4062H106.168L97.4668 65H93.3887L84.6875 39.4062ZM81.6289 39.4062H86.832L87.7988 59.0234V65H81.6289V39.4062ZM104.023 39.4062H109.244V65H103.057V59.0234L104.023 39.4062ZM126.383 58.1973C126.383 57.7988 126.324 57.4414 126.207 57.125C126.09 56.7969 125.873 56.4922 125.557 56.2109C125.24 55.9297 124.783 55.6484 124.186 55.3672C123.6 55.0742 122.826 54.7695 121.865 54.4531C120.74 54.0781 119.656 53.6562 118.613 53.1875C117.57 52.707 116.639 52.1504 115.818 51.5176C114.998 50.873 114.348 50.123 113.867 49.2676C113.387 48.4004 113.146 47.3926 113.146 46.2441C113.146 45.1426 113.393 44.1523 113.885 43.2734C114.377 42.3828 115.062 41.627 115.941 41.0059C116.832 40.373 117.875 39.8926 119.07 39.5645C120.266 39.2246 121.572 39.0547 122.99 39.0547C124.865 39.0547 126.518 39.3828 127.947 40.0391C129.389 40.6836 130.514 41.6035 131.322 42.7988C132.143 43.9824 132.553 45.3828 132.553 47H126.418C126.418 46.3555 126.283 45.7871 126.014 45.2949C125.756 44.8027 125.363 44.416 124.836 44.1348C124.309 43.8535 123.646 43.7129 122.85 43.7129C122.076 43.7129 121.426 43.8301 120.898 44.0645C120.371 44.2988 119.973 44.6152 119.703 45.0137C119.434 45.4004 119.299 45.8281 119.299 46.2969C119.299 46.6836 119.404 47.0352 119.615 47.3516C119.838 47.6562 120.148 47.9434 120.547 48.2129C120.957 48.4824 121.449 48.7402 122.023 48.9863C122.609 49.2324 123.266 49.4727 123.992 49.707C125.352 50.1406 126.559 50.627 127.613 51.166C128.68 51.6934 129.576 52.2969 130.303 52.9766C131.041 53.6445 131.598 54.4062 131.973 55.2617C132.359 56.1172 132.553 57.084 132.553 58.1621C132.553 59.3105 132.33 60.3301 131.885 61.2207C131.439 62.1113 130.801 62.8672 129.969 63.4883C129.137 64.0977 128.141 64.5605 126.98 64.877C125.82 65.1934 124.525 65.3516 123.096 65.3516C121.783 65.3516 120.488 65.1875 119.211 64.8594C117.945 64.5195 116.797 64.0039 115.766 63.3125C114.734 62.6094 113.908 61.7129 113.287 60.623C112.678 59.5215 112.373 58.2148 112.373 56.7031H118.561C118.561 57.4531 118.66 58.0859 118.859 58.6016C119.059 59.1172 119.352 59.5332 119.738 59.8496C120.125 60.1543 120.6 60.377 121.162 60.5176C121.725 60.6465 122.369 60.7109 123.096 60.7109C123.881 60.7109 124.514 60.5996 124.994 60.377C125.475 60.1426 125.826 59.8379 126.049 59.4629C126.271 59.0762 126.383 58.6543 126.383 58.1973ZM156.67 51.3242V61.8359C156.236 62.3164 155.568 62.832 154.666 63.3828C153.775 63.9219 152.65 64.3848 151.291 64.7715C149.932 65.1582 148.332 65.3516 146.492 65.3516C144.793 65.3516 143.252 65.082 141.869 64.543C140.486 63.9922 139.297 63.1895 138.301 62.1348C137.316 61.0684 136.555 59.7676 136.016 58.2324C135.488 56.6855 135.225 54.916 135.225 52.9238V51.5C135.225 49.5078 135.494 47.7383 136.033 46.1914C136.572 44.6445 137.328 43.3438 138.301 42.2891C139.285 41.2227 140.439 40.4141 141.764 39.8633C143.1 39.3125 144.564 39.0371 146.158 39.0371C148.514 39.0371 150.43 39.4121 151.906 40.1621C153.383 40.9004 154.502 41.9258 155.264 43.2383C156.025 44.5391 156.488 46.0449 156.652 47.7559H150.729C150.611 46.9121 150.389 46.1973 150.061 45.6113C149.744 45.0137 149.287 44.5625 148.689 44.2578C148.092 43.9414 147.318 43.7832 146.369 43.7832C145.631 43.7832 144.957 43.9414 144.348 44.2578C143.75 44.5742 143.24 45.0547 142.818 45.6992C142.396 46.332 142.068 47.1289 141.834 48.0898C141.611 49.0508 141.5 50.1758 141.5 51.4648V52.9238C141.5 54.2012 141.605 55.3203 141.816 56.2812C142.039 57.2422 142.367 58.0449 142.801 58.6895C143.246 59.3223 143.809 59.8027 144.488 60.1309C145.18 60.4473 145.994 60.6055 146.932 60.6055C147.588 60.6055 148.15 60.5527 148.619 60.4473C149.088 60.3301 149.475 60.1895 149.779 60.0254C150.096 59.8496 150.336 59.6855 150.5 59.5332V55.5605H146.211V51.3242H156.67Z" fill="white"/>
<path d="M71.9536 9.5509C76.665 15.0283 75.8179 23.2882 70.0614 28C64.7336 23.4139 65.4305 24.2243 60.7191 18.7469C56.0077 13.2696 54.6974 11.7463 53 8.16496C58.7563 3.45308 67.2422 4.07359 71.9536 9.5509Z" fill="#D9D9D9"/>
<path d="M67 9C67.5523 9 68 8.55228 68 8C68 7.44772 67.5523 7 67 7C66.4477 7 66 7.44772 66 8C66 8.55228 66.4477 9 67 9Z" fill="#817B7B"/>
<path d="M73 16C73.5523 16 74 15.5523 74 15C74 14.4477 73.5523 14 73 14C72.4477 14 72 14.4477 72 15C72 15.5523 72.4477 16 73 16Z" fill="#817B7B"/>
<path d="M70 16C70.5523 16 71 15.5523 71 15C71 14.4477 70.5523 14 70 14C69.4477 14 69 14.4477 69 15C69 15.5523 69.4477 16 70 16Z" fill="#817B7B"/>
<path d="M67 13C67.5523 13 68 12.5523 68 12C68 11.4477 67.5523 11 67 11C66.4477 11 66 11.4477 66 12C66 12.5523 66.4477 13 67 13Z" fill="#817B7B"/>
<path d="M70 13C70.5523 13 71 12.5523 71 12C71 11.4477 70.5523 11 70 11C69.4477 11 69 11.4477 69 12C69 12.5523 69.4477 13 70 13Z" fill="#817B7B"/>
<path d="M73 19C73.5523 19 74 18.5523 74 18C74 17.4477 73.5523 17 73 17C72.4477 17 72 17.4477 72 18C72 18.5523 72.4477 19 73 19Z" fill="#817B7B"/>
<path d="M63.0772 35.6C65.6663 32.3241 65.6377 27.5757 63.0095 24.3295L56.3538 16.1084C53.8474 13.0128 49.6427 12.1143 46.181 13.9346L11.6194 32.1089C6.82959 34.6277 5.50005 41.139 8.88665 45.4928L25.4289 66.7591C28.7709 71.0556 35.0307 71.0847 38.4019 66.8194L63.0772 35.6Z" fill="#E4E3E3"/>
<path d="M50.6739 7.36209C51.5536 6.59159 52.8646 6.71071 53.6021 7.62814L62.1798 18.2987L70.7574 28.9692C71.4949 29.8866 71.3796 31.255 70.5 32.0255C69.6203 32.796 68.3093 32.6769 67.5718 31.7594L58.9941 21.0889L50.4165 10.4184C49.679 9.50092 49.7943 8.13259 50.6739 7.36209Z" fill="#818181" stroke="#505050" stroke-width="2"/>
<path d="M49.9031 10.8448L67.0585 32.1859C67.8554 33.1773 67.7308 34.6559 66.7802 35.4885C65.8296 36.3212 64.413 36.1924 63.616 35.201L46.4607 13.86C45.6637 12.8686 45.7883 11.3899 46.7389 10.5573C47.6895 9.72468 49.1062 9.8534 49.9031 10.8448Z" fill="#818181" stroke="#505050" stroke-width="2"/>
<path d="M59 38L16 49.3958L32.8773 68L59 38Z" fill="white"/>
<path d="M21 48H18V50H21V48Z" fill="#FFFCFC"/>
<path d="M23 46H21V49H23V46Z" fill="#FFFCFC"/>
<path d="M27 46H24V48H27V46Z" fill="#FFFCFC"/>
<path d="M29 44H27V47H29V44Z" fill="#FFFCFC"/>
<path d="M31 44H29V46H31V44Z" fill="#FFFCFC"/>
<path d="M37 43H34V46H37V43Z" fill="#FFFCFC"/>
<path d="M34 44H33V46H34V44Z" fill="#FFFCFC"/>
</g>
<defs>
<clipPath id="clip0_185_19717">
<rect width="170" height="75" fill="white"/>
</clipPath>
</defs>
</svg>
