<svg width="20" height="21" viewBox="0 0 20 21" fill="none" xmlns="http://www.w3.org/2000/svg">
<g filter="url(#filter0_d_193_19642)">
<path d="M12.0854 18.801C10.8419 19.733 9.1581 19.733 7.91462 18.801L1.96272 14.3398C0.719241 13.4077 0.198919 11.7556 0.673887 10.2475L2.94731 3.02913C3.42228 1.52105 4.7845 0.5 6.32153 0.5H13.6785C15.2155 0.5 16.5777 1.52105 17.0527 3.02913L19.3261 10.2475C19.8011 11.7556 19.2808 13.4077 18.0373 14.3398L12.0854 18.801Z" fill="url(#paint0_linear_193_19642)"/>
<path d="M8.51439 18.0008L2.56249 13.5396C1.66659 12.8681 1.27721 11.6608 1.6277 10.5479L3.90112 3.32953C4.25013 2.22138 5.23809 1.5 6.32153 1.5H13.6785C14.7619 1.5 15.7499 2.22138 16.0989 3.32953L18.3723 10.5479C18.7228 11.6608 18.3334 12.8681 17.4375 13.5396L11.4856 18.0008C10.5976 18.6664 9.40241 18.6664 8.51439 18.0008Z" stroke="black" stroke-opacity="0.24" stroke-width="2"/>
</g>
<path d="M9.69757 6.98441C9.82427 6.7386 10.1757 6.7386 10.3024 6.98441L11.1074 8.54612C11.1398 8.60902 11.191 8.66025 11.2539 8.69267L12.8156 9.49762C13.0615 9.62432 13.0615 9.97578 12.8156 10.1025L11.2539 10.9074C11.191 10.9398 11.1398 10.9911 11.1074 11.054L10.3024 12.6157C10.1757 12.8615 9.82427 12.8615 9.69757 12.6157L8.89262 11.054C8.8602 10.9911 8.80898 10.9398 8.74607 10.9074L7.18436 10.1025C6.93855 9.97578 6.93855 9.62432 7.18436 9.49762L8.74607 8.69267C8.80898 8.66025 8.8602 8.60902 8.89262 8.54612L9.69757 6.98441Z" fill="url(#paint1_angular_193_19642)"/>
<path d="M9.69757 6.98441C9.82427 6.7386 10.1757 6.7386 10.3024 6.98441L11.1074 8.54612C11.1398 8.60902 11.191 8.66025 11.2539 8.69267L12.8156 9.49762C13.0615 9.62432 13.0615 9.97578 12.8156 10.1025L11.2539 10.9074C11.191 10.9398 11.1398 10.9911 11.1074 11.054L10.3024 12.6157C10.1757 12.8615 9.82427 12.8615 9.69757 12.6157L8.89262 11.054C8.8602 10.9911 8.80898 10.9398 8.74607 10.9074L7.18436 10.1025C6.93855 9.97578 6.93855 9.62432 7.18436 9.49762L8.74607 8.69267C8.80898 8.66025 8.8602 8.60902 8.89262 8.54612L9.69757 6.98441Z" fill="url(#paint2_angular_193_19642)" fill-opacity="0.5"/>
<path d="M11.5284 8.27164L10.7469 6.75534C10.434 6.14829 9.56602 6.14829 9.25313 6.75533L8.47159 8.27164L6.95529 9.05318C6.34824 9.36607 6.34824 10.234 6.95529 10.5469L8.47159 11.3285L9.25313 12.8448C9.56602 13.4518 10.434 13.4518 10.7469 12.8448L11.5284 11.3285L13.0447 10.5469C13.6518 10.234 13.6518 9.36607 13.0447 9.05318L11.5284 8.27164Z" stroke="black" stroke-opacity="0.16"/>
<path fill-rule="evenodd" clip-rule="evenodd" d="M2.16064 14.4879L15.5792 1.06934C16.2604 1.51523 16.7914 2.19829 17.0531 3.02919L18.263 6.87079L7.01064 18.1231L2.16064 14.4879Z" fill="white" fill-opacity="0.32"/>
<defs>
<filter id="filter0_d_193_19642" x="0.5" y="0.5" width="19" height="20" filterUnits="userSpaceOnUse" color-interpolation-filters="sRGB">
<feFlood flood-opacity="0" result="BackgroundImageFix"/>
<feColorMatrix in="SourceAlpha" type="matrix" values="0 0 0 0 0 0 0 0 0 0 0 0 0 0 0 0 0 0 127 0" result="hardAlpha"/>
<feOffset dy="1"/>
<feComposite in2="hardAlpha" operator="out"/>
<feColorMatrix type="matrix" values="0 0 0 0 0.300741 0 0 0 0 0.171852 0 0 0 0 0.0192593 0 0 0 1 0"/>
<feBlend mode="normal" in2="BackgroundImageFix" result="effect1_dropShadow_193_19642"/>
<feBlend mode="normal" in="SourceGraphic" in2="effect1_dropShadow_193_19642" result="shape"/>
</filter>
<linearGradient id="paint0_linear_193_19642" x1="10.0002" y1="20.364" x2="10.0002" y2="-1.59713" gradientUnits="userSpaceOnUse">
<stop stop-color="#F07E00"/>
<stop offset="1" stop-color="#F7F4CF"/>
</linearGradient>
<radialGradient id="paint1_angular_193_19642" cx="0" cy="0" r="1" gradientUnits="userSpaceOnUse" gradientTransform="translate(10 9.80005) rotate(90) scale(3)">
<stop stop-color="white"/>
<stop offset="1" stop-color="#E0E0E0"/>
</radialGradient>
<radialGradient id="paint2_angular_193_19642" cx="0" cy="0" r="1" gradientUnits="userSpaceOnUse" gradientTransform="translate(10 9.80005) rotate(-180) scale(3)">
<stop stop-color="white"/>
<stop offset="1" stop-color="#E0E0E0"/>
</radialGradient>
</defs>
</svg>
